<?xml version="1.0" standalone="no"?>
<!DOCTYPE svg PUBLIC "-//W3C//DTD SVG 1.1//EN" "http://www.w3.org/Graphics/SVG/1.1/DTD/svg11.dtd" >
<svg xmlns="http://www.w3.org/2000/svg" xmlns:xlink="http://www.w3.org/1999/xlink" version="1.1">
<metadata>
Created by FontForge 20170731 at Tue Dec  2 21:37:45 2008
 By Aleksey,,,
Copyright (c) 2008 by Jeremy Dooley. All rights reserved.
</metadata>
<defs>
<font id="Youngblood" horiz-adv-x="331" >
  <font-face 
    font-family="Youngblood"
    font-weight="400"
    font-stretch="normal"
    units-per-em="1000"
    panose-1="0 0 0 0 0 0 0 0 0 0"
    ascent="750"
    descent="-250"
    x-height="240"
    cap-height="500"
    bbox="-796 -401 1424.36 834"
    underline-thickness="50"
    underline-position="-200"
    unicode-range="U+0020-FB06"
  />
<missing-glyph horiz-adv-x="202" 
 />
    <glyph glyph-name="ff" unicode="ff" horiz-adv-x="356" 
d="M-472 -300q0 145 372 222l189 300h-69l10 18h70l99 157q49 78 121.5 140.5t137.5 62.5q45 0 57 -34l1 -3q57 37 103 37q45 0 57 -34l-51 -52h-12q13 24 13 44q0 23 -23 23q-14 0 -29 -6t-27.5 -13.5t-27.5 -23.5t-24.5 -27t-24 -32t-21 -31t-21 -33t-17.5 -28l-92 -147
h93l-10 -18h-94l-162 -264q21 2 60 2q104 0 163.5 -40.5t59.5 -94.5q0 -49 -50 -83.5t-141 -34.5q-81 0 -127 24l7 9q45 -21 117 -21q64 0 107.5 22.5t43.5 72.5q0 64 -66.5 93.5t-160.5 29.5q-5 0 -14 -0.5t-13 -0.5l-7 -11q-94 -151 -213 -237t-225 -86q-40 0 -76 12
q-45 -15 -88 -15q-67 0 -108.5 26t-41.5 70q0 81 125 129l5 -11q-36 -21 -57.5 -53t-21.5 -68q0 -42 30.5 -61.5t70.5 -19.5q30 0 63 11q-60 27 -60 78zM158 240h103l99 157q40 62 85 107l9 13q11 22 11 41q0 23 -23 23q-14 0 -29 -6t-27.5 -13.5t-27.5 -23.5t-24.5 -27
t-24 -32t-21 -31t-21 -33t-17.5 -28zM-382 -366q73 35 144.5 110t124.5 157q-299 -68 -299 -206q0 -39 30 -61zM-311 -386q51 0 107 30t105 78.5t88.5 97t70.5 98.5l9 13q-57 -6 -112 -16q-69 -108 -152 -183t-166 -109q24 -9 50 -9zM147 222l-178 -288q32 6 112 17l169 271
h-103z" />
    <glyph glyph-name="fi" unicode="fi" horiz-adv-x="341" 
d="M-635 -302q0 177 553 251l171 273h-99l10 18h100l99 157q49 78 121.5 140.5t137.5 62.5q45 0 57 -34l-51 -52h-12q13 24 13 44q0 23 -23 23q-14 0 -29 -6t-27.5 -13.5t-27.5 -23.5t-24.5 -27t-24 -32t-21 -31t-21 -33t-17.5 -28l-92 -147h113q26 0 33 11l11 -4l-113 -181
q-27 -45 -3 -43q16 1 48 22l7 -8q-59 -47 -98 -47q-24 0 -31.5 18.5t5.5 38.5l103 164q5 10 -5 11h-81l-164 -266q21 2 60 2q104 0 163.5 -40.5t59.5 -94.5q0 -49 -50 -83.5t-141 -34.5q-81 0 -127 24l7 9q45 -21 117 -21q64 0 107.5 22.5t43.5 72.5q0 64 -66.5 93.5
t-160.5 29.5q-4 0 -13.5 -0.5t-13.5 -0.5l-7 -11q-94 -151 -213 -237t-225 -86q-23 0 -48 5t-51 15t-43 30.5t-17 47.5zM-474 -388q51 0 107 30t105 78.5t88.5 97t70.5 98.5l9 13q-45 -5 -88 -12t-102 -19.5t-107 -31t-91.5 -42.5t-68 -58t-24.5 -73q0 -42 30.5 -61.5
t70.5 -19.5z" />
    <glyph glyph-name="fl" unicode="fl" horiz-adv-x="357" 
d="M147 222l-164 -266q21 2 60 2q104 0 163.5 -40.5t59.5 -94.5q0 -49 -50 -83.5t-141 -34.5q-81 0 -127 24l7 9q45 -21 117 -21q64 0 107.5 22.5t43.5 72.5q0 64 -66.5 93.5t-160.5 29.5q-4 0 -13.5 -0.5t-13.5 -0.5l-7 -11q-94 -151 -213 -237t-225 -86q-23 0 -48 5
t-51 15t-43 30.5t-17 47.5q0 177 553 251l171 273h-99l10 18h100l36 57q-58 17 -89 50.5t-31 71.5q0 49 50 83.5t141 34.5q54 0 98 -13q87 76 153 76q45 0 57 -34l-51 -52h-12q13 24 13 44q0 23 -23 23q-14 0 -29 -6t-27.5 -13.5t-27.5 -23.5t-24.5 -27t-24 -32t-21 -31
t-21 -33t-17.5 -28l-46 -74q31 -6 82 -6q4 0 13 0.5t14 0.5l7 11q94 151 213 237t225 86q23 0 48 -5t51 -15t43 -30.5t17 -47.5q0 -177 -553 -251l-148 -238q-20 -33 2 -32q17 1 49 22l7 -8q-59 -47 -98 -47q-24 0 -31.5 18.5t5.5 38.5l109 175h-112zM-474 -388q51 0 107 30
t105 78.5t88.5 97t70.5 98.5l9 13q-45 -5 -88 -12t-102 -19.5t-107 -31t-91.5 -42.5t-68 -58t-24.5 -73q0 -42 30.5 -61.5t70.5 -19.5zM756 630q-51 0 -107 -30t-105 -78.5t-88.5 -97t-70.5 -98.5l-9 -13q45 5 88 12t102 19.5t107 31t91.5 42.5t68 58t24.5 73
q0 42 -30.5 61.5t-70.5 19.5zM199 397q40 64 96 118q-40 10 -85 10q-64 0 -107.5 -22.5t-43.5 -72.5q0 -74 94 -105zM158 240h112l29 46q-21 -2 -60 -2q-28 0 -52 3z" />
    <glyph glyph-name="ffi" unicode="ffi" horiz-adv-x="502" 
d="M-472 -300q0 145 372 222l189 300h-69l10 18h70l99 157q49 78 121.5 140.5t137.5 62.5q45 0 57 -34l1 -3q57 37 103 37q45 0 57 -34l-51 -52h-12q13 24 13 44q0 23 -23 23q-14 0 -29 -6t-27.5 -13.5t-27.5 -23.5t-24.5 -27t-24 -32t-21 -31t-21 -33t-17.5 -28l-92 -147
h113q26 0 33 11l11 -4l-113 -181q-27 -45 -3 -43q17 1 48 22l7 -8q-59 -47 -98 -47q-24 0 -31.5 18.5t5.5 38.5l103 164q4 6 2 8.5t-12 2.5h-76l-162 -264q21 2 60 2q104 0 163.5 -40.5t59.5 -94.5q0 -49 -50 -83.5t-141 -34.5q-81 0 -127 24l7 9q45 -21 117 -21
q64 0 107.5 22.5t43.5 72.5q0 64 -66.5 93.5t-160.5 29.5q-5 0 -14 -0.5t-13 -0.5l-7 -11q-94 -151 -213 -237t-225 -86q-40 0 -76 12q-45 -15 -88 -15q-67 0 -108.5 26t-41.5 70q0 81 125 129l5 -11q-36 -21 -57.5 -53t-21.5 -68q0 -42 30.5 -61.5t70.5 -19.5q30 0 63 11
q-60 27 -60 78zM250 387l-92 -147h103l99 157q40 62 85 107l9 13q11 22 11 41q0 23 -23 23q-14 0 -29 -6t-27.5 -13.5t-27.5 -23.5t-24.5 -27t-24 -32t-21 -31t-21 -33t-17.5 -28zM-382 -366q73 35 144.5 110t124.5 157q-299 -68 -299 -206q0 -39 30 -61zM-311 -386
q51 0 107 30t105 78.5t88.5 97t70.5 98.5l9 13q-57 -6 -112 -16q-69 -108 -152 -183t-166 -109q24 -9 50 -9zM147 222l-178 -288q32 6 112 17l169 271h-103z" />
    <glyph glyph-name="ffl" unicode="ffl" horiz-adv-x="518" 
d="M308 222l-162 -264q21 2 60 2q104 0 163.5 -40.5t59.5 -94.5q0 -49 -50 -83.5t-141 -34.5q-81 0 -127 24l7 9q45 -21 117 -21q64 0 107.5 22.5t43.5 72.5q0 64 -66.5 93.5t-160.5 29.5q-5 0 -14 -0.5t-13 -0.5l-7 -11q-94 -151 -213 -237t-225 -86q-40 0 -76 12
q-45 -15 -88 -15q-67 0 -108.5 26t-41.5 70q0 81 125 129l5 -11q-36 -21 -57.5 -53t-21.5 -68q0 -42 30.5 -61.5t70.5 -19.5q30 0 63 11q-60 27 -60 78q0 145 372 222l189 300h-69l10 18h70l87 138q-10 19 -10 41q0 41 36 73t103 41q79 67 142 67q45 0 57 -34l1 -3
q57 37 103 37q45 0 57 -34l-51 -52h-12q13 24 13 44q0 23 -23 23q-14 0 -29 -6t-27.5 -13.5t-27.5 -23.5t-24.5 -27t-24 -32t-21 -31t-21 -33t-17.5 -28l-46 -74q31 -6 82 -6q5 0 14 0.5t13 0.5l7 11q94 151 213 237t225 86q23 0 48 -5t51 -15t43 -30.5t17 -47.5
q0 -177 -553 -251l-148 -238q-20 -33 2 -32q18 2 49 22l7 -8q-59 -47 -98 -47q-24 0 -31.5 18.5t5.5 38.5l109 175h-112zM917 630q-51 0 -107 -30t-105 -78.5t-88.5 -97t-70.5 -98.5l-9 -13q45 5 88 12t102 19.5t107 31t91.5 42.5t68 58t24.5 73q0 42 -30.5 61.5t-70.5 19.5
zM-382 -366q73 35 144.5 110t124.5 157q-299 -68 -299 -206q0 -39 30 -61zM-311 -386q51 0 107 30t105 78.5t88.5 97t70.5 98.5l9 13q-57 -6 -112 -16q-69 -108 -152 -183t-166 -109q24 -9 50 -9zM147 222l-178 -288q32 6 112 17l169 271h-103zM250 387l-10 -16
q24 -30 74 -46l46 72q40 62 85 107l7 10q0 1 1 1q-40 10 -82 10q-5 0 -14 -0.5t-13 -0.5q-23 -26 -94 -137zM158 240h103l36 57q-48 14 -78 40zM400 284q-28 0 -52 3l-29 -47h112l29 46q-21 -2 -60 -2zM442 581q-41 0 -85 -44h11q49 0 90 -11q7 19 7 32q0 23 -23 23z
M220 428q32 45 76 88q-76 -22 -76 -86v-2z" />
    <glyph glyph-name="f_f_j" unicode="ffj" horiz-adv-x="463" 
d="M-472 -300q0 145 372 222l189 300h-69l10 18h70l99 157q49 78 121.5 140.5t137.5 62.5q45 0 57 -34l1 -3q57 37 103 37q45 0 57 -34l-51 -52h-12q13 24 13 44q0 23 -23 23q-14 0 -29 -6t-27.5 -13.5t-27.5 -23.5t-24.5 -27t-24 -32t-21 -31t-21 -33t-17.5 -28l-92 -147
h114q19 0 33 11l11 -4l-185 -296q65 -15 101 -50t36 -76q0 -49 -50 -83.5t-141 -34.5q-77 0 -124 22q-145 -129 -278 -129q-40 0 -75 12q-42 -10 -74 -10q-40 0 -76 12q-45 -15 -88 -15q-67 0 -108.5 26t-41.5 70q0 81 125 129l5 -11q-36 -21 -57.5 -53t-21.5 -68
q0 -42 30.5 -61.5t70.5 -19.5q30 0 63 11q-60 27 -60 78zM158 240h103l99 157q40 62 85 107l9 13q11 22 11 41q0 23 -23 23q-14 0 -29 -6t-27.5 -13.5t-27.5 -23.5t-24.5 -27t-24 -32t-21 -31t-21 -33t-17.5 -28zM274 -77q-71 -112 -151 -185q47 -19 112 -19
q64 0 107.5 22.5t43.5 72.5q0 80 -112 110v-1zM-162 -388q51 0 107 30t105 78.5t88.5 97t70.5 98.5l11 18h-5q-67 -9 -94 -15q-72 -113 -158.5 -190t-173.5 -108q24 -9 49 -9zM147 222l-178 -288q32 6 112 17l169 271h-103zM-262 -322q6 -29 30 -47q76 31 151 108.5
t132 164.5q-68 -16 -127 -37q-85 -119 -186 -189zM395 211q4 6 2 8.5t-12 2.5h-77l-162 -264q21 2 60 2q20 0 30 -1zM-313 -302q0 104 178 171q18 25 22 32q-299 -68 -299 -206q0 -39 30 -61q37 19 71 45q-2 12 -2 19zM-311 -386q22 0 50 7q-26 14 -38 33q-36 -21 -62 -31
q24 -9 50 -9zM-57 -105q53 15 120 28l6 8q-57 -6 -112 -16q-1 -2 -6 -9t-8 -11zM-168 -176q-75 -44 -90 -101q43 41 90 101zM132 -64l-1 -1q1 0 4.5 0.5t5.5 0.5h-9z" />
    <glyph glyph-name="f_j" unicode="fj" horiz-adv-x="302" 
d="M-482 -389q28 0 61 10q-53 27 -53 77q0 150 367 223l189 301h-69l10 18h70l99 157q49 78 121.5 140.5t137.5 62.5q45 0 57 -34l-51 -52h-12q13 24 13 44q0 23 -23 23q-14 0 -29 -6t-27.5 -13.5t-27.5 -23.5t-24.5 -27t-24 -32t-21 -31t-21 -33t-17.5 -28l-92 -147h121
q19 0 33 11l11 -4l-203 -324q-94 -151 -213 -237t-225 -86q-40 0 -75 12q-47 -13 -84 -13q-67 0 -108.5 26t-41.5 70q0 81 125 129l5 -11q-36 -21 -57.5 -53t-21.5 -68q0 -42 30.5 -61.5t70.5 -19.5zM-424 -307q0 -39 30 -61q75 34 148 110.5t127 159.5q-305 -72 -305 -209z
M-323 -388q51 0 107 30t105 78.5t88.5 97t70.5 98.5l12 19q-52 -6 -109 -18q-70 -110 -154.5 -186.5t-169.5 -109.5q24 -9 50 -9zM234 211q5 10 -5 11h-89l-179 -288q66 10 107 14z" />
    <glyph glyph-name="di" unicode="di" horiz-adv-x="495" 
d="M726 630q-51 0 -107 -30t-105 -78.5t-88.5 -97t-70.5 -98.5l-171 -273q-16 -33 7 -30q17 3 46 22l7 -8q-59 -47 -98 -47q-24 0 -32 18t5 38q-60 -56 -118 -56q-19 0 -30 13t-11 33q0 67 80 135.5t152 68.5q26 0 41 -12l57 91q94 151 213 237t225 86q67 0 108.5 -26
t41.5 -70q0 -81 -125 -129l-5 11q36 21 57.5 53t21.5 68q0 42 -30.5 61.5t-70.5 19.5zM48 25q28 0 63.5 32t68.5 85q29 48 29 61q0 24 -23 24q-48 0 -104.5 -61t-56.5 -111q0 -30 23 -30zM305 -10q-24 0 -31.5 18.5t5.5 38.5l103 164q36 5 71 40l11 -4l-113 -181
q-27 -45 -3 -43q17 1 48 22l7 -8q-59 -47 -98 -47zM420 264q-2 6 -2 10q0 18 22.5 36.5t37.5 18.5q12 0 12 -14q0 -18 -21.5 -37.5t-37.5 -19.5q-8 0 -11 6z" />
    <glyph glyph-name=".notdef" horiz-adv-x="202" 
 />
    <glyph glyph-name=".null" horiz-adv-x="0" 
 />
    <glyph glyph-name="nonmarkingreturn" horiz-adv-x="333" 
 />
    <glyph glyph-name="space" unicode=" " horiz-adv-x="130" 
 />
    <glyph glyph-name="exclam" unicode="!" horiz-adv-x="335" 
d="M123 90l153 297q47 89 90 107q27 11 30 -15q4 -42 -60 -126l-203 -269zM109 60q13 0 13 -16q0 -19 -19 -36.5t-38 -17.5q-13 0 -13 16q0 19 19 36.5t38 17.5z" />
    <glyph glyph-name="quotedbl" unicode="&#x22;" horiz-adv-x="275" 
d="M129 454l-16 -112h-12l-15 112q-1 4 -1 16q0 36 23 36q22 0 22 -36q0 -3 -0.5 -8.5t-0.5 -7.5zM193 454l-16 -112h-12l-15 112q-1 4 -1 16q0 36 23 36q22 0 22 -36q0 -3 -0.5 -8.5t-0.5 -7.5z" />
    <glyph glyph-name="numbersign" unicode="#" horiz-adv-x="619" 
d="M146 233v18h58l50 122h20l-51 -122h99l50 122h20l-51 -122h55v-18h-62l-37 -91h53v-18h-61l-50 -124h-20l51 124h-99l-50 -124h-20l51 124h-52v18h59l37 91h-50zM216 233l-37 -91h98l37 91h-98z" />
    <glyph glyph-name="dollar" unicode="$" horiz-adv-x="412" 
d="M497 573l-52 -80q30 -9 46.5 -28t16.5 -42q0 -25 -22.5 -47t-66.5 -35l-5 11q20 13 32 34.5t12 42.5q0 32 -24 47l-112 -171q7 -75 7 -100q0 -98 -50.5 -156.5t-152.5 -58.5h-10l-46 -70h-26l47 73q-55 7 -85.5 35t-30.5 64q0 43 28.5 71.5t78.5 28.5q57 0 77 -43l-11 -6
q-18 28 -50 28q-30 0 -51.5 -23t-21.5 -57q0 -31 19.5 -54.5t55.5 -30.5l158 241q-7 77 -7 99q0 74 29.5 114t115.5 40q10 0 26 -2l49 75h26zM262 172q0 13 -2 39l-135 -207h1q43 0 71.5 13t42 38.5t18 52t4.5 64.5zM317 378q0 -26 1 -39l95 145q-10 2 -16 2
q-45 0 -62.5 -28.5t-17.5 -79.5z" />
    <glyph glyph-name="percent" unicode="%" horiz-adv-x="789" 
d="M124 -10h-45l591 510h44zM348 54q-3 68 73 129.5t149 61.5q69 0 71 -63q2 -68 -72.5 -130t-148.5 -62q-70 0 -72 64zM563 233q-48 0 -105.5 -76t-55.5 -127q2 -28 24 -28q39 0 100 75t60 129q-2 27 -23 27zM129 319q-3 68 73 129.5t149 61.5q69 0 71 -63
q2 -68 -72.5 -130t-148.5 -62q-70 0 -72 64zM344 498q-48 0 -105.5 -76t-55.5 -127q2 -28 24 -28q39 0 100 75t60 129q-2 27 -23 27z" />
    <glyph glyph-name="ampersand" unicode="&#x26;" horiz-adv-x="421" 
d="M145 -10q-61 0 -98 26t-37 65q0 80 110 131q-2 12 -2 20q0 56 39 102t92 46q35 0 52 -12.5t17 -31.5q0 -26 -21.5 -47t-41 -30.5t-64.5 -27.5q-8 -3 -12 -5q7 -56 31 -104.5t62 -75.5q33 35 33 76q0 28 -29 28q-21 0 -44 -12l-3 5q28 21 60 21q23 0 38 -12t15 -33
q0 -47 -53 -85q27 -21 66 -32l-4 -12q-43 4 -92 25q-57 -25 -114 -25zM241 24q-92 45 -117 163q-19 -18 -26.5 -27.5t-15 -29t-7.5 -46.5q0 -34 16 -58t55 -24q58 0 95 22zM178 237q49 23 73 42.5t24 45.5q0 43 -28 43q-30 0 -50 -41t-20 -78q0 -9 1 -12z" />
    <glyph glyph-name="quotesingle" unicode="'" horiz-adv-x="146" 
d="M193 454l-16 -112h-12l-15 112q-1 4 -1 16q0 36 23 36q22 0 22 -36q0 -3 -0.5 -8.5t-0.5 -7.5z" />
    <glyph glyph-name="parenleft" unicode="(" horiz-adv-x="313" 
d="M626 593l7 -8q-133 -108 -218.5 -187t-141.5 -157q-110 -151 -154 -349l-10 -4q-18 178 111 353q130 177 406 352z" />
    <glyph glyph-name="parenright" unicode=")" horiz-adv-x="324" 
d="M-105 -112l-4 4q253 205 357 348q110 151 154 349l10 4q18 -178 -111 -353q-130 -177 -406 -352z" />
    <glyph glyph-name="asterisk" unicode="*" horiz-adv-x="372" 
d="M230 419l1 -1v1q-12 89 -12 99q0 30 19 30t19 -30q0 -4 -13 -98q72 55 79 59q26 15 35 -2q9 -16 -16 -31q-10 -5 -93 -38h1q83 -33 92 -39q25 -15 15 -31q-9 -16 -34 -2q-15 10 -79 61q12 -93 12 -97q0 -30 -20 -30q-18 0 -18 30q0 3 13 97h-1q-74 -57 -78 -59
q-26 -15 -36 3q-9 15 17 30q7 4 91 37h1l-1 1l-90 37q-27 16 -16 33q9 15 35 0q6 -2 77 -60z" />
    <glyph glyph-name="plus" unicode="+" horiz-adv-x="324" 
d="M151 130v110h20v-110h110v-20h-110v-110h-20v110h-110v20h110z" />
    <glyph glyph-name="comma" unicode="," horiz-adv-x="71" 
d="M-35 50q13 0 29 -3.5t17 -7.5q-5 -22 -41 -58t-64 -45l-6 9q18 15 38.5 46.5t26.5 58.5z" />
    <glyph glyph-name="hyphen" unicode="-" horiz-adv-x="219" 
d="M19 140h170l-19 -30h-170z" />
    <glyph glyph-name="period" unicode="." horiz-adv-x="80" 
d="M7 60q13 0 13 -16q0 -19 -19 -36.5t-38 -17.5q-13 0 -13 16q0 19 19 36.5t38 17.5z" />
    <glyph glyph-name="slash" unicode="/" horiz-adv-x="382" 
d="M463 591l-401 -601h-35l402 601h34z" />
    <glyph glyph-name="zero" unicode="0" horiz-adv-x="553" 
d="M101 246q46 105 144.5 180t191.5 75t126.5 -74.5t-11.5 -180.5q-48 -106 -147 -180.5t-191 -74.5q-93 0 -126.5 74.5t13.5 180.5zM169 246q-46 -100 -31 -171.5t80 -71.5t142.5 71t123.5 172q44 100 29 171.5t-80 71.5t-143 -71.5t-121 -171.5z" />
    <glyph glyph-name="one" unicode="1" horiz-adv-x="384" 
d="M113 -10q-13 0 -13 32q0 28 25 65l180 287q8 13 6.5 14.5t-17.5 -5.5l-99 -47l-6 10l234 156l11 -6l-309 -497q-6 -9 -12 -9z" />
    <glyph glyph-name="two" unicode="2" horiz-adv-x="546" 
d="M478 93q-43 -64 -83 -84t-94 -20q-32 0 -93.5 19t-95.5 19q-50 0 -104 -34l-8 9q31 28 87 55t112.5 47t117 47.5t107 56t76.5 74t30 101.5q0 51 -27 77.5t-68 26.5q-56 0 -102.5 -41.5t-46.5 -104.5q0 -65 54 -65q36 0 69 31l9 -9q-47 -45 -100 -45q-41 0 -63 29.5
t-22 61.5q0 66 65 111t144 45q65 0 109.5 -35t44.5 -98q0 -70 -112 -142t-341 -157q18 2 26 2q33 0 88.5 -18.5t83.5 -18.5q74 0 127 66z" />
    <glyph glyph-name="three" unicode="3" horiz-adv-x="484" 
d="M217 390q1 50 57.5 80.5t127.5 30.5q55 0 93.5 -24.5t37.5 -70.5q-2 -62 -58.5 -112t-149.5 -50q37 -5 57 -29t19 -57q-2 -76 -77 -121.5t-161 -45.5q-61 0 -92.5 27.5t-29.5 65.5q1 34 27.5 59t71.5 25q26 0 52 -17l-5 -10q-14 6 -28 6q-27 0 -48 -19.5t-22 -50.5
q-1 -30 19 -52t57 -22q65 0 117 52t54 107q2 73 -58 77l1 12q31 0 56 6q65 15 98.5 60t35.5 96q1 38 -21.5 57t-61.5 19q-45 0 -82 -26.5t-38 -67.5q-1 -16 6.5 -27t19.5 -11q29 0 53 17l6 -8q-34 -31 -73 -31q-63 0 -61 55z" />
    <glyph glyph-name="four" unicode="4" horiz-adv-x="479" 
d="M230 -10q-8 0 -13 11t-5 21q0 28 25 65l63 99h-274v12l368 302h73l-388 -296h232l128 210l66 8l-135 -218h125l-9 -18h-128l-116 -187q-6 -9 -12 -9z" />
    <glyph glyph-name="five" unicode="5" horiz-adv-x="498" 
d="M165 272l146 234q74 -32 139 -32q58 0 89 30l9 -7q-71 -68 -132 -68q-44 0 -112 28l-103 -163q25 9 59 9q70 0 126 -34.5t56 -101.5q0 -62 -68.5 -119.5t-160.5 -57.5q-79 0 -121 33t-42 80q0 50 43.5 81.5t94.5 31.5q50 0 69 -39l-10 -7q-19 26 -51 26
q-37 0 -66.5 -29.5t-29.5 -68.5q0 -40 26 -68t80 -28q74 0 122.5 54t48.5 114q0 52 -38.5 85.5t-89.5 33.5q-41 0 -75 -25z" />
    <glyph glyph-name="six" unicode="6" horiz-adv-x="492" 
d="M427 162q-10 -74 -86.5 -123t-160.5 -49q-36 0 -63 10.5t-39.5 26t-20 35t-6.5 37t1 30.5q10 81 129 179t342 186l15 6l4 -11l-19 -8q-193 -77 -295 -176.5t-112 -183.5q-17 -119 78 -119q59 0 108.5 41.5t59.5 122.5q6 40 -11 61.5t-48 21.5q-40 0 -88 -40l-7 9
q66 55 129 55q50 0 72.5 -36t17.5 -75z" />
    <glyph glyph-name="seven" unicode="7" horiz-adv-x="445" 
d="M120 390l-10 6q51 65 88 84.5t89 19.5q32 0 93.5 -19.5t95.5 -19.5q50 0 104 34l8 -9q-44 -40 -141 -92q-139 -74 -214 -163.5t-84 -218.5l-66 -26q-1 7 -1 21q0 31 11.5 69t40.5 86t71.5 92.5t112 89.5t154.5 76q-18 -2 -23 -2q-33 0 -103.5 19t-98.5 19q-74 0 -127 -66
z" />
    <glyph glyph-name="eight" unicode="8" horiz-adv-x="481" 
d="M285 286q-1 4 -9.5 25t-11 29t-6 24t-3.5 29q0 53 39 80t93 27q49 0 96.5 -27.5t47.5 -76.5q0 -46 -48 -79.5t-131 -33.5q4 -13 15 -38t18 -48t7 -45q0 -75 -50.5 -119t-147.5 -44q-53 0 -98.5 30.5t-45.5 86.5q0 64 65.5 119t169.5 61zM471 409q0 33 -21.5 54.5
t-55.5 21.5q-31 0 -52.5 -21t-21.5 -56q0 -14 3 -29t6 -25t9.5 -29.5l9.5 -28.5q57 0 90 34.5t33 78.5zM290 274q-78 -4 -126.5 -59t-48.5 -117q0 -47 26 -71t58 -24q57 0 92.5 37.5t35.5 92.5q0 13 -4 32.5t-8.5 34t-13 40z" />
    <glyph glyph-name="nine" unicode="9" horiz-adv-x="492" 
d="M165 328q10 74 86.5 123t160.5 49q36 0 63 -10.5t39.5 -26t20 -35t6.5 -37t-1 -30.5q-10 -81 -129 -179t-342 -186l-15 -6l-4 11l19 8q193 77 295 176.5t112 183.5q17 119 -78 119q-59 0 -108.5 -41.5t-59.5 -122.5q-6 -40 11 -61.5t48 -21.5q40 0 88 40l7 -9
q-66 -55 -129 -55q-50 0 -72.5 36t-17.5 75z" />
    <glyph glyph-name="colon" unicode=":" horiz-adv-x="141" 
d="M7 60q13 0 13 -16q0 -19 -19 -36.5t-38 -17.5q-13 0 -13 16q0 19 19 36.5t38 17.5zM98 240q13 0 13 -16q0 -19 -19 -36.5t-38 -17.5q-13 0 -13 16q0 19 19 36.5t38 17.5z" />
    <glyph glyph-name="semicolon" unicode=";" horiz-adv-x="134" 
d="M-35 50q13 0 29 -3.5t17 -7.5q-5 -22 -41 -58t-64 -45l-6 9q18 15 38.5 46.5t26.5 58.5zM91 240q13 0 13 -16q0 -19 -19 -36.5t-38 -17.5q-13 0 -13 16q0 19 19 36.5t38 17.5z" />
    <glyph glyph-name="less" unicode="&#x3c;" horiz-adv-x="417" 
d="M379 18v-22l-236 109v25l236 110v-23l-213 -99z" />
    <glyph glyph-name="equal" unicode="=" horiz-adv-x="404" 
d="M373 162h-222v20h222v-20zM373 58h-222v20h222v-20z" />
    <glyph glyph-name="greater" unicode="&#x3e;" horiz-adv-x="418" 
d="M173 218v22l236 -109v-25l-236 -110v23l213 99z" />
    <glyph glyph-name="question" unicode="?" horiz-adv-x="281" 
d="M306 294q0 -17 -8.5 -33t-19 -26t-31 -22t-32.5 -17.5t-37 -15.5t-31 -13q-27 -12 -41.5 -20t-33 -24.5t-31.5 -38.5l-11 5q21 36 60 60.5t71 36t56 38.5t24 71q0 26 -20.5 50.5t-53.5 24.5q-45 0 -79 -27t-34 -79q0 -25 13 -38.5t33 -13.5q29 0 53 24l4 -5
q-36 -34 -77 -34q-35 0 -55.5 19t-20.5 51q0 51 42.5 83t120.5 32q58 0 98.5 -20t40.5 -68zM-27 -10q-13 0 -13 16q0 18 22.5 36.5t37.5 18.5q12 0 12 -14q0 -18 -21.5 -37.5t-37.5 -19.5z" />
    <glyph glyph-name="at" unicode="@" horiz-adv-x="658" 
d="M567 378l-88 -141l-34 -55l-2 -2l-1 -2q-9 -11 -9 -20q0 -10 18 -10q81 0 147 75t66 148q0 51 -38.5 83t-109.5 32q-85 0 -182.5 -54.5t-164.5 -139t-67 -163.5q0 -57 40 -91t110 -34q54 0 134 39l7 -14q-90 -40 -151 -40q-76 0 -119 37.5t-43 97.5q0 70 45.5 140.5
t112.5 121.5t145.5 83t143.5 32q78 0 118 -40.5t40 -93.5q0 -93 -86.5 -169t-187.5 -76q-19 0 -29 9t-10 22q0 10 6 19l4 6l2 4q-60 -60 -122 -60q-19 0 -30 13t-11 33q0 67 80 135.5t152 68.5q37 0 52 -24q27 10 51 34zM309 162q42 0 96.5 61.5t54.5 106.5q0 24 -23 24
q-47 0 -99 -58t-52 -109q0 -25 23 -25z" />
    <glyph glyph-name="A" unicode="A" horiz-adv-x="914" 
d="M274 311q0 169 364 172q76 0 104 1q27 1 89.5 6.5t121.5 9.5l6 -9q-90 -57 -172 -170t-82 -211q0 -42 19 -69t59 -27q33 0 55 21l9 -7q-26 -38 -85 -38q-54 0 -88 32.5t-34 76.5q0 75 44 153h-106q-82 -91 -121 -124q-71 -61 -166.5 -99.5t-176.5 -38.5q-58 0 -98.5 22.5
t-40.5 71.5q0 42 28.5 71t78.5 29q57 0 77 -43l-10 -5q-17 27 -51 27q-30 0 -51.5 -23t-21.5 -57q0 -79 96 -79q173 0 366 218q5 6 24 27.5t25 28.5t23.5 26.5t26 27.5t25 25t27 25.5t26 22t28.5 22.5t28.5 18.5t30.5 17.5q-27 -5 -148 -5q-47 0 -73 -1t-64 -5t-59 -13
t-42.5 -24.5t-31 -41t-9.5 -60.5q0 -33 19.5 -57t50.5 -24q43 0 76 32l8 -9q-44 -43 -103 -43q-49 0 -75 29.5t-26 69.5zM911 480q-47 -1 -89.5 -17.5t-84.5 -51t-70 -63t-73 -78.5h101q39 62 96 118.5t120 91.5z" />
    <glyph glyph-name="B" unicode="B" horiz-adv-x="762" 
d="M706 488q-35 -1 -63 -17q88 -38 88 -108q0 -47 -41.5 -78.5t-109.5 -45.5q42 -11 70.5 -39.5t28.5 -68.5q0 -71 -57 -106t-136 -35q-103 0 -103 61q0 18 22.5 39.5t55.5 23.5l2 -10q-38 -17 -38 -53q0 -47 60 -47q54 0 86.5 36t32.5 87q0 46 -23.5 74.5t-69.5 29.5v12h9
q56 3 96 34t40 89q0 54 -42 85q-34 -29 -67.5 -86.5t-70.5 -125.5t-74 -111q-54 -62 -130.5 -100t-157.5 -38q-58 0 -98.5 22.5t-40.5 71.5q0 42 28.5 71t78.5 29q57 0 77 -43l-10 -5q-17 27 -51 27q-30 0 -51.5 -23t-21.5 -57q0 -79 96 -79q55 0 100 20t77 53.5t58.5 75
t51 88t48.5 88.5t56 80t68 60q-45 17 -105 17q-58 0 -111 -16.5t-92.5 -57.5t-39.5 -99q0 -27 19.5 -51.5t51.5 -24.5q42 0 68 25l8 -9q-42 -42 -98 -42q-48 0 -73.5 28.5t-25.5 67.5q0 60 49 105.5t114.5 66.5t129.5 21q73 0 133 -18q43 18 90 18h8v-12z" />
    <glyph glyph-name="C" unicode="C" horiz-adv-x="495" 
d="M524 447q0 -68 -113 -84l-4 11q22 5 44 26t22 45q0 18 -13.5 29.5t-39.5 11.5q-48 0 -111.5 -33t-119.5 -83.5t-95 -117.5t-39 -128q0 -111 121 -111q57 0 122.5 24.5t109.5 57.5l9 -11q-45 -41 -120.5 -67.5t-146.5 -26.5q-74 0 -122 32.5t-48 100.5q0 67 44.5 136.5
t110.5 121.5t144.5 85.5t145.5 33.5q41 0 70 -13t29 -40z" />
    <glyph glyph-name="D" unicode="D" horiz-adv-x="801" 
d="M706 488q-36 -1 -69 -21q68 -32 103.5 -88.5t35.5 -121.5q0 -104 -79 -185.5t-201 -81.5q-52 0 -79 15t-27 37q0 58 71 71l3 -11q-34 -22 -34 -51q0 -21 17.5 -34t47.5 -13q79 0 148.5 99t69.5 205t-91 149q-36 -28 -70.5 -85.5t-73.5 -128.5t-76 -115
q-54 -62 -130.5 -100t-157.5 -38q-58 0 -98.5 22.5t-40.5 71.5q0 42 28.5 71t78.5 29q57 0 77 -43l-10 -5q-17 27 -51 27q-30 0 -51.5 -23t-21.5 -57q0 -79 96 -79q75 0 132.5 38t95 97t69.5 121.5t74.5 122.5t92.5 88q-47 14 -110 14q-20 0 -43.5 -2t-63 -13t-69.5 -29
t-53 -55t-23 -86q0 -34 18 -52t45 -18q41 0 74 31l7 -8q-47 -45 -100 -45q-52 0 -73 29.5t-21 65.5q0 55 35 96t87 61.5t98.5 30t81.5 9.5q72 0 129 -20q45 20 94 20h8v-12z" />
    <glyph glyph-name="E" unicode="E" horiz-adv-x="474" 
d="M391 486q-92 0 -153.5 -55.5t-61.5 -111.5q0 -24 14.5 -46.5t39.5 -22.5v-12q-69 -5 -127 -44t-58 -105q0 -43 31.5 -63.5t82.5 -20.5q77 0 147 42t70 103q0 30 -18 47.5t-45 17.5q-30 0 -56 -20l-8 10q35 30 88 30q36 0 62.5 -23t26.5 -59q0 -46 -47 -84.5t-114 -58.5
t-134 -20q-70 0 -115.5 23.5t-45.5 70.5q0 31 15.5 57.5t39 44t54 31.5t56.5 21.5t51 11.5q-33 4 -59 22.5t-26 43.5q0 45 33 82t81 58t95 32.5t82 11.5q44 0 73 -13t29 -40q0 -68 -112 -84l-5 11q22 5 44.5 26t22.5 45q0 18 -13.5 29.5t-39.5 11.5z" />
    <glyph glyph-name="F" unicode="F" horiz-adv-x="691" 
d="M576 258q-25 0 -83 20q-54 -100 -96 -150q-54 -62 -130.5 -100t-157.5 -38q-58 0 -98.5 22.5t-40.5 71.5q0 42 28.5 71t78.5 29q57 0 77 -43l-10 -5q-17 27 -51 27q-30 0 -51.5 -23t-21.5 -57q0 -79 96 -79q74 0 130.5 36.5t94 94.5t68.5 119t73 121.5t89 90.5
q-60 0 -93 -1.5t-79.5 -5.5t-71.5 -13.5t-50.5 -25.5t-36.5 -42t-11 -61q0 -33 19.5 -57t50.5 -24q43 0 76 32l8 -9q-44 -43 -103 -43q-49 0 -75 29.5t-26 69.5q0 41 23 73.5t64 51.5t85 32t98.5 18.5t91.5 7.5t77 2h170q21 0 21 -7q0 -9 -9.5 -18t-18.5 -9h-152
q-54 -33 -116 -151q11 -3 32 -10.5t38 -11.5t32 -4q27 0 50 15l9 -9q-47 -37 -98 -37z" />
    <glyph glyph-name="G" unicode="G" horiz-adv-x="525" 
d="M524 447q0 -68 -113 -84l-4 11q22 5 44 26t22 45q0 18 -13.5 29.5t-39.5 11.5q-48 0 -111.5 -33t-119.5 -83.5t-95 -117.5t-39 -128q0 -111 121 -111q41 0 96 15q46 86 75 123q-33 11 -53 11q-32 0 -60 -23l-9 9q59 47 98 47q25 0 72.5 -16t70.5 -16q27 0 50 15l9 -9
q-47 -37 -98 -37q-15 0 -28 3q-8 -13 -61 -107.5t-93 -141.5q-53 -63 -129.5 -101t-157.5 -38q-58 0 -98.5 22.5t-40.5 71.5q0 42 28.5 71t78.5 29q57 0 77 -43l-10 -5q-17 27 -51 27q-30 0 -51.5 -23t-21.5 -57q0 -79 96 -79q57 0 102 19t81.5 59.5t57.5 73.5t53 92
q-60 -15 -109 -15q-74 0 -122 32.5t-48 100.5q0 67 44.5 136.5t110.5 121.5t144.5 85.5t145.5 33.5q41 0 70 -13t29 -40z" />
    <glyph glyph-name="H" unicode="H" horiz-adv-x="803" 
d="M706 488q-28 -1 -53 -13.5t-42 -26.5t-39 -45.5t-32.5 -50t-33.5 -60.5q-8 -15 -12 -22h134q122 230 308 230q52 0 84 -22t32 -56q0 -29 -25 -51.5t-65 -22.5q-51 0 -87 35l8 9q25 -24 63 -24q26 0 41 17.5t15 40.5q0 25 -18 42.5t-52 17.5q-72 0 -141 -70t-107 -157
t-38 -149q0 -99 55 -99q34 0 66 23l7 -8q-44 -36 -95 -36q-50 0 -74 34t-24 87q0 65 37 139h-135q-42 -76 -81 -122q-54 -62 -130.5 -100t-157.5 -38q-58 0 -98.5 22.5t-40.5 71.5q0 42 28.5 71t78.5 29q57 0 77 -43l-10 -5q-17 27 -51 27q-30 0 -51.5 -23t-21.5 -57
q0 -79 96 -79q74 0 130 36t93.5 93.5t68.5 118t72 121t87 90.5q-17 -1 -69 -1q-41 0 -63 -0.5t-57 -3t-54 -8t-42.5 -16t-35.5 -25.5t-20.5 -38.5t-8.5 -53.5q0 -33 19.5 -57t50.5 -24q43 0 76 32l8 -9q-44 -43 -103 -43q-49 0 -75 29.5t-26 69.5q0 172 381 172q55 0 80 4
q30 9 65 9h8v-12z" />
    <glyph glyph-name="I" unicode="I" horiz-adv-x="506" 
d="M173 315q0 172 381 172h5q53 0 73 4q36 9 66 9h8v-12q-52 -2 -94.5 -40.5t-68 -87.5t-65.5 -119t-76 -113q-54 -62 -130.5 -100t-157.5 -38q-58 0 -98.5 22.5t-40.5 71.5q0 42 28.5 71t78.5 29q57 0 77 -43l-10 -5q-17 27 -51 27q-30 0 -51.5 -23t-21.5 -57q0 -79 96 -79
q74 0 130 36t93.5 93.5t68.5 118t72 121t87 90.5q-17 -1 -63 -1h-5q-41 0 -63 -0.5t-57 -3t-54 -8t-42.5 -16t-35.5 -25.5t-20.5 -38.5t-8.5 -53.5q0 -33 19.5 -57t50.5 -24q43 0 76 32l8 -9q-44 -43 -103 -43q-49 0 -75 29.5t-26 69.5z" />
    <glyph glyph-name="J" unicode="J" horiz-adv-x="524" 
d="M180 311q0 172 381 172h15q51 0 77 5q39 12 71 12v-14q-54 -2 -101.5 -42t-85.5 -104.5t-71.5 -132.5t-73.5 -143t-77 -118q-133 -158 -297 -158q-61 0 -101.5 31t-40.5 76q0 28 26.5 58t77.5 43l4 -8q-59 -37 -59 -93q0 -44 29 -67t73 -23q49 0 91 18t75 52.5t56 67.5
t48 79q12 21 44.5 85.5t54.5 103.5t56 92.5t70 92.5t75 64q-18 -2 -71 -2h-15q-41 0 -63 -0.5t-57 -3t-54 -8t-42.5 -16t-35.5 -25.5t-20.5 -38.5t-8.5 -53.5q0 -33 19.5 -57t50.5 -24q43 0 76 32l8 -9q-44 -43 -103 -43q-49 0 -75 29.5t-26 69.5z" />
    <glyph glyph-name="K" unicode="K" horiz-adv-x="944" 
d="M706 488q-27 -1 -52 -13t-41 -24.5t-38 -43.5t-31.5 -47t-33 -59t-31.5 -58q113 3 164 69q13 17 33 49.5t35.5 52.5t42 42t68 33t98.5 11q51 0 75 -26t24 -63q0 -31 -22 -52t-62 -21q-55 0 -94 38l7 9q29 -27 61 -27q27 0 42 16.5t15 39.5q0 29 -16.5 50t-53.5 21
q-48 0 -80.5 -24.5t-50.5 -59.5t-37.5 -70.5t-56.5 -62t-92 -28.5q37 -7 57.5 -34t28 -60t14.5 -65.5t26 -54.5t54 -22q29 0 48 18.5t19 47.5q0 40 -39 40q-15 0 -28 -11l-9 7q17 23 53 23q33 0 53 -17.5t20 -42.5q0 -31 -31 -55t-86 -24q-48 0 -79.5 13.5t-45.5 34.5
t-22 46.5t-15 51.5t-18.5 47t-38 34.5t-68.5 13.5q-35 -62 -70 -103q-54 -62 -130.5 -100t-157.5 -38q-58 0 -98.5 22.5t-40.5 71.5q0 42 28.5 71t78.5 29q57 0 77 -43l-10 -5q-17 27 -51 27q-30 0 -51.5 -23t-21.5 -57q0 -79 96 -79q73 0 129 35.5t93 92t68 116t71 120.5
t85 92q-18 -2 -71 -2h-5q-41 0 -63 -0.5t-57 -3t-54 -8t-42.5 -16t-35.5 -25.5t-20.5 -38.5t-8.5 -53.5q0 -33 19.5 -57t50.5 -24q43 0 76 32l8 -9q-44 -43 -103 -43q-49 0 -75 29.5t-26 69.5q0 172 381 172h5q49 0 74 4q37 13 78 13h8v-12z" />
    <glyph glyph-name="L" unicode="L" horiz-adv-x="567" 
d="M17 311q0 172 381 172h5q51 0 78 5q35 10 58 12h8v-12q-52 -2 -94.5 -40.5t-68 -87.5t-65.5 -119t-76 -113q-56 -66 -127 -99q52 0 94 -13.5t64.5 -30t51 -30t55.5 -13.5q28 0 47.5 23t19.5 53q0 40 -39 40q-15 0 -28 -11l-9 7q17 23 53 23q33 0 53 -17.5t20 -42.5
q0 -89 -121 -89q-76 0 -154.5 34.5t-159.5 34.5q-13 0 -88 -7v12q66 6 118.5 44.5t89 94t68.5 114t75.5 116.5t93.5 89q-18 -2 -67 -2h-5q-41 0 -63 -0.5t-57 -3t-54 -8t-42.5 -16t-35.5 -25.5t-20.5 -38.5t-8.5 -53.5q0 -33 19.5 -57t50.5 -24q43 0 76 32l8 -9
q-44 -43 -103 -43q-49 0 -75 29.5t-26 69.5z" />
    <glyph glyph-name="M" unicode="M" horiz-adv-x="947" 
d="M744 500h78v-14q-51 -2 -86 -40t-50.5 -86.5t-40.5 -118.5t-53 -113q-45 -70 -115 -105q93 34 151 104q31 37 66.5 94.5t62.5 101.5t61 87t79 66.5t100 23.5h80v-14q-51 -2 -85.5 -40.5t-50 -87t-41 -118t-53.5 -112.5q-89 -138 -263 -138v14q60 0 104.5 20.5t70.5 55.5
t45 78.5t33.5 91t30 90.5t41.5 80.5t62 56.5q-20 -6 -29 -10q-40 -17 -71.5 -46.5t-54.5 -66t-43 -74t-48 -79.5t-59 -73q-141 -138 -330 -138h-7v14q59 0 103.5 21t70.5 56t45 78t34.5 91t31.5 90.5t42 79.5t61 57q-17 -5 -28 -10q-40 -17 -71.5 -46.5t-54.5 -66t-43 -74
t-48 -79.5t-59 -73q-141 -138 -299 -138q-58 0 -98.5 22.5t-40.5 71.5q0 42 28.5 71t78.5 29q57 0 77 -43l-10 -5q-17 27 -51 27q-30 0 -51.5 -23t-21.5 -57q0 -79 96 -79q73 0 141.5 34t115.5 89q37 43 79 116t80.5 131.5t83.5 88.5q-18 -1 -66 -1h-5q-41 0 -63 -0.5
t-57 -3t-54 -8t-42.5 -16t-35.5 -25.5t-20.5 -38.5t-8.5 -53.5q0 -33 19.5 -57t50.5 -24q43 0 76 32l8 -9q-44 -43 -103 -43q-49 0 -75 29.5t-26 69.5q0 172 381 172h5q50 0 75 4q28 9 64 9z" />
    <glyph glyph-name="N" unicode="N" horiz-adv-x="1061" 
d="M217 311q0 172 381 172h5q47 0 72 4q45 13 98 13v-14q-54 -1 -82 -98q-14 -47 -35 -175q-7 -38 -10 -57q32 65 73 122.5t94.5 109t121 82t138.5 30.5q58 0 98.5 -22.5t40.5 -71.5q0 -42 -28.5 -71t-78.5 -29q-57 0 -77 43l10 5q17 -27 51 -27q30 0 51.5 23t21.5 57
q0 79 -96 79q-33 0 -64.5 -7.5t-58 -19t-55 -35t-50.5 -44t-50.5 -59t-48 -66.5t-51 -80t-51.5 -86.5t-56 -98.5h-14q15 207 36 297q22 102 63 174q-35 -19 -79.5 -82.5t-92.5 -140t-81 -110.5q-62 -64 -140.5 -101t-158.5 -37q-58 0 -98.5 22.5t-40.5 71.5q0 42 28.5 71
t78.5 29q57 0 77 -43l-10 -5q-17 27 -51 27q-30 0 -51.5 -23t-21.5 -57q0 -79 96 -79q39 0 74.5 9t63.5 22.5t57 37.5t48.5 44.5t45 55t41 57t40.5 61.5t39 60q4 6 14 20.5t14 21t12.5 18t15 18.5t15 15t17.5 15q-17 -1 -65 -1h-5q-41 0 -63 -0.5t-57 -3t-54 -8t-42.5 -16
t-35.5 -25.5t-20.5 -38.5t-8.5 -53.5q0 -33 19.5 -57t50.5 -24q43 0 76 32l8 -9q-44 -43 -103 -43q-49 0 -75 29.5t-26 69.5z" />
    <glyph glyph-name="O" unicode="O" horiz-adv-x="516" 
d="M-24 111q-5 74 41.5 149.5t117 129t150 87t141.5 33.5q69 0 110 -33.5t44 -88.5q6 -91 -69.5 -186t-183 -153.5t-197.5 -58.5q-68 0 -109.5 33t-44.5 88zM421 496q-68 0 -158.5 -60.5t-157 -157.5t-61.5 -185q5 -89 92 -89q52 0 119.5 39t125.5 96.5t96.5 131.5t34.5 138
q-5 87 -91 87z" />
    <glyph glyph-name="P" unicode="P" horiz-adv-x="688" 
d="M531 231l-1 12q56 3 96 34t40 89q0 57 -47 89q-45 -36 -111 -157.5t-106 -169.5q-54 -62 -130.5 -100t-157.5 -38q-58 0 -98.5 22.5t-40.5 71.5q0 42 28.5 71t78.5 29q57 0 77 -43l-10 -5q-17 27 -51 27q-30 0 -51.5 -23t-21.5 -57q0 -79 96 -79q64 0 115 27.5t83.5 70
t64.5 96.5t57.5 104.5t63 97.5t79.5 71q-42 15 -99 15q-58 0 -111 -16.5t-92.5 -57.5t-39.5 -99q0 -27 19.5 -51.5t51.5 -24.5q42 0 68 25l8 -9q-42 -42 -98 -42q-48 0 -73.5 28.5t-25.5 67.5q0 60 49 105.5t114.5 66.5t129.5 21q67 0 127 -16q40 16 86 16h8v-12
q-32 -1 -59 -15q94 -36 94 -110q0 -57 -59.5 -91.5t-150.5 -40.5z" />
    <glyph glyph-name="Q" unicode="Q" horiz-adv-x="510" 
d="M-24 111q-5 74 41.5 149.5t117 129t150 87t141.5 33.5q69 0 110 -33.5t44 -88.5q6 -108 -96.5 -217t-233.5 -157q29 -27 76.5 -83t80 -91t85.5 -64.5t110 -29.5t101 25t44 72q0 35 -22 54t-53 19q-45 0 -59 -40l-11 2q6 31 34 48.5t63 17.5q42 0 68.5 -28.5t26.5 -69.5
q0 -40 -33.5 -67t-75.5 -37t-87 -10q-127 0 -227 70q-35 25 -66.5 57t-69 77.5t-49.5 59.5q-30 -6 -56 -6q-68 0 -109.5 33t-44.5 88zM421 496q-68 0 -158.5 -60.5t-157 -157.5t-61.5 -185v-2q18 3 35 3q79 0 153 -64q108 52 197 165t83 214q-5 87 -91 87zM46 76h-1
q13 -72 91 -72q15 0 38 5q-65 67 -128 67z" />
    <glyph glyph-name="R" unicode="R" horiz-adv-x="953" 
d="M507 244h33q53 6 89.5 36.5t36.5 85.5q0 57 -47 89q-45 -36 -111 -157.5t-106 -169.5q-54 -62 -130.5 -100t-157.5 -38q-58 0 -98.5 22.5t-40.5 71.5q0 42 28.5 71t78.5 29q57 0 77 -43l-10 -5q-17 27 -51 27q-30 0 -51.5 -23t-21.5 -57q0 -79 96 -79q64 0 115 27.5
t83.5 70t64.5 96.5t57.5 104.5t63 97.5t79.5 71q-42 15 -99 15q-58 0 -111 -16.5t-92.5 -57.5t-39.5 -99q0 -27 19.5 -51.5t51.5 -24.5q42 0 68 25l8 -9q-42 -42 -98 -42q-48 0 -73.5 28.5t-25.5 67.5q0 60 49 105.5t114.5 66.5t129.5 21q67 0 127 -16q40 16 86 16h8v-12
q-32 -1 -59 -15q94 -36 94 -110q0 -47 -40 -78.5t-107 -45.5q34 -9 53 -36.5t25.5 -60t14 -64t26.5 -52.5t53 -21q29 0 48 18.5t19 47.5q0 40 -39 40q-15 0 -28 -11l-9 7q17 23 53 23q33 0 53 -17.5t20 -42.5q0 -31 -31 -55t-86 -24q-66 0 -100 24.5t-43 59.5t-15 70
t-29 60.5t-72 26.5v12z" />
    <glyph glyph-name="S" unicode="S" horiz-adv-x="412" 
d="M25 91q0 -37 27 -62t74 -25q43 0 71.5 13t42 38.5t18 52t4.5 64.5q0 30 -5.5 87.5t-5.5 86.5q0 74 29.5 114t115.5 40q52 0 82 -22.5t30 -54.5q0 -25 -22.5 -47t-66.5 -35l-5 11q20 13 32 34.5t12 42.5q0 25 -15.5 41t-45.5 16q-45 0 -62.5 -28.5t-17.5 -79.5
q0 -26 6 -83.5t6 -89.5q0 -98 -50.5 -156.5t-152.5 -58.5q-70 0 -110.5 30t-40.5 72q0 43 28.5 71.5t78.5 28.5q57 0 77 -43l-11 -6q-18 28 -50 28q-30 0 -51.5 -23t-21.5 -57z" />
    <glyph glyph-name="T" unicode="T" horiz-adv-x="784" 
d="M184 320q0 180 439 180h195q6 0 6 -5q0 -10 -10 -20t-18 -10h-162q-40 -25 -76 -83.5t-77 -133.5t-79 -120q-54 -62 -131 -100t-157 -38q-58 0 -98.5 22.5t-40.5 71.5q0 42 28.5 71t78.5 29q57 0 77 -43l-10 -5q-17 27 -51 27q-30 0 -51.5 -23t-21.5 -57q0 -79 96 -79
q75 0 131.5 37t94 95t69 119.5t73.5 121.5t90 89h-129q-104 0 -160 -29.5t-56 -114.5q0 -33 19.5 -57t50.5 -24q43 0 76 32l8 -9q-44 -43 -103 -43q-49 0 -75 29.5t-26 69.5z" />
    <glyph glyph-name="U" unicode="U" horiz-adv-x="666" 
d="M-66 338q0 62 71 112t151 50q51 0 88.5 -23t37.5 -68q0 -39 -27 -82l-115 -184q-32 -47 -17.5 -92.5t68.5 -45.5q87 0 170 121q24 35 58 89.5t56 89t54 75.5t60 64.5t66.5 39.5t80.5 16q54 0 87 -19t33 -58q0 -31 -27 -57t-67 -26q-55 0 -94 38l8 9q25 -24 63 -24
q27 0 45.5 20t18.5 43q0 62 -71 62q-48 0 -110.5 -73t-143.5 -201l-89 -141q-8 -12 -12.5 -22t-5.5 -18.5t3 -13t14 -4.5q17 0 60 26l7 -12q-54 -39 -99 -39q-66 0 -45 56q-54 -56 -130 -56q-52 0 -84.5 20.5t-37.5 62t35 103.5l98 154q30 48 30 87q0 36 -22.5 54t-56.5 18
q-57 0 -108 -43.5t-51 -110.5q0 -65 56 -65q38 0 69 30l7 -8q-47 -45 -100 -45q-41 0 -61.5 29.5t-20.5 61.5z" />
    <glyph glyph-name="V" unicode="V" horiz-adv-x="685" 
d="M172 500q66 0 106.5 -34t40.5 -94q0 -93 -76.5 -190t-193.5 -171q60 5 117.5 34.5t104 73t91.5 94.5t90 101.5t90.5 92.5t100.5 67.5t113 25.5t98.5 -22.5t40.5 -71.5q0 -42 -28.5 -71t-78.5 -29q-57 0 -77 43l10 5q17 -27 51 -27q30 0 51.5 23t21.5 57q0 79 -96 79
q-37 0 -77 -27.5t-80 -71t-84.5 -96.5t-97.5 -106t-111.5 -96.5t-134 -71t-157.5 -27.5l-6 9q91 58 172.5 166t81.5 205q0 47 -20.5 81.5t-62.5 34.5q-41 0 -68 -24t-27 -65q0 -34 21.5 -57t51.5 -23q34 0 51 27l10 -5q-20 -43 -77 -43q-50 0 -78.5 29t-28.5 71
q0 50 44.5 77t100.5 27z" />
    <glyph glyph-name="W" unicode="W" horiz-adv-x="1112" 
d="M424 -10h-78v14q51 2 86 40t50.5 86.5t40.5 118.5t53 113q44 69 115 105q-91 -33 -151 -104q-31 -37 -66.5 -94.5t-62.5 -101.5t-61 -87t-79 -66.5t-100 -23.5h-80v14q51 2 85.5 40.5t50 87t41 118t53.5 112.5q39 61 101 97q-16 -1 -59 -1h-5q-41 0 -63 -0.5t-57 -3
t-54 -8t-42.5 -16t-35.5 -25.5t-20.5 -38.5t-8.5 -53.5q0 -33 19.5 -57t50.5 -24q43 0 76 32l8 -9q-44 -43 -103 -43q-49 0 -75 29.5t-26 69.5q0 172 381 172h5q29 0 85 8.5t86 8.5v-14q-68 0 -116 -28.5t-72.5 -72.5t-46 -99.5t-37 -107t-45.5 -98t-71 -68.5q10 3 30 11
q40 17 71.5 46.5t54.5 66t43 74t48 79.5t59 73q139 135 323 138h14v-14q-58 0 -101 -21t-69 -56t-45.5 -78.5t-35.5 -91t-33 -90t-43.5 -80t-61.5 -56.5q20 6 29 10q40 17 71.5 46.5t54.5 66t43 74t48 79.5t59 73q141 138 299 138q58 0 98.5 -22.5t40.5 -71.5
q0 -42 -28.5 -71t-78.5 -29q-57 0 -77 43l10 5q17 -27 51 -27q30 0 51.5 23t21.5 57q0 79 -96 79q-73 0 -141.5 -34t-115.5 -89q-32 -37 -66 -94t-60 -101.5t-59 -87.5t-78 -66.5t-103 -23.5z" />
    <glyph glyph-name="X" unicode="X" horiz-adv-x="827" 
d="M130 4q73 0 130.5 47t121.5 137q31 44 46 67t32 63t17 72q0 47 -25.5 71.5t-62.5 24.5q-39 0 -72.5 -29.5t-33.5 -66.5q0 -27 15 -42.5t39 -15.5q36 0 69 31l9 -10q-47 -45 -100 -45q-41 0 -61.5 24.5t-20.5 55.5q0 53 47.5 82.5t112.5 29.5q144 0 144 -125
q42 49 98.5 87t117.5 38q57 0 96 -23t39 -73q0 -42 -28.5 -71t-78.5 -29q-57 0 -77 43l12 8q17 -27 51 -27q30 0 50.5 21.5t20.5 55.5q0 81 -85 81q-39 0 -75.5 -19t-72.5 -59t-61 -75.5t-62 -93.5q-3 -5 -14.5 -22.5t-15.5 -24t-12.5 -21t-12 -22.5t-8.5 -19.5t-6.5 -21.5
t-1.5 -19q0 -35 20.5 -54t49.5 -19q28 0 61 21l7 -10q-30 -37 -98 -37q-45 0 -72.5 28t-27.5 78q-38 -42 -97.5 -74t-123.5 -32q-56 0 -100.5 28t-44.5 78q0 42 28.5 71t78.5 29q57 0 77 -43l-12 -8q-17 27 -51 27q-30 0 -50.5 -21.5t-20.5 -55.5q0 -42 27 -66.5t68 -24.5z
" />
    <glyph glyph-name="Y" unicode="Y" horiz-adv-x="502" 
d="M195 330q35 56 35 98q0 60 -75 60q-81 0 -129 -39.5t-48 -108.5q0 -33 19.5 -57t50.5 -24q43 0 76 32l8 -9q-44 -43 -103 -43q-49 0 -75 29.5t-26 69.5q0 52 37.5 90.5t88.5 55t105 16.5q51 0 88.5 -23t37.5 -68q0 -39 -27 -82l-115 -184q-21 -33 -21 -67
q0 -31 18.5 -50.5t53.5 -19.5q88 0 170 120q24 35 58 89.5t56 89t54 75.5t60 64.5t66.5 39.5t80.5 16q59 0 91.5 -20.5t32.5 -52.5q0 -29 -26 -53t-72 -24q-55 0 -94 38l8 9q25 -24 63 -24q40 0 56.5 29t-2 57.5t-61.5 28.5q-48 0 -111.5 -74t-142.5 -200l-183 -291
q-95 -151 -213.5 -237t-224.5 -86q-53 0 -101 23.5t-48 74.5q0 48 40 88t97.5 66t136.5 47t140.5 31t127.5 18l66 104q-56 -62 -135 -62q-58 0 -87 25t-29 67t29 94zM-138 -388q67 0 143.5 52.5t132.5 118t95 133.5l11 19q-50 -7 -97 -16t-105 -23t-105.5 -33t-88.5 -43.5
t-64 -57t-23 -69.5q0 -42 30.5 -61.5t70.5 -19.5z" />
    <glyph glyph-name="Z" unicode="Z" horiz-adv-x="555" 
d="M-25 2l593 423q-18 -2 -36 -2q-33 0 -88.5 19t-83.5 19q-74 0 -127 -66l-10 6q51 65 88 84.5t89 19.5q32 0 93.5 -19.5t95.5 -19.5q50 0 104 34l8 -9l-593 -423q24 4 69 4q39 0 95 -20t84 -20q60 0 117 66l10 -6q-51 -65 -88 -84.5t-89 -19.5q-35 0 -109.5 15.5
t-112.5 15.5q-56 0 -101 -26z" />
    <glyph glyph-name="bracketleft" unicode="[" horiz-adv-x="235" 
d="M275 500h162l-13 -22h-99l-362 -585h95l-12 -20h-162z" />
    <glyph glyph-name="backslash" unicode="\" horiz-adv-x="376" 
d="M467 500l-397 -510h-50l392 510h55z" />
    <glyph glyph-name="bracketright" unicode="]" horiz-adv-x="462" 
d="M46 -127h-162l13 22h99l362 585h-95l12 20h162z" />
    <glyph glyph-name="asciicircum" unicode="^" horiz-adv-x="515" 
d="M423 461l89 -251h-59l-77 215l-169 -215h-59q130 159 185 225q27 27 50 38q22 0 40 -12z" />
    <glyph glyph-name="underscore" unicode="_" horiz-adv-x="470" 
d="M38 -45h378q50 0 54 -4q-1 -6 -15 -16.5t-23 -14.5h-378q-49 0 -54 4q1 6 15 17t23 14z" />
    <glyph glyph-name="grave" unicode="`" horiz-adv-x="171" 
d="M99 405q6 -28 26.5 -60.5t37.5 -47.5l-5 -6q-28 9 -64 45t-41 58q1 4 17 7.5t29 3.5z" />
    <glyph glyph-name="a" unicode="a" horiz-adv-x="320" 
d="M146 -10q-24 0 -32 18t5 38q-60 -56 -118 -56q-19 0 -30 13t-11 33q0 67 80 135.5t152 68.5q37 0 52 -24q28 12 51 35l11 -4l-122 -194q-16 -33 7 -30q17 3 46 22l7 -8q-59 -47 -98 -47zM48 25q28 0 63.5 32t68.5 85q29 48 29 61q0 24 -23 24q-48 0 -104.5 -61
t-56.5 -111q0 -30 23 -30z" />
    <glyph glyph-name="b" unicode="b" horiz-adv-x="317" 
d="M730 544q0 -177 -553 -251l-76 -120q65 67 124 67q22 0 34.5 -12.5t12.5 -33.5q0 -64 -79.5 -134t-152.5 -70q-26 0 -40.5 9.5t-15 27t3 34.5t15.5 42t19.5 38t19.5 32l70 113q-21 -2 -60 -2q-104 0 -163.5 40.5t-59.5 94.5q0 49 50 83.5t141 34.5q81 0 127 -24l-7 -9
q-45 21 -117 21q-64 0 -107.5 -22.5t-43.5 -72.5q0 -64 66.5 -93.5t160.5 -29.5q5 0 14 0.5t13 0.5l7 11q94 151 213 237t225 86q23 0 48 -5t51 -15t43 -30.5t17 -47.5zM569 630q-51 0 -107 -30t-105 -78.5t-88.5 -97t-70.5 -98.5l-9 -13q45 5 88 12t102 19.5t107 31
t91.5 42.5t68 58t24.5 73q0 42 -30.5 61.5t-70.5 19.5zM184 200q-40 0 -96 -60.5t-56 -106.5q0 -24 23 -24q50 0 101 60.5t51 107.5q0 23 -23 23z" />
    <glyph glyph-name="c" unicode="c" horiz-adv-x="279" 
d="M195 68l6 -10q-105 -68 -173 -68t-68 47q0 67 80.5 135t151.5 68q45 0 57 -34l-51 -52l-9 6q10 22 10 38q0 23 -23 23q-48 0 -99.5 -57.5t-51.5 -108.5q0 -30 43 -30q46 0 127 43z" />
    <glyph glyph-name="d" unicode="d" horiz-adv-x="323" 
d="M146 -10q-24 0 -32 18t5 38q-60 -56 -118 -56q-19 0 -30 13t-11 33q0 67 80 135.5t152 68.5q26 0 42 -13l36 59q-21 -2 -60 -2q-104 0 -163.5 40.5t-59.5 94.5q0 49 50 83.5t141 34.5q81 0 127 -24l-7 -9q-46 21 -117 21q-64 0 -107.5 -22.5t-43.5 -72.5
q0 -64 66.5 -93.5t160.5 -29.5q5 0 14 0.5t13 0.5l7 11q94 151 213 237t225 86q23 0 48 -5t51 -15t43 -30.5t17 -47.5q0 -177 -553 -251l-151 -240q-16 -33 7 -30q17 3 46 22l7 -8q-59 -47 -98 -47zM727 630q-51 0 -107 -30t-105 -78.5t-88.5 -97t-70.5 -98.5l-9 -13
q45 5 88 12t102 19.5t107 31t91.5 42.5t68 58t24.5 73q0 42 -30.5 61.5t-70.5 19.5zM48 25q28 0 63.5 32t68.5 85q29 48 29 61q0 24 -23 24q-48 0 -104.5 -61t-56.5 -111q0 -30 23 -30z" />
    <glyph glyph-name="e" unicode="e" horiz-adv-x="291" 
d="M206 68l7 -10q-105 -68 -184 -68q-69 0 -69 47q0 65 74.5 134t147.5 69q59 0 59 -40q0 -86 -210 -111q-6 -18 -6 -34q0 -30 43 -30q57 0 138 43zM39 106q18 1 41.5 7t48 16.5t41 28.5t16.5 40q0 23 -20 23q-36 0 -70.5 -34t-56.5 -81z" />
    <glyph glyph-name="f" unicode="f" horiz-adv-x="195" 
d="M-635 -302q0 177 553 251l171 273h-99l10 18h100l99 157q49 78 121.5 140.5t137.5 62.5q45 0 57 -34l-51 -52h-12q13 24 13 44q0 23 -23 23q-14 0 -29 -6t-27.5 -13.5t-27.5 -23.5t-24.5 -27t-24 -32t-21 -31t-21 -33t-17.5 -28l-92 -147h93l-10 -18h-94l-164 -266
q21 2 60 2q104 0 163.5 -40.5t59.5 -94.5q0 -49 -50 -83.5t-141 -34.5q-81 0 -127 24l7 9q45 -21 117 -21q64 0 107.5 22.5t43.5 72.5q0 64 -66.5 93.5t-160.5 29.5q-4 0 -13.5 -0.5t-13.5 -0.5l-7 -11q-94 -151 -213 -237t-225 -86q-23 0 -48 5t-51 15t-43 30.5t-17 47.5z
M-474 -388q51 0 107 30t105 78.5t88.5 97t70.5 98.5l9 13q-45 -5 -88 -12t-102 -19.5t-107 -31t-91.5 -42.5t-68 -58t-24.5 -73q0 -42 30.5 -61.5t70.5 -19.5z" />
    <glyph glyph-name="g" unicode="g" horiz-adv-x="319" 
d="M307 247l-182 -291q21 2 60 2q104 0 163.5 -40.5t59.5 -94.5q0 -49 -50 -83.5t-141 -34.5q-81 0 -127 24l7 9q45 -21 117 -21q64 0 107.5 22.5t43.5 72.5q0 64 -66.5 93.5t-160.5 29.5q-4 0 -13 -0.5t-14 -0.5l-7 -11q-94 -151 -213 -237t-225 -86q-23 0 -48 5t-51 15
t-43 30.5t-17 47.5q0 177 553 251l60 97q-60 -56 -118 -56q-19 0 -30 13t-11 33q0 67 80 135.5t152 68.5q37 0 52 -24q28 12 51 35zM-332 -388q51 0 107 30t105 78.5t88.5 97t70.5 98.5l9 13q-45 -5 -88 -12t-102 -19.5t-107 -31t-91.5 -42.5t-68 -58t-24.5 -73
q0 -42 30.5 -61.5t70.5 -19.5zM49 25q28 0 63.5 32t68.5 85q29 48 29 61q0 24 -23 24q-48 0 -104.5 -61t-56.5 -111q0 -30 23 -30z" />
    <glyph glyph-name="h" unicode="h" horiz-adv-x="326" 
d="M732 544q0 -177 -553 -251l-70 -112q63 59 120 59q16 0 29 -9t13 -31q0 -27 -22 -61l-45 -73q-27 -45 -3 -43q16 1 48 22l7 -8q-59 -47 -98 -47q-24 0 -31.5 18.5t5.5 38.5l63 101q17 30 17 43q0 16 -17 16q-63 0 -129 -95l-71 -113q-6 -9 -12 -9q-8 0 -13 11t-5 21
q0 28 25 65l124 199q-21 -2 -60 -2q-104 0 -163.5 40.5t-59.5 94.5q0 49 50 83.5t141 34.5q81 0 127 -24l-7 -9q-45 21 -117 21q-64 0 -107.5 -22.5t-43.5 -72.5q0 -64 66.5 -93.5t160.5 -29.5q5 0 14 0.5t13 0.5l7 11q94 151 213 237t225 86q23 0 48 -5t51 -15t43 -30.5
t17 -47.5zM571 630q-51 0 -107 -30t-105 -78.5t-88.5 -97t-70.5 -98.5l-9 -13q45 5 88 12t102 19.5t107 31t91.5 42.5t68 58t24.5 73q0 42 -30.5 61.5t-70.5 19.5z" />
    <glyph glyph-name="i" unicode="i" horiz-adv-x="160" 
d="M-15 -10q-24 0 -31.5 18.5t5.5 38.5l103 164q36 5 71 40l11 -4l-113 -181q-27 -45 -3 -43q16 1 48 22l7 -8q-59 -47 -98 -47zM100 264q-2 6 -2 10q0 18 22.5 36.5t37.5 18.5q12 0 12 -14q0 -18 -21.5 -37.5t-37.5 -19.5q-8 0 -11 6z" />
    <glyph glyph-name="j" unicode="j" horiz-adv-x="141" 
d="M145 247l-182 -291q21 2 60 2q104 0 163.5 -40.5t59.5 -94.5q0 -49 -50 -83.5t-141 -34.5q-81 0 -127 24l7 9q45 -21 117 -21q64 0 107.5 22.5t43.5 72.5q0 64 -66.5 93.5t-160.5 29.5q-4 0 -13 -0.5t-14 -0.5l-7 -11q-94 -151 -213 -237t-225 -86q-23 0 -48 5t-51 15
t-43 30.5t-17 47.5q0 177 553 251l165 262q36 5 71 40zM-494 -388q51 0 107 30t105 78.5t88.5 97t70.5 98.5l9 13q-45 -5 -88 -12t-102 -19.5t-107 -31t-91.5 -42.5t-68 -58t-24.5 -73q0 -42 30.5 -61.5t70.5 -19.5zM97 264q-2 6 -2 10q0 18 22.5 36.5t37.5 18.5
q12 0 12 -14q0 -18 -21.5 -37.5t-37.5 -19.5q-8 0 -11 6z" />
    <glyph glyph-name="k" unicode="k" horiz-adv-x="329" 
d="M158 -10q-16 0 -25 9t-9 22q0 14 8 26l21 34q0 1 0.5 2.5t0.5 2.5q0 15 -18 17q-32 -7 -82 -12l-12 -19l-46 -73q-6 -9 -12 -9q-8 0 -13 11t-5 21q-1 26 25 65l125 199q-21 -2 -60 -2q-104 0 -163.5 40.5t-59.5 94.5q0 49 50 83.5t141 34.5q81 0 127 -24l-7 -9
q-46 21 -117 21q-64 0 -107.5 -22.5t-43.5 -72.5q0 -64 66.5 -93.5t160.5 -29.5q4 0 13 0.5t14 0.5l7 11q94 151 213 237t225 86q23 0 48 -5t51 -15t43 -30.5t17 -47.5q0 -177 -553 -251l-49 -78q36 25 81 25q64 0 64 -40q0 -49 -75 -79q16 -10 16 -26q0 -9 -14 -32.5
t-14 -30.5q0 -10 10 -10q15 0 49 23l7 -8q-59 -47 -98 -47zM573 630q-51 0 -107 -30t-105 -78.5t-88.5 -97t-70.5 -98.5l-9 -13q45 5 88 12t102 19.5t107 31t91.5 42.5t68 58t24.5 73q0 42 -30.5 61.5t-70.5 19.5zM61 106q18 1 43 7t52 16.5t45.5 28.5t18.5 40q0 23 -23 23
q-37 0 -76 -35t-60 -80z" />
    <glyph glyph-name="l" unicode="l" horiz-adv-x="181" 
d="M741 544q0 -177 -553 -251l-148 -238q-20 -33 2 -32q17 1 49 22l7 -8q-59 -47 -98 -47q-24 0 -31.5 18.5t5.5 38.5l149 239q-21 -2 -60 -2q-104 0 -163.5 40.5t-59.5 94.5q0 49 50 83.5t141 34.5q81 0 127 -24l-7 -9q-45 21 -117 21q-64 0 -107.5 -22.5t-43.5 -72.5
q0 -64 66.5 -93.5t160.5 -29.5q4 0 13 0.5t14 0.5l7 11q94 151 213 237t225 86q23 0 48 -5t51 -15t43 -30.5t17 -47.5zM580 630q-51 0 -107 -30t-105 -78.5t-88.5 -97t-70.5 -98.5l-9 -13q45 5 88 12t102 19.5t107 31t91.5 42.5t68 58t24.5 73q0 42 -30.5 61.5t-70.5 19.5z
" />
    <glyph glyph-name="m" unicode="m" horiz-adv-x="498" 
d="M89 240q24 0 31.5 -19t-7.5 -41q63 60 121 60q16 0 29 -9t13 -31q0 -10 -5 -27q70 67 130 67q16 0 29 -9t13 -31q0 -27 -22 -61l-48 -77q-24 -41 -1 -39q17 2 48 22l7 -8q-59 -47 -98 -47q-24 0 -31.5 18.5t5.5 38.5l64 101q17 30 17 43q0 16 -17 16q-35 0 -75 -35
t-68 -82l-57 -91q-6 -9 -12 -9q-8 0 -13 11t-5 21q0 26 22 60l45 73q13 19 13 36q0 16 -17 16q-35 0 -75 -35t-68 -82l-57 -91q-6 -9 -12 -9q-8 0 -13 11t-5 21q0 28 25 65l48 77q27 45 3 43q-16 -1 -48 -22l-7 8q59 47 98 47z" />
    <glyph glyph-name="n" unicode="n" horiz-adv-x="332" 
d="M89 240q24 0 31.5 -18.5t-5.5 -38.5l-2 -3q63 60 121 60q16 0 29 -9t13 -31q0 -27 -22 -61l-45 -73q-27 -45 -3 -43q16 1 48 22l7 -8q-59 -47 -98 -47q-24 0 -31.5 18.5t5.5 38.5l63 101q17 30 17 43q0 16 -17 16q-72 0 -143 -117l-57 -91q-6 -9 -12 -9q-8 0 -13 11
t-5 21q0 28 25 65l48 77q27 45 3 43q-16 -1 -48 -22l-7 8q59 47 98 47z" />
    <glyph glyph-name="o" unicode="o" horiz-adv-x="299" 
d="M-37 54q-3 68 73 129.5t149 61.5q69 0 71 -63q2 -68 -72.5 -130t-148.5 -62q-70 0 -72 64zM178 233q-48 0 -105.5 -76t-55.5 -127q2 -28 24 -28q39 0 100 75t60 129q-2 27 -23 27z" />
    <glyph glyph-name="p" unicode="p" horiz-adv-x="318" 
d="M89 240q24 0 31.5 -18.5t-5.5 -38.5l-4 -7q62 64 120 64q22 0 34.5 -12.5t12.5 -33.5q0 -64 -79.5 -134t-152.5 -70q-28 0 -43 14l-30 -48q21 2 60 2q104 0 163.5 -40.5t59.5 -94.5q0 -49 -50 -83.5t-141 -34.5q-81 0 -127 24l7 9q46 -21 117 -21q64 0 107.5 22.5
t43.5 72.5q0 64 -66.5 93.5t-160.5 29.5q-4 0 -13 -0.5t-14 -0.5l-7 -11q-94 -151 -213 -237t-225 -86q-23 0 -48 5t-51 15t-43 30.5t-17 47.5q0 177 553 251l135 215q27 45 3 43q-16 -1 -48 -22l-7 8q59 47 98 47zM-484 -388q51 0 107 30t105 78.5t88.5 97t70.5 98.5l9 13
q-45 -5 -88 -12t-102 -19.5t-107 -31t-91.5 -42.5t-68 -58t-24.5 -73q0 -42 30.5 -61.5t70.5 -19.5zM190 200q-40 0 -96 -60.5t-56 -106.5q0 -24 23 -24q50 0 101 60.5t51 107.5q0 23 -23 23z" />
    <glyph glyph-name="q" unicode="q" horiz-adv-x="315" 
d="M96 7l26 41q-63 -58 -121 -58q-19 0 -30 13t-11 33q0 67 80 135.5t152 68.5q37 0 52 -24q28 12 51 35l11 -4l-161 -257q-99 -155 -99 -221q0 -36 17 -54.5t46 -18.5q28 0 48 20t20 49q0 50 -53 60l2 12q42 -1 71 -21t29 -50q0 -32 -31 -57t-87 -25q-55 0 -83.5 25.5
t-28.5 72.5q0 62 100 225zM48 25q28 0 63.5 32t68.5 85q29 48 29 61q0 24 -23 24q-48 0 -104.5 -61t-56.5 -111q0 -30 23 -30z" />
    <glyph glyph-name="r" unicode="r" horiz-adv-x="260" 
d="M91 240q29 0 33 -25q41 25 79 25q45 0 57 -34l-51 -52l-9 8q10 19 10 36q0 23 -23 23q-27 0 -51.5 -25t-53.5 -69l-81 -128q-6 -9 -12 -9q-8 0 -13 11t-5 21q0 28 25 65l49 77q27 45 3 43q-16 -1 -48 -22l-7 8q59 47 98 47z" />
    <glyph glyph-name="s" unicode="s" horiz-adv-x="263" 
d="M-4 77l9 -5q-8 -16 -8 -32t9.5 -27t29.5 -11q26 0 52 17t26 38q0 11 -14.5 21.5t-32 18.5t-32 22.5t-14.5 33.5q0 34 42.5 60.5t93.5 26.5q57 0 71 -40l-45 -46l-8 6q10 20 10 37q0 13 -9.5 22t-27.5 9q-22 0 -44.5 -16t-22.5 -38q0 -10 14.5 -20.5t32 -19.5t32 -25
t14.5 -35q0 -31 -44.5 -57.5t-97.5 -26.5q-65 0 -87 35z" />
    <glyph glyph-name="t" unicode="t" horiz-adv-x="206" 
d="M136 64q-58 -74 -136 -74q-16 0 -25 9t-9 22q0 14 8 26l110 175h-63l10 18h64l29 45q36 5 71 40l11 -4l-51 -81h91l-10 -18h-92l-107 -173q-14 -23 8 -23q34 0 81 47z" />
    <glyph glyph-name="u" unicode="u" horiz-adv-x="339" 
d="M197 140l27 44q33 56 70 56q15 0 15 -12q0 -3 -2 -9l-96 -153q-27 -45 -3 -43q16 1 48 22l7 -8q-59 -47 -98 -47q-24 0 -31.5 18.5t6.5 40.5q-63 -59 -120 -59q-16 0 -29 9t-13 31q0 27 22 61l45 73q27 45 3 43q-16 -1 -48 -22l-7 8q59 47 98 47q24 0 31.5 -18.5
t-5.5 -38.5l-63 -101q-17 -30 -17 -43q0 -16 17 -16q72 0 143 117z" />
    <glyph glyph-name="v" unicode="v" horiz-adv-x="281" 
d="M88 240q24 0 31.5 -18.5t-5.5 -38.5l-79 -127q-8 -12 -8 -23q0 -12 15 -12q14 0 37 8t51 24.5t48 50.5t20 79q0 26 -13 52q0 6 11 6q23 0 39 -14.5t16 -45.5q0 -46 -49 -92t-110 -72.5t-103 -26.5q-28 0 -28 16q0 26 21 61l60 97q27 45 3 43q-16 -1 -48 -22l-7 8
q59 47 98 47z" />
    <glyph glyph-name="w" unicode="w" horiz-adv-x="439" 
d="M276 240q15 0 15 -12q0 -6 -2 -9q-110 -175 -110 -183q0 -15 16 -15q14 0 38 10t51.5 28t47 51.5t19.5 72.5q0 26 -13 52q0 6 11 6q25 0 45 -14.5t20 -45.5q0 -35 -48 -80.5t-116 -78t-122 -32.5q-14 0 -14 16q0 8 6 28q-80 -44 -138 -44q-22 0 -22 22q0 11 4.5 24.5
t19 37.5t23.5 38t34 52q14 21 14 34q0 9 -10 9q-17 0 -49 -22l-7 8q59 47 98 47q16 0 25 -9t9 -22q0 -12 -8 -26q-12 -19 -25 -39.5t-20.5 -32.5t-15.5 -25t-12 -20t-7.5 -14.5t-5 -11.5t-1.5 -8q0 -11 15 -11q28 0 52.5 16.5t38.5 34t36 52.5l39 60q33 56 69 56z" />
    <glyph glyph-name="x" unicode="x" horiz-adv-x="333" 
d="M137 55q0 -32 24 -32q14 0 31.5 9.5t26.5 20.5l10 -7q-16 -26 -47 -41t-62 -15q-41 0 -49 41q-49 -41 -90 -41q-32 0 -49 10t-17 25q0 32 56 47l6 -9q-18 -11 -18 -32q0 -27 28 -27q30 0 80.5 61.5t50.5 109.5q0 32 -25 32q-14 0 -30.5 -10.5t-26.5 -21.5l-10 6
q16 27 44 43t56 16q40 0 57 -43q51 43 92 43q58 0 58 -33q0 -15 -18 -29t-44 -21l-8 7q26 26 26 47q0 15 -21 15q-30 0 -80.5 -61.5t-50.5 -109.5z" />
    <glyph glyph-name="y" unicode="y" horiz-adv-x="326" 
d="M291 240q15 0 15 -12q0 -3 -2 -9l-163 -263q21 2 60 2q104 0 163.5 -40.5t59.5 -94.5q0 -49 -50 -83.5t-141 -34.5q-81 0 -127 24l7 9q45 -21 117 -21q64 0 107.5 22.5t43.5 72.5q0 64 -66.5 93.5t-160.5 29.5q-4 0 -13 -0.5t-14 -0.5l-7 -11q-94 -151 -213 -237
t-225 -86q-23 0 -48 5t-51 15t-43 30.5t-17 47.5q0 177 553 251l56 89l10 17q-63 -62 -123 -62q-16 0 -29 9t-13 31q0 27 22 61l48 77q21 38 -2 36q-16 -1 -47 -22l-7 8q59 47 98 47q24 0 31.5 -18.5t-5.5 -38.5l-62 -98q-17 -30 -17 -43q0 -16 17 -16q72 0 143 117l5 8
l21 33q33 56 69 56zM-316 -388q51 0 107 30t105 78.5t88.5 97t70.5 98.5l9 13q-45 -5 -88 -12t-102 -19.5t-107 -31t-91.5 -42.5t-68 -58t-24.5 -73q0 -42 30.5 -61.5t70.5 -19.5z" />
    <glyph glyph-name="z" unicode="z" horiz-adv-x="277" 
d="M75 -10q-24 0 -55 10t-49 10q-17 0 -39 -11l-7 10l239 169q-11 2 -30.5 9.5t-37.5 7.5q-29 0 -53 -17l-7 10q19 22 47.5 37t54.5 15q16 0 45.5 -7t41.5 -7q22 0 45 14l7 -10l-256 -180q12 0 41.5 -8.5t44.5 -8.5q41 0 62 29l11 -6q-18 -23 -28 -34t-30.5 -21.5
t-46.5 -10.5z" />
    <glyph glyph-name="braceleft" unicode="{" horiz-adv-x="259" 
d="M35 180q11 2 21 5.5t17.5 7t16.5 10.5t14.5 11t14 14.5t12 14.5t12.5 17t11 16.5t11.5 18.5t11.5 18l48 76q25 40 41.5 60t46.5 36t69 16q3 0 9 -0.5t9 -0.5l-6 -11q-41 0 -70.5 -33.5t-74.5 -112.5l-46 -71q-16 -29 -27 -45t-32.5 -33t-48.5 -25q9 -8 9 -24
q0 -11 -5 -26.5t-11.5 -29.5t-16 -30.5t-16 -27t-15 -23t-9.5 -14.5l-31 -48q-31 -48 -31 -97q0 -32 19 -39l-6 -10q-36 6 -48.5 21.5t-12.5 41.5q0 40 26 83l63 104q4 6 11 17.5t9.5 16.5t7.5 13t7 12.5t4 10.5t3 10.5t1 8.5q0 23 -25 30z" />
    <glyph glyph-name="bar" unicode="|" horiz-adv-x="180" 
d="M185 573v-773h-46v773h46z" />
    <glyph glyph-name="braceright" unicode="}" horiz-adv-x="260" 
d="M226 132l-7 -11q-11 -2 -21 -5.5t-17.5 -7t-16.5 -10.5t-14.5 -11t-14 -14.5t-12 -14.5t-12.5 -17t-11 -16.5t-11.5 -18.5t-11.5 -18l-48 -76q-25 -40 -41.5 -60t-46.5 -36t-69 -16q-3 0 -9 0.5t-9 0.5l6 11q41 0 70.5 33.5t74.5 112.5l46 71q16 29 27 45t32.5 33
t48.5 25q-9 8 -9 24q0 11 5 26.5t11.5 29.5t16 30.5t16 27t15 23t9.5 14.5l31 48q31 48 31 97q0 32 -19 39l6 10q36 -6 48.5 -21.5t12.5 -41.5q0 -40 -26 -83l-63 -104q-4 -6 -11 -17.5t-9.5 -16.5t-7.5 -13t-7 -12.5t-4 -10.5t-3 -10.5t-1 -8.5q0 -23 25 -30z" />
    <glyph glyph-name="asciitilde" unicode="~" horiz-adv-x="357" 
d="M183 162q17 0 50.5 -14.5t51.5 -14.5q37 0 54 27l20 -22q-28 -42 -83 -42q-17 0 -50.5 14.5t-51.5 14.5q-37 0 -54 -27l-20 22q28 42 83 42z" />
    <glyph glyph-name="exclamdown" unicode="&#xa1;" horiz-adv-x="327" 
d="M242 139l-153 -297q-47 -89 -90 -107q-27 -11 -30 15q-4 42 60 126l203 269zM256 169q-13 0 -13 16q0 19 19 36.5t38 17.5q13 0 13 -16q0 -19 -19 -36.5t-38 -17.5z" />
    <glyph glyph-name="cent" unicode="&#xa2;" horiz-adv-x="393" 
d="M313 68l6 -10q-100 -64 -163 -68l-46 -72h-19l46 72q-59 4 -59 47q0 64 74 129.5t145 72.5l42 65h19l-41 -64q39 -4 50 -34l-51 -52l-9 6q10 22 10 38t-13 21l-125 -194h7q46 0 127 43zM143 55q0 -21 18 -27l124 192q-47 -6 -94.5 -61.5t-47.5 -103.5z" />
    <glyph glyph-name="sterling" unicode="&#xa3;" horiz-adv-x="567" 
d="M17 311q0 172 381 172h5q51 0 78 5q35 10 58 12h8v-12q-31 -1 -57.5 -15t-46 -33.5t-40.5 -51t-36 -59.5t-37 -67.5t-39 -66.5h118l-19 -30h-119q-14 -20 -28 -37q-56 -66 -127 -99q52 0 94 -13.5t64.5 -30t51 -30t55.5 -13.5q28 0 47.5 23t19.5 53q0 40 -39 40
q-15 0 -28 -11l-9 7q17 23 53 23q33 0 53 -17.5t20 -42.5q0 -89 -121 -89q-76 0 -154.5 34.5t-159.5 34.5q-13 0 -88 -7v12q73 7 124.5 49t98.5 114h-111l19 30h111q8 13 33.5 57t38 63.5t35.5 52t46 54t50 38.5q-18 -2 -67 -2h-5q-41 0 -63 -0.5t-57 -3t-54 -8t-42.5 -16
t-35.5 -25.5t-20.5 -38.5t-8.5 -53.5q0 -33 19.5 -57t50.5 -24q43 0 76 32l8 -9q-44 -43 -103 -43q-49 0 -75 29.5t-26 69.5z" />
    <glyph glyph-name="currency" unicode="&#xa4;" horiz-adv-x="372" 
d="M125 187q0 49 30 87l-39 35l15 19l46 -32q38 31 85 31q46 0 85 -31l46 32l15 -19l-39 -35q30 -38 30 -87q0 -50 -30 -88l39 -34l-15 -19l-46 31q-38 -30 -85 -30q-49 0 -85 30l-46 -31l-15 19l39 34q-30 38 -30 88zM168 187q0 -41 27.5 -69.5t66.5 -28.5t66.5 28.5
t27.5 69.5t-27.5 69.5t-66.5 28.5t-66.5 -28.5t-27.5 -69.5z" />
    <glyph glyph-name="yen" unicode="&#xa5;" horiz-adv-x="872" 
d="M572 130h-176q-152 -140 -283 -140q-58 0 -98.5 22.5t-40.5 71.5q0 42 28.5 71t78.5 29q57 0 77 -43l-10 -5q-17 27 -51 27q-30 0 -51.5 -23t-21.5 -57q0 -79 96 -79q57 0 116 34t107 92h-144l19 30h148l15 22h-150l19 30h148q44 83 44 158q0 47 -20.5 81.5t-62.5 34.5
q-41 0 -68 -24t-27 -65q0 -34 21.5 -57t51.5 -23q34 0 51 27l10 -5q-20 -43 -77 -43q-50 0 -78.5 29t-28.5 71q0 50 44.5 77t100.5 27q74 0 111 -40t33 -98t-43 -114q200 252 347 252q58 0 98.5 -22.5t40.5 -71.5q0 -42 -28.5 -71t-78.5 -29q-57 0 -77 43l10 5
q17 -27 51 -27q30 0 51.5 23t21.5 57q0 79 -96 79q-27 0 -56 -14t-65 -46.5t-60.5 -58t-72 -78.5t-69.5 -77h146l-19 -30h-155q-10 -12 -22 -22h164z" />
    <glyph glyph-name="brokenbar" unicode="&#xa6;" horiz-adv-x="180" 
d="M185 573v-308h-46v308h46zM185 -200h-46v305h46v-305z" />
    <glyph glyph-name="section" unicode="&#xa7;" horiz-adv-x="407" 
d="M140 238q0 103 122 118q-2 10 -2 29q0 48 34 81.5t112 33.5q51 0 81.5 -27t30.5 -60q0 -25 -22.5 -47t-66.5 -35l-5 11q20 13 32 34.5t12 42.5q0 27 -16 48t-45 21q-42 0 -61.5 -26t-19.5 -62q0 -29 20 -105.5t20 -113.5q0 -104 -122 -119q2 -20 2 -28q0 -105 -146 -105
q-51 0 -81.5 27t-30.5 60q0 25 22.5 47t66.5 35l5 -11q-20 -13 -32 -34.5t-12 -42.5q0 -27 16 -48t45 -21q43 0 62 22t19 56q0 29 -20 105.5t-20 113.5zM312 154q0 31 -22 100t-26 89q-70 -15 -70 -78q0 -32 21.5 -101.5t25.5 -87.5q71 13 71 78z" />
    <glyph glyph-name="dieresis" unicode="&#xa8;" horiz-adv-x="186" 
d="M93 309q-13 0 -13 16q0 18 22.5 36.5t37.5 18.5q12 0 12 -14q0 -18 -21.5 -37.5t-37.5 -19.5zM197 309q-13 0 -13 16q0 18 22.5 36.5t37.5 18.5q12 0 12 -14q0 -18 -21.5 -37.5t-37.5 -19.5z" />
    <glyph glyph-name="copyright" unicode="&#xa9;" horiz-adv-x="568" 
d="M435 207l10 -6q-18 -33 -67 -58t-98 -25q-51 0 -85.5 28t-34.5 78q0 55 56 100.5t139 45.5q24 0 41 -7t22.5 -14t5.5 -13q0 -16 -18 -31t-45 -19q-1 0 -4 2l-3 2q8 4 15.5 14t7.5 18q0 18 -29 18q-45 0 -83.5 -35t-38.5 -77q0 -38 22 -59.5t55 -21.5t70 18t62 42zM45 247
q0 106 75.5 177.5t183.5 71.5t183 -71.5t75 -177.5t-75 -177t-183 -71t-183.5 71t-75.5 177zM542 247q0 96 -71 165t-167 69t-167.5 -69t-71.5 -165q0 -95 71.5 -164.5t167.5 -69.5t167 69.5t71 164.5z" />
    <glyph glyph-name="ordfeminine" unicode="&#xaa;" horiz-adv-x="0" 
 />
    <glyph glyph-name="guillemotleft" unicode="&#xab;" horiz-adv-x="321" 
d="M198 241l8 -9q-11 -16 -48.5 -58.5t-58.5 -56.5q14 -9 29 -43t20 -61l-11 -3q-44 79 -89 100l1 12q24 11 76.5 54t72.5 65zM293 241l8 -9q-11 -16 -48.5 -58.5t-58.5 -56.5q14 -9 29 -43t20 -61l-11 -3q-44 79 -89 100l1 12q24 11 76.5 54t72.5 65z" />
    <glyph glyph-name="logicalnot" unicode="&#xac;" horiz-adv-x="184" 
 />
    <glyph glyph-name="registered" unicode="&#xae;" horiz-adv-x="53" 
 />
    <glyph glyph-name="macron" unicode="&#xaf;" horiz-adv-x="174" 
d="M240 329h-178l15 21h178z" />
    <glyph glyph-name="degree" unicode="&#xb0;" horiz-adv-x="226" 
d="M145 310q0 29 21 50.5t50 21.5q30 0 51 -21.5t21 -50.5q0 -30 -21 -51.5t-51 -21.5q-29 0 -50 21.5t-21 51.5zM157 310q0 -26 17 -43.5t42 -17.5t42.5 18t17.5 43t-17.5 42.5t-42.5 17.5t-42 -17.5t-17 -42.5z" />
    <glyph glyph-name="plusminus" unicode="&#xb1;" horiz-adv-x="833" 
 />
    <glyph glyph-name="twosuperior" unicode="&#xb2;" horiz-adv-x="386" 
d="M281 561q-33 -43 -57.5 -56t-59.5 -13q-21 0 -61.5 13t-62.5 13q-33 0 -69 -23l-5 6q24 22 67.5 43t84 38.5t79 39.5t62 55.5t23.5 77.5q0 24 -14 45.5t-42 21.5q-37 0 -71 -28.5t-34 -72.5q0 -43 36 -43q25 0 46 21l6 -6q-32 -30 -66 -30q-27 0 -42 19.5t-15 40.5
q0 41 48 74t101 33q39 0 65 -23t26 -62q0 -103 -266 -200q6 1 17 1q21 0 58 -12.5t56 -12.5q49 0 84 44z" />
    <glyph glyph-name="threesuperior" unicode="&#xb3;" horiz-adv-x="343" 
d="M127 757q0 33 36.5 53t83.5 20q36 0 62 -16.5t26 -46.5q0 -41 -36.5 -74t-97.5 -33q25 -3 38.5 -18.5t13.5 -37.5q0 -50 -48.5 -80.5t-105.5 -30.5q-40 0 -61.5 18.5t-21.5 43.5q0 22 17.5 38.5t47.5 16.5q17 0 34 -11l-3 -7q-8 4 -19 4q-18 0 -31 -13t-13 -33
t13.5 -34.5t37.5 -14.5q43 0 76.5 34.5t33.5 70.5q0 48 -40 51v8q62 0 92 32.5t30 74.5q0 24 -16 36.5t-40 12.5q-30 0 -53.5 -17t-23.5 -44q0 -10 5 -17.5t13 -7.5q18 0 35 11l4 -5q-21 -21 -48 -21q-41 0 -41 37z" />
    <glyph glyph-name="acute" unicode="&#xb4;" horiz-adv-x="155" 
d="M186 407q13 0 29 -3.5t17 -7.5q-5 -22 -41 -58t-64 -45l-5 6q17 15 37.5 47.5t26.5 60.5z" />
    <glyph glyph-name="paragraph" unicode="&#xb6;" horiz-adv-x="433" 
d="M202 -120h-45l353 594h-43l-354 -594h-45l190 319l-14 5q-13 4 -25.5 10t-23.5 22t-11 38q0 80 83 150.5t167 70.5h184v-21h-62z" />
    <glyph glyph-name="periodcentered" unicode="&#xb7;" horiz-adv-x="196" 
d="M176 195q13 0 13 -16q0 -19 -19 -36.5t-38 -17.5q-13 0 -13 16q0 19 19 36.5t38 17.5z" />
    <glyph glyph-name="cedilla" unicode="&#xb8;" horiz-adv-x="191" 
d="M-97 -94q17 -10 43.5 -15.5t50.5 3t24 35.5q0 13 -10.5 24t-28.5 12l44 53h27l-28 -31q26 -4 39.5 -19.5t13.5 -32.5q0 -41 -36.5 -57t-80.5 -9t-71 26z" />
    <glyph glyph-name="onesuperior" unicode="&#xb9;" horiz-adv-x="238" 
d="M143 493q-12 0 -12 22q0 19 16 42l119 190l3 6q0 2 -2 2l-70 -33l-4 6l155 103l6 -4l-204 -328q-3 -6 -7 -6z" />
    <glyph glyph-name="ordmasculine" unicode="&#xba;" horiz-adv-x="22" 
 />
    <glyph glyph-name="guillemotright" unicode="&#xbb;" horiz-adv-x="322" 
d="M127 10l-8 9q11 16 48.5 58.5t58.5 56.5q-14 9 -29 43t-20 61l11 3q44 -79 89 -100l-1 -12q-24 -11 -76.5 -54t-72.5 -65zM32 10l-8 9q11 16 48.5 58.5t58.5 56.5q-14 9 -29 43t-20 61l11 3q44 -79 89 -100l-1 -12q-24 -11 -76.5 -54t-72.5 -65z" />
    <glyph glyph-name="onequarter" unicode="&#xbc;" horiz-adv-x="786" 
d="M606 541l-401 -601h-35l402 601h34zM137 163q-9 0 -9 22q0 19 16 42l119 190q4 6 4.5 8t-2 1.5t-9.5 -3.5l-65 -31l-4 6l154 103l7 -4l-204 -328q-3 -6 -7 -6zM640 -7q-5 0 -8.5 7.5t-3.5 14.5q0 19 16 42l42 66h-181v8l243 199h48l-256 -195h153l85 138l43 6l-89 -144
h83l-6 -12h-85l-76 -124q-4 -6 -8 -6z" />
    <glyph glyph-name="onehalf" unicode="&#xbd;" horiz-adv-x="812" 
d="M606 541l-401 -601h-35l402 601h34zM137 163q-9 0 -9 22q0 19 16 42l119 190q4 6 4.5 8t-2 1.5t-9.5 -3.5l-65 -31l-4 6l154 103l7 -4l-204 -328q-3 -6 -7 -6zM728 61q-28 -41 -54 -54.5t-62 -13.5q-21 0 -62 12.5t-63 12.5q-32 0 -69 -23l-5 6q28 26 92 52.5t118 46.5
t97 60t43 93q0 33 -18 50.5t-45 17.5q-36 0 -67 -27t-31 -69q0 -43 35 -43q25 0 46 21l6 -6q-32 -30 -66 -30q-27 0 -41.5 19.5t-14.5 40.5q0 44 43 73.5t95 29.5q42 0 71.5 -23.5t29.5 -64.5q0 -88 -299 -197q6 1 18 1q21 0 58 -12t55 -12q50 0 84 43z" />
    <glyph glyph-name="threequarters" unicode="&#xbe;" horiz-adv-x="812" 
d="M688 541l-401 -601h-35l402 601h34zM197 427q1 33 38 53.5t84 20.5q37 0 62.5 -16.5t24.5 -46.5q-2 -41 -39 -74t-99 -33q51 -8 51 -57q-1 -50 -50.5 -80t-106.5 -30q-40 0 -61 18t-20 43q1 23 18.5 39.5t46.5 16.5q18 0 35 -11l-4 -7q-8 4 -18 4q-18 0 -31.5 -13
t-14.5 -33t12.5 -34.5t37.5 -14.5q43 0 77 34t36 71q0 48 -39 51l1 8q22 0 37 4q43 9 65 39t24 64q0 50 -55 50q-30 0 -54 -17.5t-25 -44.5q-2 -25 17 -25q20 0 35 11l4 -5q-22 -21 -49 -21q-40 0 -40 36zM694 -7q-5 0 -8.5 7.5t-3.5 14.5q0 19 16 42l42 66h-181v8l243 199
h48l-256 -195h153l85 138l43 6l-89 -144h83l-6 -12h-85l-76 -124q-4 -6 -8 -6z" />
    <glyph glyph-name="questiondown" unicode="&#xbf;" horiz-adv-x="290" 
d="M158 -45q0 17 8.5 33t19 26t31 22t32.5 17.5t37 15.5t31 13q27 12 41.5 20t33 24.5t31.5 38.5l11 -5q-21 -36 -60 -60.5t-71 -36t-56 -38.5t-24 -71q0 -26 20.5 -50.5t53.5 -24.5q45 0 79 27t34 79q0 25 -13 38.5t-33 13.5q-29 0 -53 -24l-4 5q36 34 77 34q35 0 55.5 -19
t20.5 -51q0 -51 -42.5 -83t-120.5 -32q-58 0 -98.5 20t-40.5 68zM491 259q13 0 13 -16q0 -18 -22.5 -36.5t-37.5 -18.5q-12 0 -12 14q0 18 21.5 37.5t37.5 19.5z" />
    <glyph glyph-name="Agrave" unicode="&#xc0;" horiz-adv-x="914" 
d="M274 311q0 169 364 172q76 0 104 1q27 1 89.5 6.5t121.5 9.5l6 -9q-90 -57 -172 -170t-82 -211q0 -42 19 -69t59 -27q33 0 55 21l9 -7q-26 -38 -85 -38q-54 0 -88 32.5t-34 76.5q0 75 44 153h-106q-82 -91 -121 -124q-71 -61 -166.5 -99.5t-176.5 -38.5q-58 0 -98.5 22.5
t-40.5 71.5q0 42 28.5 71t78.5 29q57 0 77 -43l-10 -5q-17 27 -51 27q-30 0 -51.5 -23t-21.5 -57q0 -79 96 -79q173 0 366 218q5 6 24 27.5t25 28.5t23.5 26.5t26 27.5t25 25t27 25.5t26 22t28.5 22.5t28.5 18.5t30.5 17.5q-27 -5 -148 -5q-47 0 -73 -1t-64 -5t-59 -13
t-42.5 -24.5t-31 -41t-9.5 -60.5q0 -33 19.5 -57t50.5 -24q43 0 76 32l8 -9q-44 -43 -103 -43q-49 0 -75 29.5t-26 69.5zM911 480q-47 -1 -89.5 -17.5t-84.5 -51t-70 -63t-73 -78.5h101q39 62 96 118.5t120 91.5zM456 665q6 -28 26.5 -60.5t37.5 -47.5l-5 -6q-28 9 -64 45
t-41 58q1 4 17 7.5t29 3.5z" />
    <glyph glyph-name="Aacute" unicode="&#xc1;" horiz-adv-x="914" 
d="M274 311q0 169 364 172q76 0 104 1q27 1 89.5 6.5t121.5 9.5l6 -9q-90 -57 -172 -170t-82 -211q0 -42 19 -69t59 -27q33 0 55 21l9 -7q-26 -38 -85 -38q-54 0 -88 32.5t-34 76.5q0 75 44 153h-106q-82 -91 -121 -124q-71 -61 -166.5 -99.5t-176.5 -38.5q-58 0 -98.5 22.5
t-40.5 71.5q0 42 28.5 71t78.5 29q57 0 77 -43l-10 -5q-17 27 -51 27q-30 0 -51.5 -23t-21.5 -57q0 -79 96 -79q173 0 366 218q5 6 24 27.5t25 28.5t23.5 26.5t26 27.5t25 25t27 25.5t26 22t28.5 22.5t28.5 18.5t30.5 17.5q-27 -5 -148 -5q-47 0 -73 -1t-64 -5t-59 -13
t-42.5 -24.5t-31 -41t-9.5 -60.5q0 -33 19.5 -57t50.5 -24q43 0 76 32l8 -9q-44 -43 -103 -43q-49 0 -75 29.5t-26 69.5zM911 480q-47 -1 -89.5 -17.5t-84.5 -51t-70 -63t-73 -78.5h101q39 62 96 118.5t120 91.5zM1001 681q13 0 29 -3.5t17 -7.5q-5 -22 -41 -58t-64 -45
l-5 6q17 15 37.5 47.5t26.5 60.5z" />
    <glyph glyph-name="Acircumflex" unicode="&#xc2;" horiz-adv-x="914" 
d="M274 311q0 169 364 172q76 0 104 1q27 1 89.5 6.5t121.5 9.5l6 -9q-90 -57 -172 -170t-82 -211q0 -42 19 -69t59 -27q33 0 55 21l9 -7q-26 -38 -85 -38q-54 0 -88 32.5t-34 76.5q0 75 44 153h-106q-82 -91 -121 -124q-71 -61 -166.5 -99.5t-176.5 -38.5q-58 0 -98.5 22.5
t-40.5 71.5q0 42 28.5 71t78.5 29q57 0 77 -43l-10 -5q-17 27 -51 27q-30 0 -51.5 -23t-21.5 -57q0 -79 96 -79q173 0 366 218q5 6 24 27.5t25 28.5t23.5 26.5t26 27.5t25 25t27 25.5t26 22t28.5 22.5t28.5 18.5t30.5 17.5q-27 -5 -148 -5q-47 0 -73 -1t-64 -5t-59 -13
t-42.5 -24.5t-31 -41t-9.5 -60.5q0 -33 19.5 -57t50.5 -24q43 0 76 32l8 -9q-44 -43 -103 -43q-49 0 -75 29.5t-26 69.5zM911 480q-47 -1 -89.5 -17.5t-84.5 -51t-70 -63t-73 -78.5h101q39 62 96 118.5t120 91.5zM873 568l-10 13q58 40 111 115h15q0 -64 39 -125l-13 -7
q-7 6 -24 32.5t-28 50.5q-55 -57 -90 -79z" />
    <glyph glyph-name="Atilde" unicode="&#xc3;" horiz-adv-x="914" 
d="M274 311q0 169 364 172q76 0 104 1q27 1 89.5 6.5t121.5 9.5l6 -9q-90 -57 -172 -170t-82 -211q0 -42 19 -69t59 -27q33 0 55 21l9 -7q-26 -38 -85 -38q-54 0 -88 32.5t-34 76.5q0 75 44 153h-106q-82 -91 -121 -124q-71 -61 -166.5 -99.5t-176.5 -38.5q-58 0 -98.5 22.5
t-40.5 71.5q0 42 28.5 71t78.5 29q57 0 77 -43l-10 -5q-17 27 -51 27q-30 0 -51.5 -23t-21.5 -57q0 -79 96 -79q173 0 366 218q5 6 24 27.5t25 28.5t23.5 26.5t26 27.5t25 25t27 25.5t26 22t28.5 22.5t28.5 18.5t30.5 17.5q-27 -5 -148 -5q-47 0 -73 -1t-64 -5t-59 -13
t-42.5 -24.5t-31 -41t-9.5 -60.5q0 -33 19.5 -57t50.5 -24q43 0 76 32l8 -9q-44 -43 -103 -43q-49 0 -75 29.5t-26 69.5zM911 480q-47 -1 -89.5 -17.5t-84.5 -51t-70 -63t-73 -78.5h101q39 62 96 118.5t120 91.5zM905 623q14 0 38.5 -13.5t39.5 -13.5q27 0 41 21l9 -3
q-3 -24 -22.5 -38t-39.5 -14q-14 0 -38.5 13.5t-39.5 13.5q-27 0 -41 -21l-9 3q3 24 22.5 38t39.5 14z" />
    <glyph glyph-name="Adieresis" unicode="&#xc4;" horiz-adv-x="914" 
d="M274 311q0 169 364 172q76 0 104 1q27 1 89.5 6.5t121.5 9.5l6 -9q-90 -57 -172 -170t-82 -211q0 -42 19 -69t59 -27q33 0 55 21l9 -7q-26 -38 -85 -38q-54 0 -88 32.5t-34 76.5q0 75 44 153h-106q-82 -91 -121 -124q-71 -61 -166.5 -99.5t-176.5 -38.5q-58 0 -98.5 22.5
t-40.5 71.5q0 42 28.5 71t78.5 29q57 0 77 -43l-10 -5q-17 27 -51 27q-30 0 -51.5 -23t-21.5 -57q0 -79 96 -79q173 0 366 218q5 6 24 27.5t25 28.5t23.5 26.5t26 27.5t25 25t27 25.5t26 22t28.5 22.5t28.5 18.5t30.5 17.5q-27 -5 -148 -5q-47 0 -73 -1t-64 -5t-59 -13
t-42.5 -24.5t-31 -41t-9.5 -60.5q0 -33 19.5 -57t50.5 -24q43 0 76 32l8 -9q-44 -43 -103 -43q-49 0 -75 29.5t-26 69.5zM911 480q-47 -1 -89.5 -17.5t-84.5 -51t-70 -63t-73 -78.5h101q39 62 96 118.5t120 91.5zM902 569q-13 0 -13 16q0 18 22.5 36.5t37.5 18.5
q12 0 12 -14q0 -18 -21.5 -37.5t-37.5 -19.5zM1006 569q-13 0 -13 16q0 18 22.5 36.5t37.5 18.5q12 0 12 -14q0 -18 -21.5 -37.5t-37.5 -19.5z" />
    <glyph glyph-name="Aring" unicode="&#xc5;" horiz-adv-x="914" 
d="M274 311q0 169 364 172q76 0 104 1q27 1 89.5 6.5t121.5 9.5l6 -9q-90 -57 -172 -170t-82 -211q0 -42 19 -69t59 -27q33 0 55 21l9 -7q-26 -38 -85 -38q-54 0 -88 32.5t-34 76.5q0 75 44 153h-106q-82 -91 -121 -124q-71 -61 -166.5 -99.5t-176.5 -38.5q-58 0 -98.5 22.5
t-40.5 71.5q0 42 28.5 71t78.5 29q57 0 77 -43l-10 -5q-17 27 -51 27q-30 0 -51.5 -23t-21.5 -57q0 -79 96 -79q173 0 366 218q5 6 24 27.5t25 28.5t23.5 26.5t26 27.5t25 25t27 25.5t26 22t28.5 22.5t28.5 18.5t30.5 17.5q-27 -5 -148 -5q-47 0 -73 -1t-64 -5t-59 -13
t-42.5 -24.5t-31 -41t-9.5 -60.5q0 -33 19.5 -57t50.5 -24q43 0 76 32l8 -9q-44 -43 -103 -43q-49 0 -75 29.5t-26 69.5zM911 480q-47 -1 -89.5 -17.5t-84.5 -51t-70 -63t-73 -78.5h101q39 62 96 118.5t120 91.5zM484 640q16 0 27 -7.5t11 -18.5q0 -24 -31.5 -42.5
t-60.5 -18.5q-16 0 -26.5 7t-10.5 18q0 25 31 43.5t60 18.5zM477 628q-19 0 -37 -13t-18 -33q0 -16 16 -16q19 0 37 13t18 33q0 16 -16 16z" />
    <glyph glyph-name="AE" unicode="&#xc6;" horiz-adv-x="1247" 
d="M1164 486q-92 0 -153.5 -55.5t-61.5 -111.5q0 -24 14.5 -46.5t39.5 -22.5v-12q-69 -5 -127 -44t-58 -105q0 -34 20 -54l9 -7q30 -23 85 -23q77 0 147 42t70 103q0 30 -18 47.5t-45 17.5q-30 0 -56 -20l-8 10q35 30 88 30q36 0 62.5 -23t26.5 -59q0 -46 -47 -84.5
t-114 -58.5t-134 -20q-49 0 -88 12q-24 -12 -54 -12q-54 0 -88 32.5t-34 76.5q0 75 44 153h-106q-82 -91 -121 -124q-71 -61 -166.5 -99.5t-176.5 -38.5q-58 0 -98.5 22.5t-40.5 71.5q0 42 28.5 71t78.5 29q57 0 77 -43l-10 -5q-17 27 -51 27q-30 0 -51.5 -23t-21.5 -57
q0 -79 96 -79q173 0 366 218q5 6 24 27.5t25 28.5t23.5 26.5t26 27.5t25 25t27 25.5t26 22t28.5 22.5t28.5 18.5t30.5 17.5q-27 -5 -148 -5q-47 0 -73 -1t-64 -5t-59 -13t-42.5 -24.5t-31 -41t-9.5 -60.5q0 -33 19.5 -57t50.5 -24q43 0 76 32l8 -9q-44 -43 -103 -43
q-49 0 -75 29.5t-26 69.5q0 169 364 172q76 0 104 1q27 1 89.5 6.5t121.5 9.5l6 -9q-90 -57 -172 -170t-82 -211q0 -42 19 -69t59 -27h5q-45 24 -45 70q0 31 15.5 57.5t39 44t54 31.5t56.5 21.5t51 11.5q-33 4 -59 22.5t-26 43.5q0 45 33 82t81 58t95 32.5t82 11.5
q44 0 73 -13t29 -40q0 -68 -112 -84l-5 11q22 5 44.5 26t22.5 45q0 18 -13.5 29.5t-39.5 11.5zM911 480q-47 -1 -89.5 -17.5t-84.5 -51t-70 -63t-73 -78.5h101q39 62 96 118.5t120 91.5z" />
    <glyph glyph-name="Ccedilla" unicode="&#xc7;" horiz-adv-x="495" 
d="M3 -103q17 -10 43.5 -15.5t50.5 3t24 35.5q0 14 -10.5 24.5t-28.5 11.5l30 37q-60 7 -96 39t-36 91q0 67 44.5 136.5t110.5 121.5t144.5 85.5t145.5 33.5q41 0 70 -13t29 -40q0 -68 -113 -84l-4 11q22 5 44 26t22 45q0 18 -13.5 29.5t-39.5 11.5q-48 0 -111.5 -33
t-119.5 -83.5t-95 -117.5t-39 -128q0 -111 121 -111q57 0 122.5 24.5t109.5 57.5l9 -11q-45 -41 -120.5 -67.5t-146.5 -26.5q-3 0 -7.5 0.5t-6.5 0.5l-11 -13q26 -4 39.5 -19.5t13.5 -32.5q0 -41 -36.5 -57t-80.5 -9t-71 26z" />
    <glyph glyph-name="Egrave" unicode="&#xc8;" horiz-adv-x="474" 
d="M391 486q-92 0 -153.5 -55.5t-61.5 -111.5q0 -24 14.5 -46.5t39.5 -22.5v-12q-69 -5 -127 -44t-58 -105q0 -43 31.5 -63.5t82.5 -20.5q77 0 147 42t70 103q0 30 -18 47.5t-45 17.5q-30 0 -56 -20l-8 10q35 30 88 30q36 0 62.5 -23t26.5 -59q0 -46 -47 -84.5t-114 -58.5
t-134 -20q-70 0 -115.5 23.5t-45.5 70.5q0 31 15.5 57.5t39 44t54 31.5t56.5 21.5t51 11.5q-33 4 -59 22.5t-26 43.5q0 45 33 82t81 58t95 32.5t82 11.5q44 0 73 -13t29 -40q0 -68 -112 -84l-5 11q22 5 44.5 26t22.5 45q0 18 -13.5 29.5t-39.5 11.5zM380 684
q6 -28 26.5 -60.5t37.5 -47.5l-5 -6q-28 9 -64 45t-41 58q1 4 17 7.5t29 3.5z" />
    <glyph glyph-name="Eacute" unicode="&#xc9;" horiz-adv-x="474" 
d="M391 486q-92 0 -153.5 -55.5t-61.5 -111.5q0 -24 14.5 -46.5t39.5 -22.5v-12q-69 -5 -127 -44t-58 -105q0 -43 31.5 -63.5t82.5 -20.5q77 0 147 42t70 103q0 30 -18 47.5t-45 17.5q-30 0 -56 -20l-8 10q35 30 88 30q36 0 62.5 -23t26.5 -59q0 -46 -47 -84.5t-114 -58.5
t-134 -20q-70 0 -115.5 23.5t-45.5 70.5q0 31 15.5 57.5t39 44t54 31.5t56.5 21.5t51 11.5q-33 4 -59 22.5t-26 43.5q0 45 33 82t81 58t95 32.5t82 11.5q44 0 73 -13t29 -40q0 -68 -112 -84l-5 11q22 5 44.5 26t22.5 45q0 18 -13.5 29.5t-39.5 11.5zM492 681q13 0 29 -3.5
t17 -7.5q-5 -22 -41 -58t-64 -45l-5 6q17 15 37.5 47.5t26.5 60.5z" />
    <glyph glyph-name="Ecircumflex" unicode="&#xca;" horiz-adv-x="474" 
d="M391 486q-92 0 -153.5 -55.5t-61.5 -111.5q0 -24 14.5 -46.5t39.5 -22.5v-12q-69 -5 -127 -44t-58 -105q0 -43 31.5 -63.5t82.5 -20.5q77 0 147 42t70 103q0 30 -18 47.5t-45 17.5q-30 0 -56 -20l-8 10q35 30 88 30q36 0 62.5 -23t26.5 -59q0 -46 -47 -84.5t-114 -58.5
t-134 -20q-70 0 -115.5 23.5t-45.5 70.5q0 31 15.5 57.5t39 44t54 31.5t56.5 21.5t51 11.5q-33 4 -59 22.5t-26 43.5q0 45 33 82t81 58t95 32.5t82 11.5q44 0 73 -13t29 -40q0 -68 -112 -84l-5 11q22 5 44.5 26t22.5 45q0 18 -13.5 29.5t-39.5 11.5zM364 568l-10 13
q58 40 111 115h15q0 -64 39 -125l-13 -7q-7 6 -24 32.5t-28 50.5q-55 -57 -90 -79z" />
    <glyph glyph-name="Edieresis" unicode="&#xcb;" horiz-adv-x="474" 
d="M391 486q-92 0 -153.5 -55.5t-61.5 -111.5q0 -24 14.5 -46.5t39.5 -22.5v-12q-69 -5 -127 -44t-58 -105q0 -43 31.5 -63.5t82.5 -20.5q77 0 147 42t70 103q0 30 -18 47.5t-45 17.5q-30 0 -56 -20l-8 10q35 30 88 30q36 0 62.5 -23t26.5 -59q0 -46 -47 -84.5t-114 -58.5
t-134 -20q-70 0 -115.5 23.5t-45.5 70.5q0 31 15.5 57.5t39 44t54 31.5t56.5 21.5t51 11.5q-33 4 -59 22.5t-26 43.5q0 45 33 82t81 58t95 32.5t82 11.5q44 0 73 -13t29 -40q0 -68 -112 -84l-5 11q22 5 44.5 26t22.5 45q0 18 -13.5 29.5t-39.5 11.5zM393 569q-13 0 -13 16
q0 18 22.5 36.5t37.5 18.5q12 0 12 -14q0 -18 -21.5 -37.5t-37.5 -19.5zM497 569q-13 0 -13 16q0 18 22.5 36.5t37.5 18.5q12 0 12 -14q0 -18 -21.5 -37.5t-37.5 -19.5z" />
    <glyph glyph-name="Igrave" unicode="&#xcc;" horiz-adv-x="547" 
d="M173 315q0 172 381 172h5q53 0 73 4q36 9 66 9h8v-12q-52 -2 -94.5 -40.5t-68 -87.5t-65.5 -119t-76 -113q-54 -62 -130.5 -100t-157.5 -38q-58 0 -98.5 22.5t-40.5 71.5q0 42 28.5 71t78.5 29q57 0 77 -43l-10 -5q-17 27 -51 27q-30 0 -51.5 -23t-21.5 -57q0 -79 96 -79
q74 0 130 36t93.5 93.5t68.5 118t72 121t87 90.5q-17 -1 -63 -1h-5q-41 0 -63 -0.5t-57 -3t-54 -8t-42.5 -16t-35.5 -25.5t-20.5 -38.5t-8.5 -53.5q0 -33 19.5 -57t50.5 -24q43 0 76 32l8 -9q-44 -43 -103 -43q-49 0 -75 29.5t-26 69.5zM606 684q6 -28 26.5 -60.5
t37.5 -47.5l-5 -6q-28 9 -64 45t-41 58q1 4 17 7.5t29 3.5z" />
    <glyph glyph-name="Iacute" unicode="&#xcd;" horiz-adv-x="547" 
d="M173 315q0 172 381 172h5q53 0 73 4q36 9 66 9h8v-12q-52 -2 -94.5 -40.5t-68 -87.5t-65.5 -119t-76 -113q-54 -62 -130.5 -100t-157.5 -38q-58 0 -98.5 22.5t-40.5 71.5q0 42 28.5 71t78.5 29q57 0 77 -43l-10 -5q-17 27 -51 27q-30 0 -51.5 -23t-21.5 -57q0 -79 96 -79
q74 0 130 36t93.5 93.5t68.5 118t72 121t87 90.5q-17 -1 -63 -1h-5q-41 0 -63 -0.5t-57 -3t-54 -8t-42.5 -16t-35.5 -25.5t-20.5 -38.5t-8.5 -53.5q0 -33 19.5 -57t50.5 -24q43 0 76 32l8 -9q-44 -43 -103 -43q-49 0 -75 29.5t-26 69.5zM718 681q13 0 29 -3.5t17 -7.5
q-5 -22 -41 -58t-64 -45l-5 6q17 15 37.5 47.5t26.5 60.5z" />
    <glyph glyph-name="Icircumflex" unicode="&#xce;" horiz-adv-x="547" 
d="M173 315q0 172 381 172h5q53 0 73 4q36 9 66 9h8v-12q-52 -2 -94.5 -40.5t-68 -87.5t-65.5 -119t-76 -113q-54 -62 -130.5 -100t-157.5 -38q-58 0 -98.5 22.5t-40.5 71.5q0 42 28.5 71t78.5 29q57 0 77 -43l-10 -5q-17 27 -51 27q-30 0 -51.5 -23t-21.5 -57q0 -79 96 -79
q74 0 130 36t93.5 93.5t68.5 118t72 121t87 90.5q-17 -1 -63 -1h-5q-41 0 -63 -0.5t-57 -3t-54 -8t-42.5 -16t-35.5 -25.5t-20.5 -38.5t-8.5 -53.5q0 -33 19.5 -57t50.5 -24q43 0 76 32l8 -9q-44 -43 -103 -43q-49 0 -75 29.5t-26 69.5zM590 568l-10 13q58 40 111 115h15
q0 -64 39 -125l-13 -7q-7 6 -24 32.5t-28 50.5q-55 -57 -90 -79z" />
    <glyph glyph-name="Idieresis" unicode="&#xcf;" horiz-adv-x="547" 
d="M173 315q0 172 381 172h5q53 0 73 4q36 9 66 9h8v-12q-52 -2 -94.5 -40.5t-68 -87.5t-65.5 -119t-76 -113q-54 -62 -130.5 -100t-157.5 -38q-58 0 -98.5 22.5t-40.5 71.5q0 42 28.5 71t78.5 29q57 0 77 -43l-10 -5q-17 27 -51 27q-30 0 -51.5 -23t-21.5 -57q0 -79 96 -79
q74 0 130 36t93.5 93.5t68.5 118t72 121t87 90.5q-17 -1 -63 -1h-5q-41 0 -63 -0.5t-57 -3t-54 -8t-42.5 -16t-35.5 -25.5t-20.5 -38.5t-8.5 -53.5q0 -33 19.5 -57t50.5 -24q43 0 76 32l8 -9q-44 -43 -103 -43q-49 0 -75 29.5t-26 69.5zM619 569q-13 0 -13 16
q0 18 22.5 36.5t37.5 18.5q12 0 12 -14q0 -18 -21.5 -37.5t-37.5 -19.5zM723 569q-13 0 -13 16q0 18 22.5 36.5t37.5 18.5q12 0 12 -14q0 -18 -21.5 -37.5t-37.5 -19.5z" />
    <glyph glyph-name="Eth" unicode="&#xd0;" horiz-adv-x="801" 
d="M392 295h45q36 64 70 107.5t78 68.5q-47 14 -110 14q-20 0 -43.5 -2t-63 -13t-69.5 -29t-53 -55t-23 -86q0 -34 18 -52t45 -18q41 0 74 31l7 -8q-47 -45 -100 -45q-52 0 -73 29.5t-21 65.5q0 55 35 96t87 61.5t98.5 30t81.5 9.5q72 0 129 -20q45 20 94 20h8v-12
q-36 -1 -69 -21q68 -32 103.5 -88.5t35.5 -121.5q0 -104 -79 -185.5t-201 -81.5q-52 0 -79 15t-27 37q0 58 71 71l3 -11q-34 -22 -34 -51q0 -21 17.5 -34t47.5 -13q79 0 148.5 99t69.5 205t-91 149q-22 -16 -43.5 -45t-34.5 -51t-37 -66h55l-19 -30h-52q-49 -90 -89 -137
q-54 -62 -130.5 -100t-157.5 -38q-58 0 -98.5 22.5t-40.5 71.5q0 42 28.5 71t78.5 29q57 0 77 -43l-10 -5q-17 27 -51 27q-30 0 -51.5 -23t-21.5 -57q0 -79 96 -79q34 0 65 9t53.5 19.5t47 35t38.5 40t35.5 51t30 50.5t30.5 56h-48z" />
    <glyph glyph-name="Ntilde" unicode="&#xd1;" horiz-adv-x="1161" 
d="M217 311q0 172 381 172h5q47 0 72 4q45 13 98 13v-14q-54 -1 -82 -98q-14 -47 -35 -175q-7 -38 -10 -57q32 65 73 122.5t94.5 109t121 82t138.5 30.5q58 0 98.5 -22.5t40.5 -71.5q0 -42 -28.5 -71t-78.5 -29q-57 0 -77 43l10 5q17 -27 51 -27q30 0 51.5 23t21.5 57
q0 79 -96 79q-33 0 -64.5 -7.5t-58 -19t-55 -35t-50.5 -44t-50.5 -59t-48 -66.5t-51 -80t-51.5 -86.5t-56 -98.5h-14q15 207 36 297q22 102 63 174q-35 -19 -79.5 -82.5t-92.5 -140t-81 -110.5q-62 -64 -140.5 -101t-158.5 -37q-58 0 -98.5 22.5t-40.5 71.5q0 42 28.5 71
t78.5 29q57 0 77 -43l-10 -5q-17 27 -51 27q-30 0 -51.5 -23t-21.5 -57q0 -79 96 -79q39 0 74.5 9t63.5 22.5t57 37.5t48.5 44.5t45 55t41 57t40.5 61.5t39 60q4 6 14 20.5t14 21t12.5 18t15 18.5t15 15t17.5 15q-17 -1 -65 -1h-5q-41 0 -63 -0.5t-57 -3t-54 -8t-42.5 -16
t-35.5 -25.5t-20.5 -38.5t-8.5 -53.5q0 -33 19.5 -57t50.5 -24q43 0 76 32l8 -9q-44 -43 -103 -43q-49 0 -75 29.5t-26 69.5zM843 623q14 0 38.5 -13.5t39.5 -13.5q27 0 41 21l9 -3q-3 -24 -22.5 -38t-39.5 -14q-14 0 -38.5 13.5t-39.5 13.5q-27 0 -41 -21l-9 3
q3 24 22.5 38t39.5 14z" />
    <glyph glyph-name="Ograve" unicode="&#xd2;" horiz-adv-x="597" 
d="M57 111q-5 74 41.5 149.5t117 129t150 87t141.5 33.5q69 0 110 -33.5t44 -88.5q6 -91 -69.5 -186t-183 -153.5t-197.5 -58.5q-68 0 -109.5 33t-44.5 88zM502 496q-68 0 -158.5 -60.5t-157 -157.5t-61.5 -185q5 -89 92 -89q52 0 119.5 39t125.5 96.5t96.5 131.5t34.5 138
q-5 87 -91 87zM507 684q6 -28 26.5 -60.5t37.5 -47.5l-5 -6q-28 9 -64 45t-41 58q1 4 17 7.5t29 3.5z" />
    <glyph glyph-name="Oacute" unicode="&#xd3;" horiz-adv-x="597" 
d="M57 111q-5 74 41.5 149.5t117 129t150 87t141.5 33.5q69 0 110 -33.5t44 -88.5q6 -91 -69.5 -186t-183 -153.5t-197.5 -58.5q-68 0 -109.5 33t-44.5 88zM502 496q-68 0 -158.5 -60.5t-157 -157.5t-61.5 -185q5 -89 92 -89q52 0 119.5 39t125.5 96.5t96.5 131.5t34.5 138
q-5 87 -91 87zM619 681q13 0 29 -3.5t17 -7.5q-5 -22 -41 -58t-64 -45l-5 6q17 15 37.5 47.5t26.5 60.5z" />
    <glyph glyph-name="Ocircumflex" unicode="&#xd4;" horiz-adv-x="597" 
d="M57 111q-5 74 41.5 149.5t117 129t150 87t141.5 33.5q69 0 110 -33.5t44 -88.5q6 -91 -69.5 -186t-183 -153.5t-197.5 -58.5q-68 0 -109.5 33t-44.5 88zM502 496q-68 0 -158.5 -60.5t-157 -157.5t-61.5 -185q5 -89 92 -89q52 0 119.5 39t125.5 96.5t96.5 131.5t34.5 138
q-5 87 -91 87zM491 568l-10 13q58 40 111 115h15q0 -64 39 -125l-13 -7q-7 6 -24 32.5t-28 50.5q-55 -57 -90 -79z" />
    <glyph glyph-name="Otilde" unicode="&#xd5;" horiz-adv-x="597" 
d="M57 111q-5 74 41.5 149.5t117 129t150 87t141.5 33.5q69 0 110 -33.5t44 -88.5q6 -91 -69.5 -186t-183 -153.5t-197.5 -58.5q-68 0 -109.5 33t-44.5 88zM502 496q-68 0 -158.5 -60.5t-157 -157.5t-61.5 -185q5 -89 92 -89q52 0 119.5 39t125.5 96.5t96.5 131.5t34.5 138
q-5 87 -91 87zM523 623q14 0 38.5 -13.5t39.5 -13.5q27 0 41 21l9 -3q-3 -24 -22.5 -38t-39.5 -14q-14 0 -38.5 13.5t-39.5 13.5q-27 0 -41 -21l-9 3q3 24 22.5 38t39.5 14z" />
    <glyph glyph-name="Odieresis" unicode="&#xd6;" horiz-adv-x="597" 
d="M57 111q-5 74 41.5 149.5t117 129t150 87t141.5 33.5q69 0 110 -33.5t44 -88.5q6 -91 -69.5 -186t-183 -153.5t-197.5 -58.5q-68 0 -109.5 33t-44.5 88zM502 496q-68 0 -158.5 -60.5t-157 -157.5t-61.5 -185q5 -89 92 -89q52 0 119.5 39t125.5 96.5t96.5 131.5t34.5 138
q-5 87 -91 87zM520 569q-13 0 -13 16q0 18 22.5 36.5t37.5 18.5q12 0 12 -14q0 -18 -21.5 -37.5t-37.5 -19.5zM624 569q-13 0 -13 16q0 18 22.5 36.5t37.5 18.5q12 0 12 -14q0 -18 -21.5 -37.5t-37.5 -19.5z" />
    <glyph glyph-name="Oslash" unicode="&#xd8;" horiz-adv-x="597" 
d="M579 545l-26 -40q48 -10 76.5 -41t31.5 -76q6 -91 -69.5 -186t-183 -153.5t-197.5 -58.5h-3l-30 -46h-35l32 49q-53 7 -84.5 39t-33.5 79q-5 74 41.5 149.5t117 129t150 87t141.5 33.5q9 0 14 -1l24 36h34zM502 496q-68 0 -158.5 -60.5t-157 -157.5t-61.5 -185
q3 -70 60 -85l327 488h-10zM593 409q-3 62 -51 80l-324 -485q52 0 119 39t125 96.5t96.5 131.5t34.5 138z" />
    <glyph glyph-name="Ugrave" unicode="&#xd9;" horiz-adv-x="608" 
d="M-124 338q0 62 71 112t151 50q51 0 88.5 -23t37.5 -68q0 -39 -27 -82l-115 -184q-32 -47 -17.5 -92.5t68.5 -45.5q87 0 170 121q24 35 58 89.5t56 89t54 75.5t60 64.5t66.5 39.5t80.5 16q54 0 87 -19t33 -58q0 -31 -27 -57t-67 -26q-55 0 -94 38l8 9q25 -24 63 -24
q27 0 45.5 20t18.5 43q0 62 -71 62q-48 0 -110.5 -73t-143.5 -201l-89 -141q-8 -12 -12.5 -22t-5.5 -18.5t3 -13t14 -4.5q17 0 60 26l7 -12q-54 -39 -99 -39q-66 0 -45 56q-54 -56 -130 -56q-52 0 -84.5 20.5t-37.5 62t35 103.5l98 154q30 48 30 87q0 36 -22.5 54t-56.5 18
q-57 0 -108 -43.5t-51 -110.5q0 -65 56 -65q38 0 69 30l7 -8q-47 -45 -100 -45q-41 0 -61.5 29.5t-20.5 61.5zM409 684q6 -28 26.5 -60.5t37.5 -47.5l-5 -6q-28 9 -64 45t-41 58q1 4 17 7.5t29 3.5z" />
    <glyph glyph-name="Uacute" unicode="&#xda;" horiz-adv-x="608" 
d="M-124 338q0 62 71 112t151 50q51 0 88.5 -23t37.5 -68q0 -39 -27 -82l-115 -184q-32 -47 -17.5 -92.5t68.5 -45.5q87 0 170 121q24 35 58 89.5t56 89t54 75.5t60 64.5t66.5 39.5t80.5 16q54 0 87 -19t33 -58q0 -31 -27 -57t-67 -26q-55 0 -94 38l8 9q25 -24 63 -24
q27 0 45.5 20t18.5 43q0 62 -71 62q-48 0 -110.5 -73t-143.5 -201l-89 -141q-8 -12 -12.5 -22t-5.5 -18.5t3 -13t14 -4.5q17 0 60 26l7 -12q-54 -39 -99 -39q-66 0 -45 56q-54 -56 -130 -56q-52 0 -84.5 20.5t-37.5 62t35 103.5l98 154q30 48 30 87q0 36 -22.5 54t-56.5 18
q-57 0 -108 -43.5t-51 -110.5q0 -65 56 -65q38 0 69 30l7 -8q-47 -45 -100 -45q-41 0 -61.5 29.5t-20.5 61.5zM521 681q13 0 29 -3.5t17 -7.5q-5 -22 -41 -58t-64 -45l-5 6q17 15 37.5 47.5t26.5 60.5z" />
    <glyph glyph-name="Ucircumflex" unicode="&#xdb;" horiz-adv-x="608" 
d="M-124 338q0 62 71 112t151 50q51 0 88.5 -23t37.5 -68q0 -39 -27 -82l-115 -184q-32 -47 -17.5 -92.5t68.5 -45.5q87 0 170 121q24 35 58 89.5t56 89t54 75.5t60 64.5t66.5 39.5t80.5 16q54 0 87 -19t33 -58q0 -31 -27 -57t-67 -26q-55 0 -94 38l8 9q25 -24 63 -24
q27 0 45.5 20t18.5 43q0 62 -71 62q-48 0 -110.5 -73t-143.5 -201l-89 -141q-8 -12 -12.5 -22t-5.5 -18.5t3 -13t14 -4.5q17 0 60 26l7 -12q-54 -39 -99 -39q-66 0 -45 56q-54 -56 -130 -56q-52 0 -84.5 20.5t-37.5 62t35 103.5l98 154q30 48 30 87q0 36 -22.5 54t-56.5 18
q-57 0 -108 -43.5t-51 -110.5q0 -65 56 -65q38 0 69 30l7 -8q-47 -45 -100 -45q-41 0 -61.5 29.5t-20.5 61.5zM393 568l-10 13q58 40 111 115h15q0 -64 39 -125l-13 -7q-7 6 -24 32.5t-28 50.5q-55 -57 -90 -79z" />
    <glyph glyph-name="Udieresis" unicode="&#xdc;" horiz-adv-x="608" 
d="M-124 338q0 62 71 112t151 50q51 0 88.5 -23t37.5 -68q0 -39 -27 -82l-115 -184q-32 -47 -17.5 -92.5t68.5 -45.5q87 0 170 121q24 35 58 89.5t56 89t54 75.5t60 64.5t66.5 39.5t80.5 16q54 0 87 -19t33 -58q0 -31 -27 -57t-67 -26q-55 0 -94 38l8 9q25 -24 63 -24
q27 0 45.5 20t18.5 43q0 62 -71 62q-48 0 -110.5 -73t-143.5 -201l-89 -141q-8 -12 -12.5 -22t-5.5 -18.5t3 -13t14 -4.5q17 0 60 26l7 -12q-54 -39 -99 -39q-66 0 -45 56q-54 -56 -130 -56q-52 0 -84.5 20.5t-37.5 62t35 103.5l98 154q30 48 30 87q0 36 -22.5 54t-56.5 18
q-57 0 -108 -43.5t-51 -110.5q0 -65 56 -65q38 0 69 30l7 -8q-47 -45 -100 -45q-41 0 -61.5 29.5t-20.5 61.5zM392 569q-13 0 -13 16q0 18 22.5 36.5t37.5 18.5q12 0 12 -14q0 -18 -21.5 -37.5t-37.5 -19.5zM496 569q-13 0 -13 16q0 18 22.5 36.5t37.5 18.5q12 0 12 -14
q0 -18 -21.5 -37.5t-37.5 -19.5z" />
    <glyph glyph-name="Yacute" unicode="&#xdd;" horiz-adv-x="551" 
d="M244 330q35 56 35 98q0 60 -75 60q-81 0 -129 -39.5t-48 -108.5q0 -33 19.5 -57t50.5 -24q43 0 76 32l8 -9q-44 -43 -103 -43q-49 0 -75 29.5t-26 69.5q0 52 37.5 90.5t88.5 55t105 16.5q51 0 88.5 -23t37.5 -68q0 -39 -27 -82l-115 -184q-21 -33 -21 -67
q0 -31 18.5 -50.5t53.5 -19.5q88 0 170 120q24 35 58 89.5t56 89t54 75.5t60 64.5t66.5 39.5t80.5 16q59 0 91.5 -20.5t32.5 -52.5q0 -29 -26 -53t-72 -24q-55 0 -94 38l8 9q25 -24 63 -24q40 0 56.5 29t-2 57.5t-61.5 28.5q-48 0 -111.5 -74t-142.5 -200l-183 -291
q-95 -151 -213.5 -237t-224.5 -86q-53 0 -101 23.5t-48 74.5q0 48 40 88t97.5 66t136.5 47t140.5 31t127.5 18l66 104q-56 -62 -135 -62q-58 0 -87 25t-29 67t29 94zM-89 -388q67 0 143.5 52.5t132.5 118t95 133.5l11 19q-50 -7 -97 -16t-105 -23t-105.5 -33t-88.5 -43.5
t-64 -57t-23 -69.5q0 -42 30.5 -61.5t70.5 -19.5zM622 681q13 0 29 -3.5t17 -7.5q-5 -22 -41 -58t-64 -45l-5 6q17 15 37.5 47.5t26.5 60.5z" />
    <glyph glyph-name="Thorn" unicode="&#xde;" horiz-adv-x="875" 
d="M590 231l-1 12q56 3 96 34t40 89q0 59 -50 90q-97 -169 -133.5 -228.5t-70.5 -99.5q-54 -62 -130.5 -100t-157.5 -38q-58 0 -98.5 22.5t-40.5 71.5q0 42 28.5 71t78.5 29q57 0 77 -43l-10 -5q-17 27 -51 27q-30 0 -51.5 -23t-21.5 -57q0 -79 96 -79q35 0 66 9t56 23
t51 41t45.5 53t46.5 69.5t47.5 79t54 93.5t60.5 103q0 1 2 3q-37 8 -75 8q-58 0 -111 -16.5t-92.5 -57.5t-39.5 -99q0 -27 19.5 -51.5t51.5 -24.5q42 0 68 25l8 -9q-42 -42 -98 -42q-48 0 -73.5 28.5t-25.5 67.5q0 60 49 105.5t114.5 66.5t129.5 21q41 0 84 -7
q45 70 98 108.5t129 38.5h8v-12q-56 -2 -95 -39.5t-80 -109.5q112 -35 112 -116q0 -57 -59.5 -91.5t-150.5 -40.5z" />
    <glyph glyph-name="agrave" unicode="&#xe0;" 
d="M154 -10q-24 0 -32 18t5 38q-60 -56 -118 -56q-19 0 -30 13t-11 33q0 67 80 135.5t152 68.5q37 0 52 -24q28 12 51 35l11 -4l-122 -194q-16 -33 7 -30q17 3 46 22l7 -8q-59 -47 -98 -47zM56 25q28 0 63.5 32t68.5 85q29 48 29 61q0 24 -23 24q-48 0 -104.5 -61
t-56.5 -111q0 -30 23 -30zM187 415q6 -28 26.5 -60.5t37.5 -47.5l-5 -6q-28 9 -64 45t-41 58q1 4 17 7.5t29 3.5z" />
    <glyph glyph-name="aacute" unicode="&#xe1;" 
d="M154 -10q-24 0 -32 18t5 38q-60 -56 -118 -56q-19 0 -30 13t-11 33q0 67 80 135.5t152 68.5q37 0 52 -24q28 12 51 35l11 -4l-122 -194q-16 -33 7 -30q17 3 46 22l7 -8q-59 -47 -98 -47zM56 25q28 0 63.5 32t68.5 85q29 48 29 61q0 24 -23 24q-48 0 -104.5 -61
t-56.5 -111q0 -30 23 -30zM299 412q13 0 29 -3.5t17 -7.5q-5 -22 -41 -58t-64 -45l-5 6q17 15 37.5 47.5t26.5 60.5z" />
    <glyph glyph-name="acircumflex" unicode="&#xe2;" 
d="M154 -10q-24 0 -32 18t5 38q-60 -56 -118 -56q-19 0 -30 13t-11 33q0 67 80 135.5t152 68.5q37 0 52 -24q28 12 51 35l11 -4l-122 -194q-16 -33 7 -30q17 3 46 22l7 -8q-59 -47 -98 -47zM56 25q28 0 63.5 32t68.5 85q29 48 29 61q0 24 -23 24q-48 0 -104.5 -61
t-56.5 -111q0 -30 23 -30zM171 299l-10 13q58 40 111 115h15q0 -64 39 -125l-13 -7q-7 6 -24 32.5t-28 50.5q-55 -57 -90 -79z" />
    <glyph glyph-name="atilde" unicode="&#xe3;" 
d="M154 -10q-24 0 -32 18t5 38q-60 -56 -118 -56q-19 0 -30 13t-11 33q0 67 80 135.5t152 68.5q37 0 52 -24q28 12 51 35l11 -4l-122 -194q-16 -33 7 -30q17 3 46 22l7 -8q-59 -47 -98 -47zM56 25q28 0 63.5 32t68.5 85q29 48 29 61q0 24 -23 24q-48 0 -104.5 -61
t-56.5 -111q0 -30 23 -30zM203 354q14 0 38.5 -13.5t39.5 -13.5q27 0 41 21l9 -3q-3 -24 -22.5 -38t-39.5 -14q-14 0 -38.5 13.5t-39.5 13.5q-27 0 -41 -21l-9 3q3 24 22.5 38t39.5 14z" />
    <glyph glyph-name="adieresis" unicode="&#xe4;" 
d="M154 -10q-24 0 -32 18t5 38q-60 -56 -118 -56q-19 0 -30 13t-11 33q0 67 80 135.5t152 68.5q37 0 52 -24q28 12 51 35l11 -4l-122 -194q-16 -33 7 -30q17 3 46 22l7 -8q-59 -47 -98 -47zM56 25q28 0 63.5 32t68.5 85q29 48 29 61q0 24 -23 24q-48 0 -104.5 -61
t-56.5 -111q0 -30 23 -30zM200 300q-13 0 -13 16q0 18 22.5 36.5t37.5 18.5q12 0 12 -14q0 -18 -21.5 -37.5t-37.5 -19.5zM304 300q-13 0 -13 16q0 18 22.5 36.5t37.5 18.5q12 0 12 -14q0 -18 -21.5 -37.5t-37.5 -19.5z" />
    <glyph glyph-name="aring" unicode="&#xe5;" 
d="M154 -10q-24 0 -32 18t5 38q-60 -56 -118 -56q-19 0 -30 13t-11 33q0 67 80 135.5t152 68.5q37 0 52 -24q28 12 51 35l11 -4l-122 -194q-16 -33 7 -30q17 3 46 22l7 -8q-59 -47 -98 -47zM56 25q28 0 63.5 32t68.5 85q29 48 29 61q0 24 -23 24q-48 0 -104.5 -61
t-56.5 -111q0 -30 23 -30zM292 387q16 0 27 -7.5t11 -18.5q0 -24 -31.5 -42.5t-60.5 -18.5q-16 0 -26.5 7t-10.5 18q0 25 31 43.5t60 18.5zM285 375q-19 0 -37 -13t-18 -33q0 -16 16 -16q19 0 37 13.5t18 32.5q0 16 -16 16z" />
    <glyph glyph-name="ae" unicode="&#xe6;" horiz-adv-x="490" 
d="M385 68l7 -10q-105 -68 -184 -68q-69 0 -69 47q0 16 6 34q-25 -25 -41.5 -39t-45 -28t-57.5 -14q-19 0 -30 13t-11 33q0 67 80 135.5t152 68.5q37 0 52 -24q28 12 51 35l11 -4l-34 -38q54 31 99 31q69 0 69 -40q0 -84 -230 -111q-6 -18 -6 -34q0 -30 43 -30q57 0 138 43z
M48 30q27 0 63.5 30.5t68.5 81.5q19 32 19 56t-23 24q-47 0 -99 -58t-52 -109q0 -25 23 -25zM218 106q18 1 43 7t51.5 16.5t44.5 28.5t18 40q0 23 -20 23q-37 0 -76.5 -35.5t-60.5 -79.5z" />
    <glyph glyph-name="ccedilla" unicode="&#xe7;" horiz-adv-x="294" 
d="M-49 -94q17 -10 43.5 -15.5t50.5 3t24 35.5q0 13 -10.5 24t-28.5 12l21 25h-8q-68 0 -68 47q0 67 80.5 135t151.5 68q45 0 57 -34l-51 -52l-9 6q10 22 10 38q0 23 -23 23q-48 0 -99.5 -57.5t-51.5 -108.5q0 -30 43 -30q46 0 127 43l6 -10q-83 -55 -138 -64l-5 -7
q26 -4 39.5 -19.5t13.5 -32.5q0 -41 -36.5 -57t-80.5 -9t-71 26z" />
    <glyph glyph-name="egrave" unicode="&#xe8;" horiz-adv-x="311" 
d="M211 68l7 -10q-105 -68 -184 -68q-69 0 -69 47q0 65 74.5 134t147.5 69q59 0 59 -40q0 -86 -210 -111q-6 -18 -6 -34q0 -30 43 -30q57 0 138 43zM44 106q18 1 41.5 7t48 16.5t41 28.5t16.5 40q0 23 -20 23q-36 0 -70.5 -34t-56.5 -81zM183 414q6 -28 26.5 -60.5
t37.5 -47.5l-5 -6q-28 9 -64 45t-41 58q1 4 17 7.5t29 3.5z" />
    <glyph glyph-name="eacute" unicode="&#xe9;" horiz-adv-x="311" 
d="M211 68l7 -10q-105 -68 -184 -68q-69 0 -69 47q0 65 74.5 134t147.5 69q59 0 59 -40q0 -86 -210 -111q-6 -18 -6 -34q0 -30 43 -30q57 0 138 43zM44 106q18 1 41.5 7t48 16.5t41 28.5t16.5 40q0 23 -20 23q-36 0 -70.5 -34t-56.5 -81zM295 411q13 0 29 -3.5t17 -7.5
q-5 -22 -41 -58t-64 -45l-5 6q17 15 37.5 47.5t26.5 60.5z" />
    <glyph glyph-name="ecircumflex" unicode="&#xea;" horiz-adv-x="311" 
d="M211 68l7 -10q-105 -68 -184 -68q-69 0 -69 47q0 65 74.5 134t147.5 69q59 0 59 -40q0 -86 -210 -111q-6 -18 -6 -34q0 -30 43 -30q57 0 138 43zM44 106q18 1 41.5 7t48 16.5t41 28.5t16.5 40q0 23 -20 23q-36 0 -70.5 -34t-56.5 -81zM167 298l-10 13q58 40 111 115h15
q0 -64 39 -125l-13 -7q-7 6 -24 32.5t-28 50.5q-55 -57 -90 -79z" />
    <glyph glyph-name="edieresis" unicode="&#xeb;" horiz-adv-x="311" 
d="M211 68l7 -10q-105 -68 -184 -68q-69 0 -69 47q0 65 74.5 134t147.5 69q59 0 59 -40q0 -86 -210 -111q-6 -18 -6 -34q0 -30 43 -30q57 0 138 43zM44 106q18 1 41.5 7t48 16.5t41 28.5t16.5 40q0 23 -20 23q-36 0 -70.5 -34t-56.5 -81zM196 299q-13 0 -13 16
q0 18 22.5 36.5t37.5 18.5q12 0 12 -14q0 -18 -21.5 -37.5t-37.5 -19.5zM300 299q-13 0 -13 16q0 18 22.5 36.5t37.5 18.5q12 0 12 -14q0 -18 -21.5 -37.5t-37.5 -19.5z" />
    <glyph glyph-name="igrave" unicode="&#xec;" horiz-adv-x="180" 
d="M-5 -10q-24 0 -31.5 18.5t5.5 38.5l103 164q36 5 71 40l11 -4l-113 -181q-27 -45 -3 -43q16 1 48 22l7 -8q-59 -47 -98 -47zM112 414q6 -28 26.5 -60.5t37.5 -47.5l-5 -6q-28 9 -64 45t-41 58q1 4 17 7.5t29 3.5z" />
    <glyph glyph-name="iacute" unicode="&#xed;" horiz-adv-x="180" 
d="M-5 -10q-24 0 -31.5 18.5t5.5 38.5l103 164q36 5 71 40l11 -4l-113 -181q-27 -45 -3 -43q16 1 48 22l7 -8q-59 -47 -98 -47zM224 411q13 0 29 -3.5t17 -7.5q-5 -22 -41 -58t-64 -45l-5 6q17 15 37.5 47.5t26.5 60.5z" />
    <glyph glyph-name="icircumflex" unicode="&#xee;" horiz-adv-x="180" 
d="M-5 -10q-24 0 -31.5 18.5t5.5 38.5l103 164q36 5 71 40l11 -4l-113 -181q-27 -45 -3 -43q16 1 48 22l7 -8q-59 -47 -98 -47zM96 298l-10 13q58 40 111 115h15q0 -64 39 -125l-13 -7q-7 6 -24 32.5t-28 50.5q-55 -57 -90 -79z" />
    <glyph glyph-name="idieresis" unicode="&#xef;" horiz-adv-x="180" 
d="M-5 -10q-24 0 -31.5 18.5t5.5 38.5l103 164q36 5 71 40l11 -4l-113 -181q-27 -45 -3 -43q16 1 48 22l7 -8q-59 -47 -98 -47zM125 299q-13 0 -13 16q0 18 22.5 36.5t37.5 18.5q12 0 12 -14q0 -18 -21.5 -37.5t-37.5 -19.5zM229 299q-13 0 -13 16q0 18 22.5 36.5t37.5 18.5
q12 0 12 -14q0 -18 -21.5 -37.5t-37.5 -19.5z" />
    <glyph glyph-name="eth" unicode="&#xf0;" horiz-adv-x="338" 
d="M214 327l10 18h100l33 52q49 78 121.5 140.5t137.5 62.5q45 0 57 -34l-51 -52h-12q13 24 13 44q0 23 -23 23q-14 0 -29 -6t-27.5 -13.5t-27.5 -23.5t-24.5 -27t-24 -32t-21 -31t-21 -33t-17.5 -28l-26 -42h93l-10 -18h-94l-171 -274q-17 -33 5 -31q16 2 47 23l7 -8
q-59 -47 -98 -47q-24 0 -32 18t5 38q-60 -56 -118 -56q-19 0 -30 13t-11 33q0 67 80 135.5t152 68.5q27 0 42 -12l64 99h-99zM63 30q27 0 63.5 30.5t68.5 81.5q19 32 19 56t-23 24q-47 0 -99 -58t-52 -109q0 -25 23 -25z" />
    <glyph glyph-name="ntilde" unicode="&#xf1;" 
d="M94 240q24 0 31.5 -18.5t-5.5 -38.5l-2 -3q63 60 121 60q16 0 29 -9t13 -31q0 -27 -22 -61l-45 -73q-27 -45 -3 -43q16 1 48 22l7 -8q-59 -47 -98 -47q-24 0 -31.5 18.5t5.5 38.5l63 101q17 30 17 43q0 16 -17 16q-72 0 -143 -117l-57 -91q-6 -9 -12 -9q-8 0 -13 11
t-5 21q0 28 25 65l48 77q27 45 3 43q-16 -1 -48 -22l-7 8q59 47 98 47zM227 353q14 0 38.5 -13.5t39.5 -13.5q27 0 41 21l9 -3q-3 -24 -22.5 -38t-39.5 -14q-14 0 -38.5 13.5t-39.5 13.5q-27 0 -41 -21l-9 3q3 24 22.5 38t39.5 14z" />
    <glyph glyph-name="ograve" unicode="&#xf2;" horiz-adv-x="327" 
d="M-19 54q-3 68 73 129.5t149 61.5q69 0 71 -63q2 -68 -72.5 -130t-148.5 -62q-70 0 -72 64zM196 233q-48 0 -105.5 -76t-55.5 -127q2 -28 24 -28q39 0 100 75t60 129q-2 27 -23 27zM192 414q6 -28 26.5 -60.5t37.5 -47.5l-5 -6q-28 9 -64 45t-41 58q1 4 17 7.5t29 3.5z
" />
    <glyph glyph-name="oacute" unicode="&#xf3;" horiz-adv-x="327" 
d="M-19 54q-3 68 73 129.5t149 61.5q69 0 71 -63q2 -68 -72.5 -130t-148.5 -62q-70 0 -72 64zM196 233q-48 0 -105.5 -76t-55.5 -127q2 -28 24 -28q39 0 100 75t60 129q-2 27 -23 27zM304 411q13 0 29 -3.5t17 -7.5q-5 -22 -41 -58t-64 -45l-5 6q17 15 37.5 47.5t26.5 60.5z
" />
    <glyph glyph-name="ocircumflex" unicode="&#xf4;" horiz-adv-x="327" 
d="M-19 54q-3 68 73 129.5t149 61.5q69 0 71 -63q2 -68 -72.5 -130t-148.5 -62q-70 0 -72 64zM196 233q-48 0 -105.5 -76t-55.5 -127q2 -28 24 -28q39 0 100 75t60 129q-2 27 -23 27zM176 298l-10 13q58 40 111 115h15q0 -64 39 -125l-13 -7q-7 6 -24 32.5t-28 50.5
q-55 -57 -90 -79z" />
    <glyph glyph-name="otilde" unicode="&#xf5;" horiz-adv-x="327" 
d="M-19 54q-3 68 73 129.5t149 61.5q69 0 71 -63q2 -68 -72.5 -130t-148.5 -62q-70 0 -72 64zM196 233q-48 0 -105.5 -76t-55.5 -127q2 -28 24 -28q39 0 100 75t60 129q-2 27 -23 27zM208 353q14 0 38.5 -13.5t39.5 -13.5q27 0 41 21l9 -3q-3 -24 -22.5 -38t-39.5 -14
q-14 0 -38.5 13.5t-39.5 13.5q-27 0 -41 -21l-9 3q3 24 22.5 38t39.5 14z" />
    <glyph glyph-name="odieresis" unicode="&#xf6;" horiz-adv-x="327" 
d="M-19 54q-3 68 73 129.5t149 61.5q69 0 71 -63q2 -68 -72.5 -130t-148.5 -62q-70 0 -72 64zM196 233q-48 0 -105.5 -76t-55.5 -127q2 -28 24 -28q39 0 100 75t60 129q-2 27 -23 27zM182 299q-13 0 -13 16q0 18 22.5 36.5t37.5 18.5q12 0 12 -14q0 -18 -21.5 -37.5
t-37.5 -19.5zM286 299q-13 0 -13 16q0 18 22.5 36.5t37.5 18.5q12 0 12 -14q0 -18 -21.5 -37.5t-37.5 -19.5z" />
    <glyph glyph-name="oslash" unicode="&#xf8;" horiz-adv-x="327" 
d="M-22 54q0 65 73 124.5t146 65.5l37 56h34l-38 -57q47 -10 47 -61q0 -65 -71 -125t-145 -66l-40 -60h-34l41 61q-50 9 -50 62zM33 30q0 -15 6 -21l148 221q-48 -11 -101 -82t-53 -118zM222 206q0 10 -5 18l-145 -218q43 17 96.5 84.5t53.5 115.5z" />
    <glyph glyph-name="ugrave" unicode="&#xf9;" horiz-adv-x="346" 
d="M199 140l27 44q33 56 70 56q15 0 15 -12q0 -3 -2 -9l-96 -153q-27 -45 -3 -43q16 1 48 22l7 -8q-59 -47 -98 -47q-24 0 -31.5 18.5t6.5 40.5q-63 -59 -120 -59q-16 0 -29 9t-13 31q0 27 22 61l45 73q27 45 3 43q-16 -1 -48 -22l-7 8q59 47 98 47q24 0 31.5 -18.5
t-5.5 -38.5l-63 -101q-17 -30 -17 -43q0 -16 17 -16q72 0 143 117zM181 414q6 -28 26.5 -60.5t37.5 -47.5l-5 -6q-28 9 -64 45t-41 58q1 4 17 7.5t29 3.5z" />
    <glyph glyph-name="uacute" unicode="&#xfa;" horiz-adv-x="346" 
d="M199 140l27 44q33 56 70 56q15 0 15 -12q0 -3 -2 -9l-96 -153q-27 -45 -3 -43q16 1 48 22l7 -8q-59 -47 -98 -47q-24 0 -31.5 18.5t6.5 40.5q-63 -59 -120 -59q-16 0 -29 9t-13 31q0 27 22 61l45 73q27 45 3 43q-16 -1 -48 -22l-7 8q59 47 98 47q24 0 31.5 -18.5
t-5.5 -38.5l-63 -101q-17 -30 -17 -43q0 -16 17 -16q72 0 143 117zM293 411q13 0 29 -3.5t17 -7.5q-5 -22 -41 -58t-64 -45l-5 6q17 15 37.5 47.5t26.5 60.5z" />
    <glyph glyph-name="ucircumflex" unicode="&#xfb;" horiz-adv-x="346" 
d="M199 140l27 44q33 56 70 56q15 0 15 -12q0 -3 -2 -9l-96 -153q-27 -45 -3 -43q16 1 48 22l7 -8q-59 -47 -98 -47q-24 0 -31.5 18.5t6.5 40.5q-63 -59 -120 -59q-16 0 -29 9t-13 31q0 27 22 61l45 73q27 45 3 43q-16 -1 -48 -22l-7 8q59 47 98 47q24 0 31.5 -18.5
t-5.5 -38.5l-63 -101q-17 -30 -17 -43q0 -16 17 -16q72 0 143 117zM165 298l-10 13q58 40 111 115h15q0 -64 39 -125l-13 -7q-7 6 -24 32.5t-28 50.5q-55 -57 -90 -79z" />
    <glyph glyph-name="udieresis" unicode="&#xfc;" horiz-adv-x="346" 
d="M199 140l27 44q33 56 70 56q15 0 15 -12q0 -3 -2 -9l-96 -153q-27 -45 -3 -43q16 1 48 22l7 -8q-59 -47 -98 -47q-24 0 -31.5 18.5t6.5 40.5q-63 -59 -120 -59q-16 0 -29 9t-13 31q0 27 22 61l45 73q27 45 3 43q-16 -1 -48 -22l-7 8q59 47 98 47q24 0 31.5 -18.5
t-5.5 -38.5l-63 -101q-17 -30 -17 -43q0 -16 17 -16q72 0 143 117zM194 299q-13 0 -13 16q0 18 22.5 36.5t37.5 18.5q12 0 12 -14q0 -18 -21.5 -37.5t-37.5 -19.5zM298 299q-13 0 -13 16q0 18 22.5 36.5t37.5 18.5q12 0 12 -14q0 -18 -21.5 -37.5t-37.5 -19.5z" />
    <glyph glyph-name="yacute" unicode="&#xfd;" horiz-adv-x="326" 
d="M291 240q15 0 15 -12q0 -3 -2 -9l-163 -263q21 2 60 2q104 0 163.5 -40.5t59.5 -94.5q0 -49 -50 -83.5t-141 -34.5q-81 0 -127 24l7 9q45 -21 117 -21q64 0 107.5 22.5t43.5 72.5q0 64 -66.5 93.5t-160.5 29.5q-4 0 -13 -0.5t-14 -0.5l-7 -11q-94 -151 -213 -237
t-225 -86q-23 0 -48 5t-51 15t-43 30.5t-17 47.5q0 177 553 251l56 89l10 17q-63 -62 -123 -62q-16 0 -29 9t-13 31q0 27 22 61l48 77q21 38 -2 36q-16 -1 -47 -22l-7 8q59 47 98 47q24 0 31.5 -18.5t-5.5 -38.5l-62 -98q-17 -30 -17 -43q0 -16 17 -16q72 0 143 117l5 8
l21 33q33 56 69 56zM-316 -388q51 0 107 30t105 78.5t88.5 97t70.5 98.5l9 13q-45 -5 -88 -12t-102 -19.5t-107 -31t-91.5 -42.5t-68 -58t-24.5 -73q0 -42 30.5 -61.5t70.5 -19.5zM274 411q13 0 29 -3.5t17 -7.5q-5 -22 -41 -58t-64 -45l-5 6q17 15 37.5 47.5t26.5 60.5z
" />
    <glyph glyph-name="thorn" unicode="&#xfe;" horiz-adv-x="306" 
d="M-65 319q94 151 213 237t225 86q53 0 101 -23.5t48 -74.5q0 -48 -40 -88t-97.5 -66t-136.5 -47t-140.5 -31t-127.5 -18l-77 -121q65 67 124 67q22 0 34.5 -12.5t12.5 -33.5q0 -64 -79.5 -134t-152.5 -70q-26 0 -43 13l-8 -12q-94 -151 -213 -237t-225 -86
q-53 0 -101 23.5t-48 74.5q0 48 40 88t97.5 66t136.5 47t140.5 31t127.5 18q67 106 189 303zM371 630q-51 0 -107 -30t-105 -78.5t-88.5 -97t-70.5 -98.5l-12 -18q62 9 118 19.5t126.5 31t120.5 45.5t84.5 63t34.5 82q0 42 -30.5 61.5t-70.5 19.5zM-645 -320q51 0 107 30
t105 78.5t88.5 97t70.5 98.5l12 18q-79 -10 -151.5 -26t-153.5 -44t-130 -72t-49 -99q0 -42 30.5 -61.5t70.5 -19.5zM-14 200q-26 0 -62 -29t-62 -68l-10 -15q-18 -33 -18 -55q0 -24 23 -24q50 0 101 60.5t51 107.5q0 23 -23 23z" />
    <glyph glyph-name="ydieresis" unicode="&#xff;" horiz-adv-x="326" 
d="M291 240q15 0 15 -12q0 -3 -2 -9l-163 -263q21 2 60 2q104 0 163.5 -40.5t59.5 -94.5q0 -49 -50 -83.5t-141 -34.5q-81 0 -127 24l7 9q45 -21 117 -21q64 0 107.5 22.5t43.5 72.5q0 64 -66.5 93.5t-160.5 29.5q-4 0 -13 -0.5t-14 -0.5l-7 -11q-94 -151 -213 -237
t-225 -86q-23 0 -48 5t-51 15t-43 30.5t-17 47.5q0 177 553 251l56 89l10 17q-63 -62 -123 -62q-16 0 -29 9t-13 31q0 27 22 61l48 77q21 38 -2 36q-16 -1 -47 -22l-7 8q59 47 98 47q24 0 31.5 -18.5t-5.5 -38.5l-62 -98q-17 -30 -17 -43q0 -16 17 -16q72 0 143 117l5 8
l21 33q33 56 69 56zM-316 -388q51 0 107 30t105 78.5t88.5 97t70.5 98.5l9 13q-45 -5 -88 -12t-102 -19.5t-107 -31t-91.5 -42.5t-68 -58t-24.5 -73q0 -42 30.5 -61.5t70.5 -19.5zM171 299q-13 0 -13 16q0 18 22.5 36.5t37.5 18.5q12 0 12 -14q0 -18 -21.5 -37.5
t-37.5 -19.5zM275 299q-13 0 -13 16q0 18 22.5 36.5t37.5 18.5q12 0 12 -14q0 -18 -21.5 -37.5t-37.5 -19.5z" />
    <glyph glyph-name="Amacron" unicode="&#x100;" horiz-adv-x="914" 
d="M274 311q0 169 364 172q76 0 104 1q27 1 89.5 6.5t121.5 9.5l6 -9q-90 -57 -172 -170t-82 -211q0 -42 19 -69t59 -27q33 0 55 21l9 -7q-26 -38 -85 -38q-54 0 -88 32.5t-34 76.5q0 75 44 153h-106q-82 -91 -121 -124q-71 -61 -166.5 -99.5t-176.5 -38.5q-58 0 -98.5 22.5
t-40.5 71.5q0 42 28.5 71t78.5 29q57 0 77 -43l-10 -5q-17 27 -51 27q-30 0 -51.5 -23t-21.5 -57q0 -79 96 -79q173 0 366 218q5 6 24 27.5t25 28.5t23.5 26.5t26 27.5t25 25t27 25.5t26 22t28.5 22.5t28.5 18.5t30.5 17.5q-27 -5 -148 -5q-47 0 -73 -1t-64 -5t-59 -13
t-42.5 -24.5t-31 -41t-9.5 -60.5q0 -33 19.5 -57t50.5 -24q43 0 76 32l8 -9q-44 -43 -103 -43q-49 0 -75 29.5t-26 69.5zM911 480q-47 -1 -89.5 -17.5t-84.5 -51t-70 -63t-73 -78.5h101q39 62 96 118.5t120 91.5zM541 589h-178l15 21h178z" />
    <glyph glyph-name="amacron" unicode="&#x101;" 
d="M154 -10q-24 0 -32 18t5 38q-60 -56 -118 -56q-19 0 -30 13t-11 33q0 67 80 135.5t152 68.5q37 0 52 -24q28 12 51 35l11 -4l-122 -194q-16 -33 7 -30q17 3 46 22l7 -8q-59 -47 -98 -47zM56 25q28 0 63.5 32t68.5 85q29 48 29 61q0 24 -23 24q-48 0 -104.5 -61
t-56.5 -111q0 -30 23 -30zM327 300h-178l15 21h178z" />
    <glyph glyph-name="Abreve" unicode="&#x102;" horiz-adv-x="914" 
d="M274 311q0 169 364 172q76 0 104 1q27 1 89.5 6.5t121.5 9.5l6 -9q-90 -57 -172 -170t-82 -211q0 -42 19 -69t59 -27q33 0 55 21l9 -7q-26 -38 -85 -38q-54 0 -88 32.5t-34 76.5q0 75 44 153h-106q-82 -91 -121 -124q-71 -61 -166.5 -99.5t-176.5 -38.5q-58 0 -98.5 22.5
t-40.5 71.5q0 42 28.5 71t78.5 29q57 0 77 -43l-10 -5q-17 27 -51 27q-30 0 -51.5 -23t-21.5 -57q0 -79 96 -79q173 0 366 218q5 6 24 27.5t25 28.5t23.5 26.5t26 27.5t25 25t27 25.5t26 22t28.5 22.5t28.5 18.5t30.5 17.5q-27 -5 -148 -5q-47 0 -73 -1t-64 -5t-59 -13
t-42.5 -24.5t-31 -41t-9.5 -60.5q0 -33 19.5 -57t50.5 -24q43 0 76 32l8 -9q-44 -43 -103 -43q-49 0 -75 29.5t-26 69.5zM911 480q-47 -1 -89.5 -17.5t-84.5 -51t-70 -63t-73 -78.5h101q39 62 96 118.5t120 91.5zM896 595q36 0 74 37h20q-42 -62 -97 -62q-27 0 -47.5 17
t-20.5 45h20q6 -37 51 -37z" />
    <glyph glyph-name="abreve" unicode="&#x103;" 
d="M154 -10q-24 0 -32 18t5 38q-60 -56 -118 -56q-19 0 -30 13t-11 33q0 67 80 135.5t152 68.5q37 0 52 -24q28 12 51 35l11 -4l-122 -194q-16 -33 7 -30q17 3 46 22l7 -8q-59 -47 -98 -47zM56 25q28 0 63.5 32t68.5 85q29 48 29 61q0 24 -23 24q-48 0 -104.5 -61
t-56.5 -111q0 -30 23 -30zM244 326q36 0 74 37h20q-42 -62 -97 -62q-27 0 -47.5 16.5t-20.5 45.5h20q6 -37 51 -37z" />
    <glyph glyph-name="Aogonek" unicode="&#x104;" horiz-adv-x="914" 
d="M816 -74l9 -6q-7 -19 -27.5 -31.5t-42.5 -12.5q-18 0 -31.5 10.5t-13.5 31.5q0 38 42 73q-50 3 -81 34.5t-31 73.5q0 75 44 153h-106q-82 -91 -121 -124q-71 -61 -166.5 -99.5t-176.5 -38.5q-58 0 -98.5 22.5t-40.5 71.5q0 42 28.5 71t78.5 29q57 0 77 -43l-10 -5
q-17 27 -51 27q-30 0 -51.5 -23t-21.5 -57q0 -79 96 -79q173 0 366 218q5 6 24 27.5t25 28.5t23.5 26.5t26 27.5t25 25t27 25.5t26 22t28.5 22.5t28.5 18.5t30.5 17.5q-27 -5 -148 -5q-47 0 -73 -1t-64 -5t-59 -13t-42.5 -24.5t-31 -41t-9.5 -60.5q0 -33 19.5 -57t50.5 -24
q43 0 76 32l8 -9q-44 -43 -103 -43q-49 0 -75 29.5t-26 69.5q0 169 364 172q76 0 104 1q27 1 89.5 6.5t121.5 9.5l6 -9q-90 -57 -172 -170t-82 -211q0 -42 19 -69t59 -27q33 0 55 21l9 -7q-23 -34 -75 -38q-25 -27 -25 -52q0 -31 26 -31q24 0 43 19zM911 480
q-47 -1 -89.5 -17.5t-84.5 -51t-70 -63t-73 -78.5h101q39 62 96 118.5t120 91.5z" />
    <glyph glyph-name="aogonek" unicode="&#x105;" 
d="M154 -10q-24 0 -32 18t5 38q-60 -56 -118 -56q-19 0 -30 13t-11 33q0 67 80 135.5t152 68.5q37 0 52 -24q28 12 51 35l11 -4l-122 -194q-16 -33 7 -30q17 3 46 22l7 -8q-59 -47 -98 -47zM56 25q28 0 63.5 32t68.5 85q29 48 29 61q0 24 -23 24q-48 0 -104.5 -61
t-56.5 -111q0 -30 23 -30zM307 -74l9 -6q-7 -19 -27.5 -31.5t-42.5 -12.5q-18 0 -31.5 10.5t-13.5 31.5q0 46 63 87h14q-40 -40 -40 -67q0 -31 26 -31q24 0 43 19z" />
    <glyph glyph-name="Cacute" unicode="&#x106;" horiz-adv-x="495" 
d="M524 447q0 -68 -113 -84l-4 11q22 5 44 26t22 45q0 18 -13.5 29.5t-39.5 11.5q-48 0 -111.5 -33t-119.5 -83.5t-95 -117.5t-39 -128q0 -111 121 -111q57 0 122.5 24.5t109.5 57.5l9 -11q-45 -41 -120.5 -67.5t-146.5 -26.5q-74 0 -122 32.5t-48 100.5q0 67 44.5 136.5
t110.5 121.5t144.5 85.5t145.5 33.5q41 0 70 -13t29 -40zM528 681q13 0 29 -3.5t17 -7.5q-5 -22 -41 -58t-64 -45l-5 6q17 15 37.5 47.5t26.5 60.5z" />
    <glyph glyph-name="cacute" unicode="&#x107;" horiz-adv-x="294" 
d="M210 68l6 -10q-105 -68 -173 -68t-68 47q0 67 80.5 135t151.5 68q45 0 57 -34l-51 -52l-9 6q10 22 10 38q0 23 -23 23q-48 0 -99.5 -57.5t-51.5 -108.5q0 -30 43 -30q46 0 127 43zM298 411q13 0 29 -3.5t17 -7.5q-5 -22 -41 -58t-64 -45l-5 6q17 15 37.5 47.5t26.5 60.5z
" />
    <glyph glyph-name="Ccircumflex" unicode="&#x108;" horiz-adv-x="495" 
d="M524 447q0 -68 -113 -84l-4 11q22 5 44 26t22 45q0 18 -13.5 29.5t-39.5 11.5q-48 0 -111.5 -33t-119.5 -83.5t-95 -117.5t-39 -128q0 -111 121 -111q57 0 122.5 24.5t109.5 57.5l9 -11q-45 -41 -120.5 -67.5t-146.5 -26.5q-74 0 -122 32.5t-48 100.5q0 67 44.5 136.5
t110.5 121.5t144.5 85.5t145.5 33.5q41 0 70 -13t29 -40zM396 568l-10 13q58 40 111 115h15q0 -64 39 -125l-13 -7q-7 6 -24 32.5t-28 50.5q-55 -57 -90 -79z" />
    <glyph glyph-name="ccircumflex" unicode="&#x109;" horiz-adv-x="294" 
d="M210 68l6 -10q-105 -68 -173 -68t-68 47q0 67 80.5 135t151.5 68q45 0 57 -34l-51 -52l-9 6q10 22 10 38q0 23 -23 23q-48 0 -99.5 -57.5t-51.5 -108.5q0 -30 43 -30q46 0 127 43zM170 298l-10 13q58 40 111 115h15q0 -64 39 -125l-13 -7q-7 6 -24 32.5t-28 50.5
q-55 -57 -90 -79z" />
    <glyph glyph-name="Cdotaccent" unicode="&#x10a;" horiz-adv-x="495" 
d="M524 447q0 -68 -113 -84l-4 11q22 5 44 26t22 45q0 18 -13.5 29.5t-39.5 11.5q-48 0 -111.5 -33t-119.5 -83.5t-95 -117.5t-39 -128q0 -111 121 -111q57 0 122.5 24.5t109.5 57.5l9 -11q-45 -41 -120.5 -67.5t-146.5 -26.5q-74 0 -122 32.5t-48 100.5q0 67 44.5 136.5
t110.5 121.5t144.5 85.5t145.5 33.5q41 0 70 -13t29 -40zM467 571q-13 0 -13 16q0 18 22.5 36.5t37.5 18.5q12 0 12 -14q0 -18 -21.5 -37.5t-37.5 -19.5z" />
    <glyph glyph-name="cdotaccent" unicode="&#x10b;" horiz-adv-x="294" 
d="M210 68l6 -10q-105 -68 -173 -68t-68 47q0 67 80.5 135t151.5 68q45 0 57 -34l-51 -52l-9 6q10 22 10 38q0 23 -23 23q-48 0 -99.5 -57.5t-51.5 -108.5q0 -30 43 -30q46 0 127 43zM237 301q-13 0 -13 16q0 18 22.5 36.5t37.5 18.5q12 0 12 -14q0 -18 -21.5 -37.5
t-37.5 -19.5z" />
    <glyph glyph-name="Ccaron" unicode="&#x10c;" horiz-adv-x="495" 
d="M524 447q0 -68 -113 -84l-4 11q22 5 44 26t22 45q0 18 -13.5 29.5t-39.5 11.5q-48 0 -111.5 -33t-119.5 -83.5t-95 -117.5t-39 -128q0 -111 121 -111q57 0 122.5 24.5t109.5 57.5l9 -11q-45 -41 -120.5 -67.5t-146.5 -26.5q-74 0 -122 32.5t-48 100.5q0 67 44.5 136.5
t110.5 121.5t144.5 85.5t145.5 33.5q41 0 70 -13t29 -40zM578 695l8 -11q-54 -34 -113 -114h-14q0 60 -37 119l13 7q33 -28 50 -68q38 42 93 67z" />
    <glyph glyph-name="ccaron" unicode="&#x10d;" horiz-adv-x="294" 
d="M210 68l6 -10q-105 -68 -173 -68t-68 47q0 67 80.5 135t151.5 68q45 0 57 -34l-51 -52l-9 6q10 22 10 38q0 23 -23 23q-48 0 -99.5 -57.5t-51.5 -108.5q0 -30 43 -30q46 0 127 43zM348 425l8 -11q-54 -34 -113 -114h-14q0 60 -37 119l13 7q33 -28 50 -68q38 42 93 67z
" />
    <glyph glyph-name="Dcaron" unicode="&#x10e;" horiz-adv-x="801" 
d="M706 488q-36 -1 -69 -21q68 -32 103.5 -88.5t35.5 -121.5q0 -104 -79 -185.5t-201 -81.5q-52 0 -79 15t-27 37q0 58 71 71l3 -11q-34 -22 -34 -51q0 -21 17.5 -34t47.5 -13q79 0 148.5 99t69.5 205t-91 149q-36 -28 -70.5 -85.5t-73.5 -128.5t-76 -115
q-54 -62 -130.5 -100t-157.5 -38q-58 0 -98.5 22.5t-40.5 71.5q0 42 28.5 71t78.5 29q57 0 77 -43l-10 -5q-17 27 -51 27q-30 0 -51.5 -23t-21.5 -57q0 -79 96 -79q75 0 132.5 38t95 97t69.5 121.5t74.5 122.5t92.5 88q-47 14 -110 14q-20 0 -43.5 -2t-63 -13t-69.5 -29
t-53 -55t-23 -86q0 -34 18 -52t45 -18q41 0 74 31l7 -8q-47 -45 -100 -45q-52 0 -73 29.5t-21 65.5q0 55 35 96t87 61.5t98.5 30t81.5 9.5q72 0 129 -20q45 20 94 20h8v-12zM798 695l8 -11q-54 -34 -113 -114h-14q0 60 -37 119l13 7q33 -28 50 -68q38 42 93 67z" />
    <glyph glyph-name="dcaron" unicode="&#x10f;" horiz-adv-x="487" 
d="M176 -10q-24 0 -32 18t5 38q-60 -56 -118 -56q-19 0 -30 13t-11 33q0 67 80 135.5t152 68.5q26 0 42 -13l36 59q-21 -2 -60 -2q-104 0 -163.5 40.5t-59.5 94.5q0 49 50 83.5t141 34.5q81 0 127 -24l-7 -9q-46 21 -117 21q-64 0 -107.5 -22.5t-43.5 -72.5
q0 -64 66.5 -93.5t160.5 -29.5q5 0 14 0.5t13 0.5l7 11q94 151 213 237t225 86q23 0 48 -5t51 -15t43 -30.5t17 -47.5q0 -177 -553 -251l-151 -240q-16 -33 7 -30q16 2 46 22l7 -8q-59 -47 -98 -47zM757 630q-51 0 -107 -30t-105 -78.5t-88.5 -97t-70.5 -98.5l-9 -13
q45 5 88 12t102 19.5t107 31t91.5 42.5t68 58t24.5 73q0 42 -30.5 61.5t-70.5 19.5zM78 25q28 0 63.5 32t68.5 85q29 48 29 61q0 24 -23 24q-48 0 -104.5 -61t-56.5 -111q0 -30 23 -30zM925 500q13 0 29 -3.5t17 -7.5q-5 -22 -41 -58t-64 -45l-6 9q18 15 38.5 46.5
t26.5 58.5z" />
    <glyph glyph-name="Dcroat" unicode="&#x110;" horiz-adv-x="801" 
d="M556 275h-60q-52 -99 -94 -147q-54 -62 -130.5 -100t-157.5 -38q-58 0 -98.5 22.5t-40.5 71.5q0 42 28.5 71t78.5 29q57 0 77 -43l-10 -5q-17 27 -51 27q-30 0 -51.5 -23t-21.5 -57q0 -79 96 -79q46 0 85.5 15t67 36.5t55 57.5t45.5 67t41 74q7 14 11 21h-48l15 21h45
q36 64 69.5 107t77.5 68q-47 14 -110 14q-20 0 -43.5 -2t-63 -13t-69.5 -29t-53 -55t-23 -86q0 -34 18 -52t45 -18q41 0 74 31l7 -8q-47 -45 -100 -45q-52 0 -73 29.5t-21 65.5q0 55 35 96t87 61.5t98.5 30t81.5 9.5q72 0 129 -20q45 20 94 20h8v-12q-36 -1 -69 -21
q68 -32 103.5 -88.5t35.5 -121.5q0 -104 -79 -185.5t-201 -81.5q-52 0 -79 15t-27 37q0 58 71 71l3 -11q-34 -22 -34 -51q0 -21 17.5 -34t47.5 -13q79 0 148.5 99t69.5 205t-91 149q-22 -16 -43.5 -45t-34.5 -51t-36 -65h63z" />
    <glyph glyph-name="dcroat" unicode="&#x111;" horiz-adv-x="338" 
d="M303 392h68q89 118 192.5 184t195.5 66q23 0 48 -5t51 -15t43 -30.5t17 -47.5q0 -177 -553 -251l-151 -240q-16 -33 7 -30q16 2 46 22l7 -8q-59 -47 -98 -47q-24 0 -32 18t5 38q-60 -56 -118 -56q-19 0 -30 13t-11 33q0 67 80 135.5t152 68.5q26 0 42 -13l36 59
q-21 -2 -60 -2q-104 0 -163.5 40.5t-59.5 94.5q0 49 50 83.5t141 34.5q81 0 127 -24l-7 -9q-46 21 -117 21q-64 0 -107.5 -22.5t-43.5 -72.5q0 -64 66.5 -93.5t160.5 -29.5q5 0 14 0.5t13 0.5l7 11q5 9 15.5 24.5t12.5 18.5h-65zM757 630q-81 0 -167 -69.5t-159 -168.5h42
l-19 -30h-45l-23 -36l-9 -13q45 5 88 12t102 19.5t107 31t91.5 42.5t68 58t24.5 73q0 42 -30.5 61.5t-70.5 19.5zM78 25q28 0 63.5 32t68.5 85q29 48 29 61q0 24 -23 24q-48 0 -104.5 -61t-56.5 -111q0 -30 23 -30z" />
    <glyph glyph-name="Emacron" unicode="&#x112;" horiz-adv-x="474" 
d="M391 486q-92 0 -153.5 -55.5t-61.5 -111.5q0 -24 14.5 -46.5t39.5 -22.5v-12q-69 -5 -127 -44t-58 -105q0 -43 31.5 -63.5t82.5 -20.5q77 0 147 42t70 103q0 30 -18 47.5t-45 17.5q-30 0 -56 -20l-8 10q35 30 88 30q36 0 62.5 -23t26.5 -59q0 -46 -47 -84.5t-114 -58.5
t-134 -20q-70 0 -115.5 23.5t-45.5 70.5q0 31 15.5 57.5t39 44t54 31.5t56.5 21.5t51 11.5q-33 4 -59 22.5t-26 43.5q0 45 33 82t81 58t95 32.5t82 11.5q44 0 73 -13t29 -40q0 -68 -112 -84l-5 11q22 5 44.5 26t22.5 45q0 18 -13.5 29.5t-39.5 11.5zM520 569h-178l15 21h178
z" />
    <glyph glyph-name="emacron" unicode="&#x113;" horiz-adv-x="311" 
d="M211 68l7 -10q-105 -68 -184 -68q-69 0 -69 47q0 65 74.5 134t147.5 69q59 0 59 -40q0 -86 -210 -111q-6 -18 -6 -34q0 -30 43 -30q57 0 138 43zM44 106q18 1 41.5 7t48 16.5t41 28.5t16.5 40q0 23 -20 23q-36 0 -70.5 -34t-56.5 -81zM323 299h-178l15 21h178z" />
    <glyph glyph-name="Ebreve" unicode="&#x114;" horiz-adv-x="474" 
d="M391 486q-92 0 -153.5 -55.5t-61.5 -111.5q0 -24 14.5 -46.5t39.5 -22.5v-12q-69 -5 -127 -44t-58 -105q0 -43 31.5 -63.5t82.5 -20.5q77 0 147 42t70 103q0 30 -18 47.5t-45 17.5q-30 0 -56 -20l-8 10q35 30 88 30q36 0 62.5 -23t26.5 -59q0 -46 -47 -84.5t-114 -58.5
t-134 -20q-70 0 -115.5 23.5t-45.5 70.5q0 31 15.5 57.5t39 44t54 31.5t56.5 21.5t51 11.5q-33 4 -59 22.5t-26 43.5q0 45 33 82t81 58t95 32.5t82 11.5q44 0 73 -13t29 -40q0 -68 -112 -84l-5 11q22 5 44.5 26t22.5 45q0 18 -13.5 29.5t-39.5 11.5zM437 595q36 0 74 37h20
q-42 -62 -97 -62q-27 0 -47.5 17t-20.5 45h20q6 -37 51 -37z" />
    <glyph glyph-name="ebreve" unicode="&#x115;" horiz-adv-x="311" 
d="M211 68l7 -10q-105 -68 -184 -68q-69 0 -69 47q0 65 74.5 134t147.5 69q59 0 59 -40q0 -86 -210 -111q-6 -18 -6 -34q0 -30 43 -30q57 0 138 43zM44 106q18 1 41.5 7t48 16.5t41 28.5t16.5 40q0 23 -20 23q-36 0 -70.5 -34t-56.5 -81zM240 325q36 0 74 37h20
q-42 -62 -97 -62q-27 0 -47.5 17t-20.5 45h20q6 -37 51 -37z" />
    <glyph glyph-name="Edotaccent" unicode="&#x116;" horiz-adv-x="474" 
d="M391 486q-92 0 -153.5 -55.5t-61.5 -111.5q0 -24 14.5 -46.5t39.5 -22.5v-12q-69 -5 -127 -44t-58 -105q0 -43 31.5 -63.5t82.5 -20.5q77 0 147 42t70 103q0 30 -18 47.5t-45 17.5q-30 0 -56 -20l-8 10q35 30 88 30q36 0 62.5 -23t26.5 -59q0 -46 -47 -84.5t-114 -58.5
t-134 -20q-70 0 -115.5 23.5t-45.5 70.5q0 31 15.5 57.5t39 44t54 31.5t56.5 21.5t51 11.5q-33 4 -59 22.5t-26 43.5q0 45 33 82t81 58t95 32.5t82 11.5q44 0 73 -13t29 -40q0 -68 -112 -84l-5 11q22 5 44.5 26t22.5 45q0 18 -13.5 29.5t-39.5 11.5zM431 571q-13 0 -13 16
q0 18 22.5 36.5t37.5 18.5q12 0 12 -14q0 -18 -21.5 -37.5t-37.5 -19.5z" />
    <glyph glyph-name="edotaccent" unicode="&#x117;" horiz-adv-x="311" 
d="M211 68l7 -10q-105 -68 -184 -68q-69 0 -69 47q0 65 74.5 134t147.5 69q59 0 59 -40q0 -86 -210 -111q-6 -18 -6 -34q0 -30 43 -30q57 0 138 43zM44 106q18 1 41.5 7t48 16.5t41 28.5t16.5 40q0 23 -20 23q-36 0 -70.5 -34t-56.5 -81zM234 301q-13 0 -13 16
q0 18 22.5 36.5t37.5 18.5q12 0 12 -14q0 -18 -21.5 -37.5t-37.5 -19.5z" />
    <glyph glyph-name="Eogonek" unicode="&#x118;" horiz-adv-x="474" 
d="M185 -85l9 -6q-7 -19 -27.5 -31.5t-42.5 -12.5q-18 0 -31.5 10.5t-13.5 31.5q0 46 57 83h-5q-70 0 -115.5 23.5t-45.5 70.5q0 31 15.5 57.5t39 44t54 31.5t56.5 21.5t51 11.5q-33 4 -59 22.5t-26 43.5q0 45 33 82t81 58t95 32.5t82 11.5q44 0 73 -13t29 -40
q0 -68 -112 -84l-5 11q22 5 44.5 26t22.5 45q0 18 -13.5 29.5t-39.5 11.5q-92 0 -153.5 -55.5t-61.5 -111.5q0 -24 14.5 -46.5t39.5 -22.5v-12q-69 -5 -127 -44t-58 -105q0 -43 31.5 -63.5t82.5 -20.5q77 0 147 42t70 103q0 30 -18 47.5t-45 17.5q-30 0 -56 -20l-8 10
q35 30 88 30q36 0 62.5 -23t26.5 -59q0 -65 -86 -111t-188 -51q-36 -36 -36 -64q0 -31 26 -31q24 0 43 19z" />
    <glyph glyph-name="eogonek" unicode="&#x119;" horiz-adv-x="311" 
d="M86 -74l9 -6q-7 -19 -27.5 -31.5t-42.5 -12.5q-18 0 -31.5 10.5t-13.5 31.5q0 39 42 72q-57 4 -57 47q0 65 74.5 134t147.5 69q59 0 59 -40q0 -86 -210 -111q-6 -18 -6 -34q0 -30 43 -30q57 0 138 43l7 -10q-101 -65 -176 -68q-25 -27 -25 -52q0 -31 26 -31q24 0 43 19z
M44 106q18 1 41.5 7t48 16.5t41 28.5t16.5 40q0 23 -20 23q-36 0 -70.5 -34t-56.5 -81z" />
    <glyph glyph-name="Ecaron" unicode="&#x11a;" horiz-adv-x="474" 
d="M391 486q-92 0 -153.5 -55.5t-61.5 -111.5q0 -24 14.5 -46.5t39.5 -22.5v-12q-69 -5 -127 -44t-58 -105q0 -43 31.5 -63.5t82.5 -20.5q77 0 147 42t70 103q0 30 -18 47.5t-45 17.5q-30 0 -56 -20l-8 10q35 30 88 30q36 0 62.5 -23t26.5 -59q0 -46 -47 -84.5t-114 -58.5
t-134 -20q-70 0 -115.5 23.5t-45.5 70.5q0 31 15.5 57.5t39 44t54 31.5t56.5 21.5t51 11.5q-33 4 -59 22.5t-26 43.5q0 45 33 82t81 58t95 32.5t82 11.5q44 0 73 -13t29 -40q0 -68 -112 -84l-5 11q22 5 44.5 26t22.5 45q0 18 -13.5 29.5t-39.5 11.5zM542 695l8 -11
q-54 -34 -113 -114h-14q0 60 -37 119l13 7q33 -28 50 -68q38 42 93 67z" />
    <glyph glyph-name="ecaron" unicode="&#x11b;" horiz-adv-x="311" 
d="M211 68l7 -10q-105 -68 -184 -68q-69 0 -69 47q0 65 74.5 134t147.5 69q59 0 59 -40q0 -86 -210 -111q-6 -18 -6 -34q0 -30 43 -30q57 0 138 43zM44 106q18 1 41.5 7t48 16.5t41 28.5t16.5 40q0 23 -20 23q-36 0 -70.5 -34t-56.5 -81zM345 425l8 -11q-54 -34 -113 -114
h-14q0 60 -37 119l13 7q33 -28 50 -68q38 42 93 67z" />
    <glyph glyph-name="Gcircumflex" unicode="&#x11c;" horiz-adv-x="638" 
d="M524 447q0 -68 -113 -84l-4 11q22 5 44 26t22 45q0 18 -13.5 29.5t-39.5 11.5q-48 0 -111.5 -33t-119.5 -83.5t-95 -117.5t-39 -128q0 -111 121 -111q41 0 96 15q46 86 75 123q-33 11 -53 11q-32 0 -60 -23l-9 9q59 47 98 47q25 0 72.5 -16t70.5 -16q27 0 50 15l9 -9
q-47 -37 -98 -37q-15 0 -28 3q-8 -13 -61 -107.5t-93 -141.5q-53 -63 -129.5 -101t-157.5 -38q-58 0 -98.5 22.5t-40.5 71.5q0 42 28.5 71t78.5 29q57 0 77 -43l-10 -5q-17 27 -51 27q-30 0 -51.5 -23t-21.5 -57q0 -79 96 -79q57 0 102 19t81.5 59.5t57.5 73.5t53 92
q-60 -15 -109 -15q-74 0 -122 32.5t-48 100.5q0 67 44.5 136.5t110.5 121.5t144.5 85.5t145.5 33.5q41 0 70 -13t29 -40zM467 568l-10 13q58 40 111 115h15q0 -64 39 -125l-13 -7q-7 6 -24 32.5t-28 50.5q-55 -57 -90 -79z" />
    <glyph glyph-name="gcircumflex" unicode="&#x11d;" horiz-adv-x="330" 
d="M337 247l-182 -291q21 2 60 2q104 0 163.5 -40.5t59.5 -94.5q0 -49 -50 -83.5t-141 -34.5q-81 0 -127 24l7 9q45 -21 117 -21q64 0 107.5 22.5t43.5 72.5q0 64 -66.5 93.5t-160.5 29.5q-4 0 -13 -0.5t-14 -0.5l-7 -11q-94 -151 -213 -237t-225 -86q-23 0 -48 5t-51 15
t-43 30.5t-17 47.5q0 177 553 251l60 97q-60 -56 -118 -56q-19 0 -30 13t-11 33q0 67 80 135.5t152 68.5q37 0 52 -24q28 12 51 35zM-302 -388q51 0 107 30t105 78.5t88.5 97t70.5 98.5l9 13q-45 -5 -88 -12t-102 -19.5t-107 -31t-91.5 -42.5t-68 -58t-24.5 -73
q0 -42 30.5 -61.5t70.5 -19.5zM79 25q28 0 63.5 32t68.5 85q29 48 29 61q0 24 -23 24q-48 0 -104.5 -61t-56.5 -111q0 -30 23 -30zM169 298l-10 13q58 40 111 115h15q0 -64 39 -125l-13 -7q-7 6 -24 32.5t-28 50.5q-55 -57 -90 -79z" />
    <glyph glyph-name="Gbreve" unicode="&#x11e;" horiz-adv-x="638" 
d="M524 447q0 -68 -113 -84l-4 11q22 5 44 26t22 45q0 18 -13.5 29.5t-39.5 11.5q-48 0 -111.5 -33t-119.5 -83.5t-95 -117.5t-39 -128q0 -111 121 -111q41 0 96 15q46 86 75 123q-33 11 -53 11q-32 0 -60 -23l-9 9q59 47 98 47q25 0 72.5 -16t70.5 -16q27 0 50 15l9 -9
q-47 -37 -98 -37q-15 0 -28 3q-8 -13 -61 -107.5t-93 -141.5q-53 -63 -129.5 -101t-157.5 -38q-58 0 -98.5 22.5t-40.5 71.5q0 42 28.5 71t78.5 29q57 0 77 -43l-10 -5q-17 27 -51 27q-30 0 -51.5 -23t-21.5 -57q0 -79 96 -79q57 0 102 19t81.5 59.5t57.5 73.5t53 92
q-60 -15 -109 -15q-74 0 -122 32.5t-48 100.5q0 67 44.5 136.5t110.5 121.5t144.5 85.5t145.5 33.5q41 0 70 -13t29 -40zM540 595q36 0 74 37h20q-42 -62 -97 -62q-27 0 -47.5 17t-20.5 45h20q6 -37 51 -37z" />
    <glyph glyph-name="gbreve" unicode="&#x11f;" horiz-adv-x="330" 
d="M337 247l-182 -291q21 2 60 2q104 0 163.5 -40.5t59.5 -94.5q0 -49 -50 -83.5t-141 -34.5q-81 0 -127 24l7 9q45 -21 117 -21q64 0 107.5 22.5t43.5 72.5q0 64 -66.5 93.5t-160.5 29.5q-4 0 -13 -0.5t-14 -0.5l-7 -11q-94 -151 -213 -237t-225 -86q-23 0 -48 5t-51 15
t-43 30.5t-17 47.5q0 177 553 251l60 97q-60 -56 -118 -56q-19 0 -30 13t-11 33q0 67 80 135.5t152 68.5q37 0 52 -24q28 12 51 35zM-302 -388q51 0 107 30t105 78.5t88.5 97t70.5 98.5l9 13q-45 -5 -88 -12t-102 -19.5t-107 -31t-91.5 -42.5t-68 -58t-24.5 -73
q0 -42 30.5 -61.5t70.5 -19.5zM79 25q28 0 63.5 32t68.5 85q29 48 29 61q0 24 -23 24q-48 0 -104.5 -61t-56.5 -111q0 -30 23 -30zM242 325q36 0 74 37h20q-42 -62 -97 -62q-27 0 -47.5 17t-20.5 45h20q6 -37 51 -37z" />
    <glyph glyph-name="Gdotaccent" unicode="&#x120;" horiz-adv-x="638" 
d="M524 447q0 -68 -113 -84l-4 11q22 5 44 26t22 45q0 18 -13.5 29.5t-39.5 11.5q-48 0 -111.5 -33t-119.5 -83.5t-95 -117.5t-39 -128q0 -111 121 -111q41 0 96 15q46 86 75 123q-33 11 -53 11q-32 0 -60 -23l-9 9q59 47 98 47q25 0 72.5 -16t70.5 -16q27 0 50 15l9 -9
q-47 -37 -98 -37q-15 0 -28 3q-8 -13 -61 -107.5t-93 -141.5q-53 -63 -129.5 -101t-157.5 -38q-58 0 -98.5 22.5t-40.5 71.5q0 42 28.5 71t78.5 29q57 0 77 -43l-10 -5q-17 27 -51 27q-30 0 -51.5 -23t-21.5 -57q0 -79 96 -79q57 0 102 19t81.5 59.5t57.5 73.5t53 92
q-60 -15 -109 -15q-74 0 -122 32.5t-48 100.5q0 67 44.5 136.5t110.5 121.5t144.5 85.5t145.5 33.5q41 0 70 -13t29 -40zM534 571q-13 0 -13 16q0 18 22.5 36.5t37.5 18.5q12 0 12 -14q0 -18 -21.5 -37.5t-37.5 -19.5z" />
    <glyph glyph-name="gdotaccent" unicode="&#x121;" horiz-adv-x="330" 
d="M337 247l-182 -291q21 2 60 2q104 0 163.5 -40.5t59.5 -94.5q0 -49 -50 -83.5t-141 -34.5q-81 0 -127 24l7 9q45 -21 117 -21q64 0 107.5 22.5t43.5 72.5q0 64 -66.5 93.5t-160.5 29.5q-4 0 -13 -0.5t-14 -0.5l-7 -11q-94 -151 -213 -237t-225 -86q-23 0 -48 5t-51 15
t-43 30.5t-17 47.5q0 177 553 251l60 97q-60 -56 -118 -56q-19 0 -30 13t-11 33q0 67 80 135.5t152 68.5q37 0 52 -24q28 12 51 35zM-302 -388q51 0 107 30t105 78.5t88.5 97t70.5 98.5l9 13q-45 -5 -88 -12t-102 -19.5t-107 -31t-91.5 -42.5t-68 -58t-24.5 -73
q0 -42 30.5 -61.5t70.5 -19.5zM79 25q28 0 63.5 32t68.5 85q29 48 29 61q0 24 -23 24q-48 0 -104.5 -61t-56.5 -111q0 -30 23 -30zM236 301q-13 0 -13 16q0 18 22.5 36.5t37.5 18.5q12 0 12 -14q0 -18 -21.5 -37.5t-37.5 -19.5z" />
    <glyph glyph-name="Gcommaaccent" unicode="&#x122;" horiz-adv-x="638" 
d="M524 447q0 -68 -113 -84l-4 11q22 5 44 26t22 45q0 18 -13.5 29.5t-39.5 11.5q-48 0 -111.5 -33t-119.5 -83.5t-95 -117.5t-39 -128q0 -111 121 -111q41 0 96 15q46 86 75 123q-33 11 -53 11q-32 0 -60 -23l-9 9q59 47 98 47q25 0 72.5 -16t70.5 -16q27 0 50 15l9 -9
q-47 -37 -98 -37q-15 0 -28 3q-8 -13 -61 -107.5t-93 -141.5q-53 -63 -129.5 -101t-157.5 -38q-58 0 -98.5 22.5t-40.5 71.5q0 42 28.5 71t78.5 29q57 0 77 -43l-10 -5q-17 27 -51 27q-30 0 -51.5 -23t-21.5 -57q0 -79 96 -79q57 0 102 19t81.5 59.5t57.5 73.5t53 92
q-60 -15 -109 -15q-74 0 -122 32.5t-48 100.5q0 67 44.5 136.5t110.5 121.5t144.5 85.5t145.5 33.5q41 0 70 -13t29 -40zM163 -283q13 0 29 -3.5t17 -7.5q-5 -22 -41 -58t-64 -45l-6 9q18 15 38.5 46.5t26.5 58.5z" />
    <glyph glyph-name="gcommaaccent" unicode="&#x123;" horiz-adv-x="330" 
d="M337 247l-182 -291q21 2 60 2q104 0 163.5 -40.5t59.5 -94.5q0 -49 -50 -83.5t-141 -34.5q-81 0 -127 24l7 9q45 -21 117 -21q64 0 107.5 22.5t43.5 72.5q0 64 -66.5 93.5t-160.5 29.5q-4 0 -13 -0.5t-14 -0.5l-7 -11q-94 -151 -213 -237t-225 -86q-23 0 -48 5t-51 15
t-43 30.5t-17 47.5q0 177 553 251l60 97q-60 -56 -118 -56q-19 0 -30 13t-11 33q0 67 80 135.5t152 68.5q37 0 52 -24q28 12 51 35zM-302 -388q51 0 107 30t105 78.5t88.5 97t70.5 98.5l9 13q-45 -5 -88 -12t-102 -19.5t-107 -31t-91.5 -42.5t-68 -58t-24.5 -73
q0 -42 30.5 -61.5t70.5 -19.5zM79 25q28 0 63.5 32t68.5 85q29 48 29 61q0 24 -23 24q-48 0 -104.5 -61t-56.5 -111q0 -30 23 -30zM293 417q13 0 29 -3.5t17 -7.5q-5 -22 -41 -58t-64 -45l-6 9q18 15 38.5 46.5t26.5 58.5z" />
    <glyph glyph-name="Hcircumflex" unicode="&#x124;" horiz-adv-x="879" 
d="M706 488q-28 -1 -53 -13.5t-42 -26.5t-39 -45.5t-32.5 -50t-33.5 -60.5q-8 -15 -12 -22h134q122 230 308 230q52 0 84 -22t32 -56q0 -29 -25 -51.5t-65 -22.5q-51 0 -87 35l8 9q25 -24 63 -24q26 0 41 17.5t15 40.5q0 25 -18 42.5t-52 17.5q-72 0 -141 -70t-107 -157
t-38 -149q0 -99 55 -99q34 0 66 23l7 -8q-44 -36 -95 -36q-50 0 -74 34t-24 87q0 65 37 139h-135q-42 -76 -81 -122q-54 -62 -130.5 -100t-157.5 -38q-58 0 -98.5 22.5t-40.5 71.5q0 42 28.5 71t78.5 29q57 0 77 -43l-10 -5q-17 27 -51 27q-30 0 -51.5 -23t-21.5 -57
q0 -79 96 -79q74 0 130 36t93.5 93.5t68.5 118t72 121t87 90.5q-17 -1 -69 -1q-41 0 -63 -0.5t-57 -3t-54 -8t-42.5 -16t-35.5 -25.5t-20.5 -38.5t-8.5 -53.5q0 -33 19.5 -57t50.5 -24q43 0 76 32l8 -9q-44 -43 -103 -43q-49 0 -75 29.5t-26 69.5q0 172 381 172q55 0 80 4
q30 9 65 9h8v-12zM701 568l-10 13q58 40 111 115h15q0 -64 39 -125l-13 -7q-7 6 -24 32.5t-28 50.5q-55 -57 -90 -79z" />
    <glyph glyph-name="hcircumflex" unicode="&#x125;" horiz-adv-x="326" 
d="M732 544q0 -177 -553 -251l-70 -112q63 59 120 59q16 0 29 -9t13 -31q0 -27 -22 -61l-45 -73q-27 -45 -3 -43q16 1 48 22l7 -8q-59 -47 -98 -47q-24 0 -31.5 18.5t5.5 38.5l63 101q17 30 17 43q0 16 -17 16q-63 0 -129 -95l-71 -113q-6 -9 -12 -9q-8 0 -13 11t-5 21
q0 28 25 65l124 199q-21 -2 -60 -2q-104 0 -163.5 40.5t-59.5 94.5q0 49 50 83.5t141 34.5q81 0 127 -24l-7 -9q-45 21 -117 21q-64 0 -107.5 -22.5t-43.5 -72.5q0 -64 66.5 -93.5t160.5 -29.5q5 0 14 0.5t13 0.5l7 11q94 151 213 237t225 86q23 0 48 -5t51 -15t43 -30.5
t17 -47.5zM571 630q-51 0 -107 -30t-105 -78.5t-88.5 -97t-70.5 -98.5l-9 -13q45 5 88 12t102 19.5t107 31t91.5 42.5t68 58t24.5 73q0 42 -30.5 61.5t-70.5 19.5zM511 670l-10 13q58 40 111 115h15q0 -64 39 -125l-13 -7q-7 6 -24 32.5t-28 50.5q-55 -57 -90 -79z" />
    <glyph glyph-name="Hbar" unicode="&#x126;" horiz-adv-x="879" 
d="M706 488q-28 -1 -53 -13.5t-42 -26.5t-39 -45.5t-32.5 -50t-33.5 -60.5q-8 -15 -12 -22h134q122 230 308 230q52 0 84 -22t32 -56q0 -29 -25 -51.5t-65 -22.5q-51 0 -87 35l8 9q25 -24 63 -24q26 0 41 17.5t15 40.5q0 25 -18 42.5t-52 17.5q-72 0 -141 -70t-107 -157
t-38 -149q0 -99 55 -99q34 0 66 23l7 -8q-44 -36 -95 -36q-50 0 -74 34t-24 87q0 65 37 139h-135q-42 -76 -81 -122q-54 -62 -130.5 -100t-157.5 -38q-58 0 -98.5 22.5t-40.5 71.5q0 42 28.5 71t78.5 29q57 0 77 -43l-10 -5q-17 27 -51 27q-30 0 -51.5 -23t-21.5 -57
q0 -79 96 -79q74 0 130 36t93.5 93.5t68.5 118t72 121t87 90.5q-17 -1 -69 -1q-41 0 -63 -0.5t-57 -3t-54 -8t-42.5 -16t-35.5 -25.5t-20.5 -38.5t-8.5 -53.5q0 -33 19.5 -57t50.5 -24q43 0 76 32l8 -9q-44 -43 -103 -43q-49 0 -75 29.5t-26 69.5q0 172 381 172q55 0 80 4
q30 9 65 9h8v-12zM857 569h-178l15 21h178z" />
    <glyph glyph-name="hbar" unicode="&#x127;" horiz-adv-x="326" 
d="M221 262h-62l-50 -81q63 59 120 59q16 0 29 -9t13 -31q0 -27 -22 -61l-45 -73q-27 -45 -3 -43q16 1 48 22l7 -8q-59 -47 -98 -47q-24 0 -31.5 18.5t5.5 38.5l63 101q17 30 17 43q0 16 -17 16q-63 0 -129 -95l-71 -113q-6 -9 -12 -9q-8 0 -13 11t-5 21q0 28 25 65l109 175
h-56l15 21h54l2 3q-21 -2 -60 -2q-104 0 -163.5 40.5t-59.5 94.5q0 49 50 83.5t141 34.5q81 0 127 -24l-7 -9q-45 21 -117 21q-64 0 -107.5 -22.5t-43.5 -72.5q0 -64 66.5 -93.5t160.5 -29.5q5 0 14 0.5t13 0.5l7 11q94 151 213 237t225 86q23 0 48 -5t51 -15t43 -30.5
t17 -47.5q0 -177 -553 -251l-7 -10h64zM571 630q-51 0 -107 -30t-105 -78.5t-88.5 -97t-70.5 -98.5l-9 -13q45 5 88 12t102 19.5t107 31t91.5 42.5t68 58t24.5 73q0 42 -30.5 61.5t-70.5 19.5z" />
    <glyph glyph-name="Itilde" unicode="&#x128;" horiz-adv-x="547" 
d="M173 315q0 172 381 172h5q53 0 73 4q36 9 66 9h8v-12q-52 -2 -94.5 -40.5t-68 -87.5t-65.5 -119t-76 -113q-54 -62 -130.5 -100t-157.5 -38q-58 0 -98.5 22.5t-40.5 71.5q0 42 28.5 71t78.5 29q57 0 77 -43l-10 -5q-17 27 -51 27q-30 0 -51.5 -23t-21.5 -57q0 -79 96 -79
q74 0 130 36t93.5 93.5t68.5 118t72 121t87 90.5q-17 -1 -63 -1h-5q-41 0 -63 -0.5t-57 -3t-54 -8t-42.5 -16t-35.5 -25.5t-20.5 -38.5t-8.5 -53.5q0 -33 19.5 -57t50.5 -24q43 0 76 32l8 -9q-44 -43 -103 -43q-49 0 -75 29.5t-26 69.5zM622 623q14 0 38.5 -13.5t39.5 -13.5
q27 0 41 21l9 -3q-3 -24 -22.5 -38t-39.5 -14q-14 0 -38.5 13.5t-39.5 13.5q-27 0 -41 -21l-9 3q3 24 22.5 38t39.5 14z" />
    <glyph glyph-name="itilde" unicode="&#x129;" horiz-adv-x="180" 
d="M-5 -10q-24 0 -31.5 18.5t5.5 38.5l103 164q36 5 71 40l11 -4l-113 -181q-27 -45 -3 -43q16 1 48 22l7 -8q-59 -47 -98 -47zM128 353q14 0 38.5 -13.5t39.5 -13.5q27 0 41 21l9 -3q-3 -24 -22.5 -38t-39.5 -14q-14 0 -38.5 13.5t-39.5 13.5q-27 0 -41 -21l-9 3
q3 24 22.5 38t39.5 14z" />
    <glyph glyph-name="Imacron" unicode="&#x12a;" horiz-adv-x="547" 
d="M173 315q0 172 381 172h5q53 0 73 4q36 9 66 9h8v-12q-52 -2 -94.5 -40.5t-68 -87.5t-65.5 -119t-76 -113q-54 -62 -130.5 -100t-157.5 -38q-58 0 -98.5 22.5t-40.5 71.5q0 42 28.5 71t78.5 29q57 0 77 -43l-10 -5q-17 27 -51 27q-30 0 -51.5 -23t-21.5 -57q0 -79 96 -79
q74 0 130 36t93.5 93.5t68.5 118t72 121t87 90.5q-17 -1 -63 -1h-5q-41 0 -63 -0.5t-57 -3t-54 -8t-42.5 -16t-35.5 -25.5t-20.5 -38.5t-8.5 -53.5q0 -33 19.5 -57t50.5 -24q43 0 76 32l8 -9q-44 -43 -103 -43q-49 0 -75 29.5t-26 69.5zM746 569h-178l15 21h178z" />
    <glyph glyph-name="imacron" unicode="&#x12b;" horiz-adv-x="180" 
d="M-5 -10q-24 0 -31.5 18.5t5.5 38.5l103 164q36 5 71 40l11 -4l-113 -181q-27 -45 -3 -43q16 1 48 22l7 -8q-59 -47 -98 -47zM252 299h-178l15 21h178z" />
    <glyph glyph-name="Ibreve" unicode="&#x12c;" horiz-adv-x="547" 
d="M173 315q0 172 381 172h5q53 0 73 4q36 9 66 9h8v-12q-52 -2 -94.5 -40.5t-68 -87.5t-65.5 -119t-76 -113q-54 -62 -130.5 -100t-157.5 -38q-58 0 -98.5 22.5t-40.5 71.5q0 42 28.5 71t78.5 29q57 0 77 -43l-10 -5q-17 27 -51 27q-30 0 -51.5 -23t-21.5 -57q0 -79 96 -79
q74 0 130 36t93.5 93.5t68.5 118t72 121t87 90.5q-17 -1 -63 -1h-5q-41 0 -63 -0.5t-57 -3t-54 -8t-42.5 -16t-35.5 -25.5t-20.5 -38.5t-8.5 -53.5q0 -33 19.5 -57t50.5 -24q43 0 76 32l8 -9q-44 -43 -103 -43q-49 0 -75 29.5t-26 69.5zM663 595q36 0 74 37h20
q-42 -62 -97 -62q-27 0 -47.5 17t-20.5 45h20q6 -37 51 -37z" />
    <glyph glyph-name="ibreve" unicode="&#x12d;" horiz-adv-x="180" 
d="M-5 -10q-24 0 -31.5 18.5t5.5 38.5l103 164q36 5 71 40l11 -4l-113 -181q-27 -45 -3 -43q16 1 48 22l7 -8q-59 -47 -98 -47zM169 325q36 0 74 37h20q-42 -62 -97 -62q-27 0 -47.5 17t-20.5 45h20q6 -37 51 -37z" />
    <glyph glyph-name="Iogonek" unicode="&#x12e;" horiz-adv-x="547" 
d="M190 -74l9 -6q-7 -19 -27.5 -31.5t-42.5 -12.5q-18 0 -31.5 10.5t-13.5 31.5q0 38 42 73q-2 0 -6 -0.5t-6 -0.5q-58 0 -98.5 22.5t-40.5 71.5q0 42 28.5 71t78.5 29q57 0 77 -43l-10 -5q-17 27 -51 27q-30 0 -51.5 -23t-21.5 -57q0 -79 96 -79q74 0 130 36t93.5 93.5
t68.5 118t72 121t87 90.5q-17 -1 -63 -1h-5q-41 0 -63 -0.5t-57 -3t-54 -8t-42.5 -16t-35.5 -25.5t-20.5 -38.5t-8.5 -53.5q0 -33 19.5 -57t50.5 -24q43 0 76 32l8 -9q-44 -43 -103 -43q-49 0 -75 29.5t-26 69.5q0 172 381 172h5q53 0 73 4q36 9 66 9h8v-12
q-52 -2 -94.5 -40.5t-68 -87.5t-65.5 -119t-76 -113q-48 -56 -115.5 -92.5t-139.5 -43.5q-26 -30 -26 -54q0 -31 26 -31q24 0 43 19z" />
    <glyph glyph-name="iogonek" unicode="&#x12f;" horiz-adv-x="180" 
d="M-5 -10q-24 0 -31.5 18.5t5.5 38.5l103 164q36 5 71 40l11 -4l-113 -181q-27 -45 -3 -43q16 1 48 22l7 -8q-59 -47 -98 -47zM110 264q-2 6 -2 10q0 18 22.5 36.5t37.5 18.5q12 0 12 -14q0 -18 -21.5 -37.5t-37.5 -19.5q-8 0 -11 6zM138 -74l9 -6q-7 -19 -27.5 -31.5
t-42.5 -12.5q-18 0 -31.5 10.5t-13.5 31.5q0 46 63 87h14q-40 -40 -40 -67q0 -31 26 -31q24 0 43 19z" />
    <glyph glyph-name="Idotaccent" unicode="&#x130;" horiz-adv-x="547" 
d="M173 315q0 172 381 172h5q53 0 73 4q36 9 66 9h8v-12q-52 -2 -94.5 -40.5t-68 -87.5t-65.5 -119t-76 -113q-54 -62 -130.5 -100t-157.5 -38q-58 0 -98.5 22.5t-40.5 71.5q0 42 28.5 71t78.5 29q57 0 77 -43l-10 -5q-17 27 -51 27q-30 0 -51.5 -23t-21.5 -57q0 -79 96 -79
q74 0 130 36t93.5 93.5t68.5 118t72 121t87 90.5q-17 -1 -63 -1h-5q-41 0 -63 -0.5t-57 -3t-54 -8t-42.5 -16t-35.5 -25.5t-20.5 -38.5t-8.5 -53.5q0 -33 19.5 -57t50.5 -24q43 0 76 32l8 -9q-44 -43 -103 -43q-49 0 -75 29.5t-26 69.5zM657 571q-13 0 -13 16
q0 18 22.5 36.5t37.5 18.5q12 0 12 -14q0 -18 -21.5 -37.5t-37.5 -19.5z" />
    <glyph glyph-name="dotlessi" unicode="&#x131;" horiz-adv-x="180" 
d="M-5 -10q-24 0 -31.5 18.5t5.5 38.5l103 164q36 5 71 40l11 -4l-113 -181q-27 -45 -3 -43q16 1 48 22l7 -8q-59 -47 -98 -47z" />
    <glyph glyph-name="IJ" unicode="&#x132;" horiz-adv-x="1048" 
d="M173 315q0 172 381 172h5q53 0 73 4q36 9 66 9h8v-12q-52 -2 -94.5 -40.5t-68 -87.5t-65.5 -119t-76 -113q-54 -62 -130.5 -100t-157.5 -38q-58 0 -98.5 22.5t-40.5 71.5q0 42 28.5 71t78.5 29q57 0 77 -43l-10 -5q-17 27 -51 27q-30 0 -51.5 -23t-21.5 -57q0 -79 96 -79
q74 0 130 36t93.5 93.5t68.5 118t72 121t87 90.5q-17 -1 -63 -1h-5q-41 0 -63 -0.5t-57 -3t-54 -8t-42.5 -16t-35.5 -25.5t-20.5 -38.5t-8.5 -53.5q0 -33 19.5 -57t50.5 -24q43 0 76 32l8 -9q-44 -43 -103 -43q-49 0 -75 29.5t-26 69.5zM727 311q0 172 381 172h15q51 0 77 5
q39 12 71 12v-14q-54 -2 -101.5 -42t-85.5 -104.5t-71.5 -132.5t-73.5 -143t-77 -118q-133 -158 -297 -158q-61 0 -101.5 31t-40.5 76q0 28 26.5 58t77.5 43l4 -8q-59 -37 -59 -93q0 -44 29 -67t73 -23q49 0 91 18t75 52.5t56 67.5t48 79q12 21 44.5 85.5t54.5 103.5
t56 92.5t70 92.5t75 64q-18 -2 -71 -2h-15q-41 0 -63 -0.5t-57 -3t-54 -8t-42.5 -16t-35.5 -25.5t-20.5 -38.5t-8.5 -53.5q0 -33 19.5 -57t50.5 -24q43 0 76 32l8 -9q-44 -43 -103 -43q-49 0 -75 29.5t-26 69.5z" />
    <glyph glyph-name="ij" unicode="&#x133;" horiz-adv-x="321" 
d="M-5 -10q-24 0 -31.5 18.5t5.5 38.5l103 164q36 5 71 40l11 -4l-113 -181q-27 -45 -3 -43q16 1 48 22l7 -8q-59 -47 -98 -47zM110 264q-2 6 -2 10q0 18 22.5 36.5t37.5 18.5q12 0 12 -14q0 -18 -21.5 -37.5t-37.5 -19.5q-8 0 -11 6zM325 247l-182 -291q21 2 60 2
q104 0 163.5 -40.5t59.5 -94.5q0 -49 -50 -83.5t-141 -34.5q-81 0 -127 24l7 9q46 -21 117 -21q64 0 107.5 22.5t43.5 72.5q0 64 -66.5 93.5t-160.5 29.5q-4 0 -13 -0.5t-14 -0.5l-7 -11q-94 -151 -213 -237t-225 -86q-23 0 -48 5t-51 15t-43 30.5t-17 47.5q0 177 553 251
l165 262q36 5 71 40zM-314 -388q51 0 107 30t105 78.5t88.5 97t70.5 98.5l9 13q-45 -5 -88 -12t-102 -19.5t-107 -31t-91.5 -42.5t-68 -58t-24.5 -73q0 -42 30.5 -61.5t70.5 -19.5zM277 264q-2 6 -2 10q0 18 22.5 36.5t37.5 18.5q12 0 12 -14q0 -18 -21.5 -37.5t-37.5 -19.5
q-8 0 -11 6z" />
    <glyph glyph-name="Jcircumflex" unicode="&#x134;" horiz-adv-x="501" 
d="M180 311q0 172 381 172h15q51 0 77 5q39 12 71 12v-14q-54 -2 -101.5 -42t-85.5 -104.5t-71.5 -132.5t-73.5 -143t-77 -118q-133 -158 -297 -158q-61 0 -101.5 31t-40.5 76q0 28 26.5 58t77.5 43l4 -8q-59 -37 -59 -93q0 -44 29 -67t73 -23q49 0 91 18t75 52.5t56 67.5
t48 79q12 21 44.5 85.5t54.5 103.5t56 92.5t70 92.5t75 64q-18 -2 -71 -2h-15q-41 0 -63 -0.5t-57 -3t-54 -8t-42.5 -16t-35.5 -25.5t-20.5 -38.5t-8.5 -53.5q0 -33 19.5 -57t50.5 -24q43 0 76 32l8 -9q-44 -43 -103 -43q-49 0 -75 29.5t-26 69.5zM622 546l-10 13
q58 40 111 115h15q0 -64 39 -125l-13 -7q-7 6 -24 32.5t-28 50.5q-55 -57 -90 -79z" />
    <glyph glyph-name="jcircumflex" unicode="&#x135;" horiz-adv-x="141" 
d="M145 247l-203 -324q-94 -151 -213 -237t-225 -86q-53 0 -101 23.5t-48 74.5q0 48 40 88t97.5 66t136.5 47t140.5 31t127.5 18l166 263q36 5 71 40zM-494 -388q51 0 107 30t105 78.5t88.5 97t70.5 98.5l12 19q-62 -8 -118.5 -19t-126.5 -32t-120 -46t-84.5 -63t-34.5 -82
q0 -42 30.5 -61.5t70.5 -19.5zM81 286l-10 13q58 40 111 115h15q0 -64 39 -125l-13 -7q-7 6 -24 32.5t-28 50.5q-55 -57 -90 -79z" />
    <glyph glyph-name="Kcommaaccent" unicode="&#x136;" horiz-adv-x="944" 
d="M706 488q-27 -1 -52 -13t-41 -24.5t-38 -43.5t-31.5 -47t-33 -59t-31.5 -58q113 3 164 69q13 17 33 49.5t35.5 52.5t42 42t68 33t98.5 11q51 0 75 -26t24 -63q0 -31 -22 -52t-62 -21q-55 0 -94 38l7 9q29 -27 61 -27q27 0 42 16.5t15 39.5q0 29 -16.5 50t-53.5 21
q-48 0 -80.5 -24.5t-50.5 -59.5t-37.5 -70.5t-56.5 -62t-92 -28.5q37 -7 57.5 -34t28 -60t14.5 -65.5t26 -54.5t54 -22q29 0 48 18.5t19 47.5q0 40 -39 40q-15 0 -28 -11l-9 7q17 23 53 23q33 0 53 -17.5t20 -42.5q0 -31 -31 -55t-86 -24q-48 0 -79.5 13.5t-45.5 34.5
t-22 46.5t-15 51.5t-18.5 47t-38 34.5t-68.5 13.5q-35 -62 -70 -103q-54 -62 -130.5 -100t-157.5 -38q-58 0 -98.5 22.5t-40.5 71.5q0 42 28.5 71t78.5 29q57 0 77 -43l-10 -5q-17 27 -51 27q-30 0 -51.5 -23t-21.5 -57q0 -79 96 -79q73 0 129 35.5t93 92t68 116t71 120.5
t85 92q-18 -2 -71 -2h-5q-41 0 -63 -0.5t-57 -3t-54 -8t-42.5 -16t-35.5 -25.5t-20.5 -38.5t-8.5 -53.5q0 -33 19.5 -57t50.5 -24q43 0 76 32l8 -9q-44 -43 -103 -43q-49 0 -75 29.5t-26 69.5q0 172 381 172h5q49 0 74 4q37 13 78 13h8v-12zM393 -86q13 0 29 -3.5t17 -7.5
q-5 -22 -41 -58t-64 -45l-6 9q18 15 38.5 46.5t26.5 58.5z" />
    <glyph glyph-name="kcommaaccent" unicode="&#x137;" horiz-adv-x="329" 
d="M158 -10q-16 0 -25 9t-9 22q0 14 8 26l21 34q0 1 0.5 2.5t0.5 2.5q0 15 -18 17q-32 -7 -82 -12l-12 -19l-46 -73q-6 -9 -12 -9q-8 0 -13 11t-5 21q-1 26 25 65l125 199q-21 -2 -60 -2q-104 0 -163.5 40.5t-59.5 94.5q0 49 50 83.5t141 34.5q81 0 127 -24l-7 -9
q-46 21 -117 21q-64 0 -107.5 -22.5t-43.5 -72.5q0 -64 66.5 -93.5t160.5 -29.5q4 0 13 0.5t14 0.5l7 11q94 151 213 237t225 86q23 0 48 -5t51 -15t43 -30.5t17 -47.5q0 -177 -553 -251l-49 -78q36 25 81 25q64 0 64 -40q0 -49 -75 -79q16 -10 16 -26q0 -9 -14 -32.5
t-14 -30.5q0 -10 10 -10q15 0 49 23l7 -8q-59 -47 -98 -47zM573 630q-51 0 -107 -30t-105 -78.5t-88.5 -97t-70.5 -98.5l-9 -13q45 5 88 12t102 19.5t107 31t91.5 42.5t68 58t24.5 73q0 42 -30.5 61.5t-70.5 19.5zM61 106q18 1 43 7t52 16.5t45.5 28.5t18.5 40q0 23 -23 23
q-37 0 -76 -35t-60 -80zM18 -98q13 0 29 -3.5t17 -7.5q-5 -22 -41 -58t-64 -45l-6 9q18 15 38.5 46.5t26.5 58.5z" />
    <glyph glyph-name="kgreenlandic" unicode="&#x138;" horiz-adv-x="329" 
d="M158 -10q-16 0 -25 9t-9 22q0 14 8 26l21 34q0 1 0.5 2.5t0.5 2.5q0 15 -18 17q-32 -7 -82 -12l-12 -19l-46 -73q-6 -9 -12 -9q-8 0 -13 11t-5 21q-1 26 25 65l125 199q-21 -2 -60 -2q-104 0 -163.5 40.5t-59.5 94.5q0 49 50 83.5t141 34.5q81 0 127 -24l-7 -9
q-46 21 -117 21q-64 0 -107.5 -22.5t-43.5 -72.5q0 -64 66.5 -93.5t160.5 -29.5q4 0 13 0.5t14 0.5l7 11q94 151 213 237t225 86q23 0 48 -5t51 -15t43 -30.5t17 -47.5q0 -177 -553 -251l-49 -78q36 25 81 25q64 0 64 -40q0 -49 -75 -79q16 -10 16 -26q0 -9 -14 -32.5
t-14 -30.5q0 -10 10 -10q15 0 49 23l7 -8q-59 -47 -98 -47zM573 630q-51 0 -107 -30t-105 -78.5t-88.5 -97t-70.5 -98.5l-9 -13q45 5 88 12t102 19.5t107 31t91.5 42.5t68 58t24.5 73q0 42 -30.5 61.5t-70.5 19.5zM61 106q18 1 43 7t52 16.5t45.5 28.5t18.5 40q0 23 -23 23
q-37 0 -76 -35t-60 -80z" />
    <glyph glyph-name="Lacute" unicode="&#x139;" horiz-adv-x="567" 
d="M17 311q0 172 381 172h5q51 0 78 5q35 10 58 12h8v-12q-52 -2 -94.5 -40.5t-68 -87.5t-65.5 -119t-76 -113q-56 -66 -127 -99q52 0 94 -13.5t64.5 -30t51 -30t55.5 -13.5q28 0 47.5 23t19.5 53q0 40 -39 40q-15 0 -28 -11l-9 7q17 23 53 23q33 0 53 -17.5t20 -42.5
q0 -89 -121 -89q-76 0 -154.5 34.5t-159.5 34.5q-13 0 -88 -7v12q66 6 118.5 44.5t89 94t68.5 114t75.5 116.5t93.5 89q-18 -2 -67 -2h-5q-41 0 -63 -0.5t-57 -3t-54 -8t-42.5 -16t-35.5 -25.5t-20.5 -38.5t-8.5 -53.5q0 -33 19.5 -57t50.5 -24q43 0 76 32l8 -9
q-44 -43 -103 -43q-49 0 -75 29.5t-26 69.5zM578 681q13 0 29 -3.5t17 -7.5q-5 -22 -41 -58t-64 -45l-5 6q17 15 37.5 47.5t26.5 60.5z" />
    <glyph glyph-name="lacute" unicode="&#x13a;" horiz-adv-x="196" 
d="M756 544q0 -177 -553 -251l-148 -238q-20 -33 2 -32q17 1 49 22l7 -8q-59 -47 -98 -47q-24 0 -31.5 18.5t5.5 38.5l149 239q-21 -2 -60 -2q-104 0 -163.5 40.5t-59.5 94.5q0 49 50 83.5t141 34.5q81 0 127 -24l-7 -9q-45 21 -117 21q-64 0 -107.5 -22.5t-43.5 -72.5
q0 -64 66.5 -93.5t160.5 -29.5q5 0 13.5 0.5t13.5 0.5l7 11q94 151 213 237t225 86q23 0 48 -5t51 -15t43 -30.5t17 -47.5zM595 630q-51 0 -107 -30t-105 -78.5t-88.5 -97t-70.5 -98.5l-9 -13q45 5 88 12t102 19.5t107 31t91.5 42.5t68 58t24.5 73q0 42 -30.5 61.5
t-70.5 19.5zM603 808q13 0 29 -3.5t17 -7.5q-5 -22 -41 -58t-64 -45l-5 6q17 15 37.5 47.5t26.5 60.5z" />
    <glyph glyph-name="Lcommaaccent" unicode="&#x13b;" horiz-adv-x="567" 
d="M17 311q0 172 381 172h5q51 0 78 5q35 10 58 12h8v-12q-52 -2 -94.5 -40.5t-68 -87.5t-65.5 -119t-76 -113q-56 -66 -127 -99q52 0 94 -13.5t64.5 -30t51 -30t55.5 -13.5q28 0 47.5 23t19.5 53q0 40 -39 40q-15 0 -28 -11l-9 7q17 23 53 23q33 0 53 -17.5t20 -42.5
q0 -89 -121 -89q-76 0 -154.5 34.5t-159.5 34.5q-13 0 -88 -7v12q66 6 118.5 44.5t89 94t68.5 114t75.5 116.5t93.5 89q-18 -2 -67 -2h-5q-41 0 -63 -0.5t-57 -3t-54 -8t-42.5 -16t-35.5 -25.5t-20.5 -38.5t-8.5 -53.5q0 -33 19.5 -57t50.5 -24q43 0 76 32l8 -9
q-44 -43 -103 -43q-49 0 -75 29.5t-26 69.5zM165 -114q13 0 29 -3.5t17 -7.5q-5 -22 -41 -58t-64 -45l-6 9q18 15 38.5 46.5t26.5 58.5z" />
    <glyph glyph-name="lcommaaccent" unicode="&#x13c;" horiz-adv-x="196" 
d="M756 544q0 -177 -553 -251l-148 -238q-20 -33 2 -32q17 1 49 22l7 -8q-59 -47 -98 -47q-24 0 -31.5 18.5t5.5 38.5l149 239q-21 -2 -60 -2q-104 0 -163.5 40.5t-59.5 94.5q0 49 50 83.5t141 34.5q81 0 127 -24l-7 -9q-45 21 -117 21q-64 0 -107.5 -22.5t-43.5 -72.5
q0 -64 66.5 -93.5t160.5 -29.5q5 0 13.5 0.5t13.5 0.5l7 11q94 151 213 237t225 86q23 0 48 -5t51 -15t43 -30.5t17 -47.5zM595 630q-51 0 -107 -30t-105 -78.5t-88.5 -97t-70.5 -98.5l-9 -13q45 5 88 12t102 19.5t107 31t91.5 42.5t68 58t24.5 73q0 42 -30.5 61.5
t-70.5 19.5z" />
    <glyph glyph-name="Lcaron" unicode="&#x13d;" horiz-adv-x="567" 
d="M17 311q0 172 381 172h5q51 0 78 5q35 10 58 12h8v-12q-52 -2 -94.5 -40.5t-68 -87.5t-65.5 -119t-76 -113q-56 -66 -127 -99q52 0 94 -13.5t64.5 -30t51 -30t55.5 -13.5q28 0 47.5 23t19.5 53q0 40 -39 40q-15 0 -28 -11l-9 7q17 23 53 23q33 0 53 -17.5t20 -42.5
q0 -89 -121 -89q-76 0 -154.5 34.5t-159.5 34.5q-13 0 -88 -7v12q66 6 118.5 44.5t89 94t68.5 114t75.5 116.5t93.5 89q-18 -2 -67 -2h-5q-41 0 -63 -0.5t-57 -3t-54 -8t-42.5 -16t-35.5 -25.5t-20.5 -38.5t-8.5 -53.5q0 -33 19.5 -57t50.5 -24q43 0 76 32l8 -9
q-44 -43 -103 -43q-49 0 -75 29.5t-26 69.5zM637 694l8 -11q-54 -34 -113 -114h-14q0 60 -37 119l13 7q33 -28 50 -68q38 42 93 67z" />
    <glyph glyph-name="lcaron" unicode="&#x13e;" horiz-adv-x="345" 
d="M756 544q0 -177 -553 -251l-148 -238q-20 -33 2 -32q17 1 49 22l7 -8q-59 -47 -98 -47q-24 0 -31.5 18.5t5.5 38.5l149 239q-21 -2 -60 -2q-104 0 -163.5 40.5t-59.5 94.5q0 49 50 83.5t141 34.5q81 0 127 -24l-7 -9q-45 21 -117 21q-64 0 -107.5 -22.5t-43.5 -72.5
q0 -64 66.5 -93.5t160.5 -29.5q5 0 13.5 0.5t13.5 0.5l7 11q94 151 213 237t225 86q23 0 48 -5t51 -15t43 -30.5t17 -47.5zM595 630q-51 0 -107 -30t-105 -78.5t-88.5 -97t-70.5 -98.5l-9 -13q45 5 88 12t102 19.5t107 31t91.5 42.5t68 58t24.5 73q0 42 -30.5 61.5
t-70.5 19.5zM384 500q13 0 29 -3.5t17 -7.5q-5 -22 -41 -58t-64 -45l-6 9q18 15 38.5 46.5t26.5 58.5z" />
    <glyph glyph-name="Ldot" unicode="&#x13f;" horiz-adv-x="567" 
d="M17 311q0 172 381 172h5q51 0 78 5q35 10 58 12h8v-12q-52 -2 -94.5 -40.5t-68 -87.5t-65.5 -119t-76 -113q-56 -66 -127 -99q52 0 94 -13.5t64.5 -30t51 -30t55.5 -13.5q28 0 47.5 23t19.5 53q0 40 -39 40q-15 0 -28 -11l-9 7q17 23 53 23q33 0 53 -17.5t20 -42.5
q0 -89 -121 -89q-76 0 -154.5 34.5t-159.5 34.5q-13 0 -88 -7v12q66 6 118.5 44.5t89 94t68.5 114t75.5 116.5t93.5 89q-18 -2 -67 -2h-5q-41 0 -63 -0.5t-57 -3t-54 -8t-42.5 -16t-35.5 -25.5t-20.5 -38.5t-8.5 -53.5q0 -33 19.5 -57t50.5 -24q43 0 76 32l8 -9
q-44 -43 -103 -43q-49 0 -75 29.5t-26 69.5zM580 640q13 0 13 -16q0 -19 -19 -36.5t-38 -17.5q-13 0 -13 16q0 19 19 36.5t38 17.5z" />
    <glyph glyph-name="ldot" unicode="&#x140;" horiz-adv-x="336" 
d="M756 544q0 -177 -553 -251l-148 -238q-20 -33 2 -32q17 1 49 22l7 -8q-59 -47 -98 -47q-24 0 -31.5 18.5t5.5 38.5l149 239q-21 -2 -60 -2q-104 0 -163.5 40.5t-59.5 94.5q0 49 50 83.5t141 34.5q81 0 127 -24l-7 -9q-45 21 -117 21q-64 0 -107.5 -22.5t-43.5 -72.5
q0 -64 66.5 -93.5t160.5 -29.5q5 0 13.5 0.5t13.5 0.5l7 11q94 151 213 237t225 86q23 0 48 -5t51 -15t43 -30.5t17 -47.5zM595 630q-51 0 -107 -30t-105 -78.5t-88.5 -97t-70.5 -98.5l-9 -13q45 5 88 12t102 19.5t107 31t91.5 42.5t68 58t24.5 73q0 42 -30.5 61.5
t-70.5 19.5zM-54 -63q13 0 13 -16q0 -19 -19 -36.5t-38 -17.5q-13 0 -13 16q0 19 19 36.5t38 17.5z" />
    <glyph glyph-name="Lslash" unicode="&#x141;" horiz-adv-x="567" 
d="M17 311q0 172 381 172h5q51 0 78 5q35 10 58 12h8v-12q-21 -1 -39.5 -7.5t-33.5 -15.5t-30.5 -25t-26.5 -30t-25.5 -38t-23.5 -40t-24 -44t-24 -44l129 34l-11 -39l-143 -38q-27 -44 -52 -73q-56 -66 -127 -99q52 0 94 -13.5t64.5 -30t51 -30t55.5 -13.5q28 0 47.5 23
t19.5 53q0 40 -39 40q-15 0 -28 -11l-9 7q17 23 53 23q33 0 53 -17.5t20 -42.5q0 -89 -121 -89q-76 0 -154.5 34.5t-159.5 34.5q-13 0 -88 -7v12q76 7 129 52t101 123l-127 -34l10 39l143 38q3 6 17 29.5t18.5 31.5t17.5 29t20 30t19.5 26.5t22 27.5t22 23.5t25.5 23.5
t27 19q-18 -2 -67 -2h-5q-41 0 -63 -0.5t-57 -3t-54 -8t-42.5 -16t-35.5 -25.5t-20.5 -38.5t-8.5 -53.5q0 -33 19.5 -57t50.5 -24q43 0 76 32l8 -9q-44 -43 -103 -43q-49 0 -75 29.5t-26 69.5z" />
    <glyph glyph-name="lslash" unicode="&#x142;" horiz-adv-x="196" 
d="M756 544q0 -177 -553 -251l-53 -85l133 36l-10 -39l-150 -41l-68 -109q-20 -33 2 -32q17 1 49 22l7 -8q-59 -47 -98 -47q-24 0 -31.5 18.5t5.5 38.5l60 97l-136 -37l10 40l154 41l61 98q-21 -2 -60 -2q-104 0 -163.5 40.5t-59.5 94.5q0 49 50 83.5t141 34.5q81 0 127 -24
l-7 -9q-45 21 -117 21q-64 0 -107.5 -22.5t-43.5 -72.5q0 -64 66.5 -93.5t160.5 -29.5q5 0 13.5 0.5t13.5 0.5l7 11q94 151 213 237t225 86q23 0 48 -5t51 -15t43 -30.5t17 -47.5zM595 630q-51 0 -107 -30t-105 -78.5t-88.5 -97t-70.5 -98.5l-9 -13q45 5 88 12t102 19.5
t107 31t91.5 42.5t68 58t24.5 73q0 42 -30.5 61.5t-70.5 19.5z" />
    <glyph glyph-name="Nacute" unicode="&#x143;" horiz-adv-x="1161" 
d="M217 311q0 172 381 172h5q47 0 72 4q45 13 98 13v-14q-54 -1 -82 -98q-14 -47 -35 -175q-7 -38 -10 -57q32 65 73 122.5t94.5 109t121 82t138.5 30.5q58 0 98.5 -22.5t40.5 -71.5q0 -42 -28.5 -71t-78.5 -29q-57 0 -77 43l10 5q17 -27 51 -27q30 0 51.5 23t21.5 57
q0 79 -96 79q-33 0 -64.5 -7.5t-58 -19t-55 -35t-50.5 -44t-50.5 -59t-48 -66.5t-51 -80t-51.5 -86.5t-56 -98.5h-14q15 207 36 297q22 102 63 174q-35 -19 -79.5 -82.5t-92.5 -140t-81 -110.5q-62 -64 -140.5 -101t-158.5 -37q-58 0 -98.5 22.5t-40.5 71.5q0 42 28.5 71
t78.5 29q57 0 77 -43l-10 -5q-17 27 -51 27q-30 0 -51.5 -23t-21.5 -57q0 -79 96 -79q39 0 74.5 9t63.5 22.5t57 37.5t48.5 44.5t45 55t41 57t40.5 61.5t39 60q4 6 14 20.5t14 21t12.5 18t15 18.5t15 15t17.5 15q-17 -1 -65 -1h-5q-41 0 -63 -0.5t-57 -3t-54 -8t-42.5 -16
t-35.5 -25.5t-20.5 -38.5t-8.5 -53.5q0 -33 19.5 -57t50.5 -24q43 0 76 32l8 -9q-44 -43 -103 -43q-49 0 -75 29.5t-26 69.5zM939 681q13 0 29 -3.5t17 -7.5q-5 -22 -41 -58t-64 -45l-5 6q17 15 37.5 47.5t26.5 60.5z" />
    <glyph glyph-name="nacute" unicode="&#x144;" 
d="M94 240q24 0 31.5 -18.5t-5.5 -38.5l-2 -3q63 60 121 60q16 0 29 -9t13 -31q0 -27 -22 -61l-45 -73q-27 -45 -3 -43q16 1 48 22l7 -8q-59 -47 -98 -47q-24 0 -31.5 18.5t5.5 38.5l63 101q17 30 17 43q0 16 -17 16q-72 0 -143 -117l-57 -91q-6 -9 -12 -9q-8 0 -13 11
t-5 21q0 28 25 65l48 77q27 45 3 43q-16 -1 -48 -22l-7 8q59 47 98 47zM278 411q13 0 29 -3.5t17 -7.5q-5 -22 -41 -58t-64 -45l-5 6q17 15 37.5 47.5t26.5 60.5z" />
    <glyph glyph-name="Ncommaaccent" unicode="&#x145;" horiz-adv-x="1161" 
d="M217 311q0 172 381 172h5q47 0 72 4q45 13 98 13v-14q-54 -1 -82 -98q-14 -47 -35 -175q-7 -38 -10 -57q32 65 73 122.5t94.5 109t121 82t138.5 30.5q58 0 98.5 -22.5t40.5 -71.5q0 -42 -28.5 -71t-78.5 -29q-57 0 -77 43l10 5q17 -27 51 -27q30 0 51.5 23t21.5 57
q0 79 -96 79q-33 0 -64.5 -7.5t-58 -19t-55 -35t-50.5 -44t-50.5 -59t-48 -66.5t-51 -80t-51.5 -86.5t-56 -98.5h-14q15 207 36 297q22 102 63 174q-35 -19 -79.5 -82.5t-92.5 -140t-81 -110.5q-62 -64 -140.5 -101t-158.5 -37q-58 0 -98.5 22.5t-40.5 71.5q0 42 28.5 71
t78.5 29q57 0 77 -43l-10 -5q-17 27 -51 27q-30 0 -51.5 -23t-21.5 -57q0 -79 96 -79q39 0 74.5 9t63.5 22.5t57 37.5t48.5 44.5t45 55t41 57t40.5 61.5t39 60q4 6 14 20.5t14 21t12.5 18t15 18.5t15 15t17.5 15q-17 -1 -65 -1h-5q-41 0 -63 -0.5t-57 -3t-54 -8t-42.5 -16
t-35.5 -25.5t-20.5 -38.5t-8.5 -53.5q0 -33 19.5 -57t50.5 -24q43 0 76 32l8 -9q-44 -43 -103 -43q-49 0 -75 29.5t-26 69.5z" />
    <glyph glyph-name="ncommaaccent" unicode="&#x146;" 
d="M94 240q24 0 31.5 -18.5t-5.5 -38.5l-2 -3q63 60 121 60q16 0 29 -9t13 -31q0 -27 -22 -61l-45 -73q-27 -45 -3 -43q16 1 48 22l7 -8q-59 -47 -98 -47q-24 0 -31.5 18.5t5.5 38.5l63 101q17 30 17 43q0 16 -17 16q-72 0 -143 -117l-57 -91q-6 -9 -12 -9q-8 0 -13 11
t-5 21q0 28 25 65l48 77q27 45 3 43q-16 -1 -48 -22l-7 8q59 47 98 47z" />
    <glyph glyph-name="Ncaron" unicode="&#x147;" horiz-adv-x="1161" 
d="M217 311q0 172 381 172h5q47 0 72 4q45 13 98 13v-14q-54 -1 -82 -98q-14 -47 -35 -175q-7 -38 -10 -57q32 65 73 122.5t94.5 109t121 82t138.5 30.5q58 0 98.5 -22.5t40.5 -71.5q0 -42 -28.5 -71t-78.5 -29q-57 0 -77 43l10 5q17 -27 51 -27q30 0 51.5 23t21.5 57
q0 79 -96 79q-33 0 -64.5 -7.5t-58 -19t-55 -35t-50.5 -44t-50.5 -59t-48 -66.5t-51 -80t-51.5 -86.5t-56 -98.5h-14q15 207 36 297q22 102 63 174q-35 -19 -79.5 -82.5t-92.5 -140t-81 -110.5q-62 -64 -140.5 -101t-158.5 -37q-58 0 -98.5 22.5t-40.5 71.5q0 42 28.5 71
t78.5 29q57 0 77 -43l-10 -5q-17 27 -51 27q-30 0 -51.5 -23t-21.5 -57q0 -79 96 -79q39 0 74.5 9t63.5 22.5t57 37.5t48.5 44.5t45 55t41 57t40.5 61.5t39 60q4 6 14 20.5t14 21t12.5 18t15 18.5t15 15t17.5 15q-17 -1 -65 -1h-5q-41 0 -63 -0.5t-57 -3t-54 -8t-42.5 -16
t-35.5 -25.5t-20.5 -38.5t-8.5 -53.5q0 -33 19.5 -57t50.5 -24q43 0 76 32l8 -9q-44 -43 -103 -43q-49 0 -75 29.5t-26 69.5zM989 695l8 -11q-54 -34 -113 -114h-14q0 60 -37 119l13 7q33 -28 50 -68q38 42 93 67z" />
    <glyph glyph-name="ncaron" unicode="&#x148;" 
d="M94 240q24 0 31.5 -18.5t-5.5 -38.5l-2 -3q63 60 121 60q16 0 29 -9t13 -31q0 -27 -22 -61l-45 -73q-27 -45 -3 -43q16 1 48 22l7 -8q-59 -47 -98 -47q-24 0 -31.5 18.5t5.5 38.5l63 101q17 30 17 43q0 16 -17 16q-72 0 -143 -117l-57 -91q-6 -9 -12 -9q-8 0 -13 11
t-5 21q0 28 25 65l48 77q27 45 3 43q-16 -1 -48 -22l-7 8q59 47 98 47zM340 425l8 -11q-54 -34 -113 -114h-14q0 60 -37 119l13 7q33 -28 50 -68q38 42 93 67z" />
    <glyph glyph-name="napostrophe" unicode="&#x149;" 
d="M94 240q24 0 31.5 -18.5t-5.5 -38.5l-2 -3q63 60 121 60q16 0 29 -9t13 -31q0 -27 -22 -61l-45 -73q-27 -45 -3 -43q16 1 48 22l7 -8q-59 -47 -98 -47q-24 0 -31.5 18.5t5.5 38.5l63 101q17 30 17 43q0 16 -17 16q-72 0 -143 -117l-57 -91q-6 -9 -12 -9q-8 0 -13 11
t-5 21q0 28 25 65l48 77q27 45 3 43q-16 -1 -48 -22l-7 8q59 47 98 47z" />
    <glyph glyph-name="Eng" unicode="&#x14a;" horiz-adv-x="1161" 
d="M217 311q0 172 381 172h5q47 0 72 4q45 13 108 13v-14q-15 0 -28 -6.5t-23.5 -21t-19 -29t-17 -42t-14.5 -47.5t-13 -57.5t-11 -60t-12 -66.5q32 65 73 122.5t94.5 109t121 82t138.5 30.5q58 0 98.5 -22.5t40.5 -71.5q0 -42 -28.5 -71t-78.5 -29q-57 0 -77 43l10 5
q17 -27 51 -27q30 0 51.5 23t21.5 57q0 79 -96 79q-123 0 -213 -88.5t-197 -284.5q-179 -325 -399 -325q-61 0 -101.5 31t-40.5 76q0 28 26.5 58t77.5 43l4 -8q-59 -37 -59 -93q0 -44 29 -67t73 -23q28 0 54 7t47 16t42.5 27.5t36.5 32.5t33.5 41t28 41.5t26 45.5t22 42.5
t20.5 42.5q21 238 91 360q-35 -19 -79.5 -82.5t-92.5 -140t-81 -110.5q-62 -64 -140.5 -101t-158.5 -37q-58 0 -98.5 22.5t-40.5 71.5q0 42 28.5 71t78.5 29q57 0 77 -43l-10 -5q-17 27 -51 27q-30 0 -51.5 -23t-21.5 -57q0 -79 96 -79q39 0 74.5 9t63.5 22.5t57 37.5
t48.5 44.5t45 55t41 57t40.5 61.5t39 60q4 6 14 20.5t14 21t12.5 18t15 18.5t15 15t17.5 15q-17 -1 -65 -1h-5q-41 0 -63 -0.5t-57 -3t-54 -8t-42.5 -16t-35.5 -25.5t-20.5 -38.5t-8.5 -53.5q0 -33 19.5 -57t50.5 -24q43 0 76 32l8 -9q-44 -43 -103 -43q-49 0 -75 29.5
t-26 69.5z" />
    <glyph glyph-name="eng" unicode="&#x14b;" horiz-adv-x="318" 
d="M89 240q24 0 31.5 -18.5t-5.5 -38.5l-2 -3q63 60 121 60q16 0 29 -9t13 -31q0 -27 -22 -61l-135 -216q-94 -151 -213 -237t-225 -86q-53 0 -101 23.5t-48 74.5q0 48 40 88t97.5 66t136.5 47t140.5 31t127.5 18l126 200q17 30 17 43q0 16 -17 16q-72 0 -143 -117l-57 -91
q-6 -9 -12 -9q-8 0 -13 11t-5 21q0 28 25 65l48 77q27 45 3 43q-16 -1 -48 -22l-7 8q59 47 98 47zM-317 -388q51 0 107 30t105 78.5t88.5 97t70.5 98.5l12 19q-62 -8 -118.5 -19t-126.5 -32t-120 -46t-84.5 -63t-34.5 -82q0 -42 30.5 -61.5t70.5 -19.5z" />
    <glyph glyph-name="Omacron" unicode="&#x14c;" horiz-adv-x="597" 
d="M57 111q-5 74 41.5 149.5t117 129t150 87t141.5 33.5q69 0 110 -33.5t44 -88.5q6 -91 -69.5 -186t-183 -153.5t-197.5 -58.5q-68 0 -109.5 33t-44.5 88zM502 496q-68 0 -158.5 -60.5t-157 -157.5t-61.5 -185q5 -89 92 -89q52 0 119.5 39t125.5 96.5t96.5 131.5t34.5 138
q-5 87 -91 87zM647 569h-178l15 21h178z" />
    <glyph glyph-name="omacron" unicode="&#x14d;" horiz-adv-x="327" 
d="M-19 54q-3 68 73 129.5t149 61.5q69 0 71 -63q2 -68 -72.5 -130t-148.5 -62q-70 0 -72 64zM196 233q-48 0 -105.5 -76t-55.5 -127q2 -28 24 -28q39 0 100 75t60 129q-2 27 -23 27zM332 299h-178l15 21h178z" />
    <glyph glyph-name="Obreve" unicode="&#x14e;" horiz-adv-x="597" 
d="M57 111q-5 74 41.5 149.5t117 129t150 87t141.5 33.5q69 0 110 -33.5t44 -88.5q6 -91 -69.5 -186t-183 -153.5t-197.5 -58.5q-68 0 -109.5 33t-44.5 88zM502 496q-68 0 -158.5 -60.5t-157 -157.5t-61.5 -185q5 -89 92 -89q52 0 119.5 39t125.5 96.5t96.5 131.5t34.5 138
q-5 87 -91 87zM564 595q36 0 74 37h20q-42 -62 -97 -62q-27 0 -47.5 17t-20.5 45h20q6 -37 51 -37z" />
    <glyph glyph-name="obreve" unicode="&#x14f;" horiz-adv-x="327" 
d="M-19 54q-3 68 73 129.5t149 61.5q69 0 71 -63q2 -68 -72.5 -130t-148.5 -62q-70 0 -72 64zM196 233q-48 0 -105.5 -76t-55.5 -127q2 -28 24 -28q39 0 100 75t60 129q-2 27 -23 27zM249 325q36 0 74 37h20q-42 -62 -97 -62q-27 0 -47.5 17t-20.5 45h20q6 -37 51 -37z" />
    <glyph glyph-name="Ohungarumlaut" unicode="&#x150;" horiz-adv-x="597" 
d="M57 111q-5 74 41.5 149.5t117 129t150 87t141.5 33.5q69 0 110 -33.5t44 -88.5q6 -91 -69.5 -186t-183 -153.5t-197.5 -58.5q-68 0 -109.5 33t-44.5 88zM502 496q-68 0 -158.5 -60.5t-157 -157.5t-61.5 -185q5 -89 92 -89q52 0 119.5 39t125.5 96.5t96.5 131.5t34.5 138
q-5 87 -91 87zM577 682q32 0 36 -11q-6 -23 -37 -59t-58 -44l-5 6q17 15 37.5 47.5t26.5 60.5zM657 682q32 0 36 -11q-6 -23 -37 -59t-58 -44l-5 6q17 15 37.5 47.5t26.5 60.5z" />
    <glyph glyph-name="ohungarumlaut" unicode="&#x151;" horiz-adv-x="327" 
d="M-19 54q-3 68 73 129.5t149 61.5q69 0 71 -63q2 -68 -72.5 -130t-148.5 -62q-70 0 -72 64zM196 233q-48 0 -105.5 -76t-55.5 -127q2 -28 24 -28q39 0 100 75t60 129q-2 27 -23 27zM242 412q32 0 36 -11q-6 -23 -37 -59t-58 -44l-5 6q17 15 37.5 47.5t26.5 60.5zM322 412
q32 0 36 -11q-6 -23 -37 -59t-58 -44l-5 6q17 15 37.5 47.5t26.5 60.5z" />
    <glyph glyph-name="OE" unicode="&#x152;" horiz-adv-x="881" 
d="M798 486q-92 0 -153.5 -55.5t-61.5 -111.5q0 -24 14.5 -46.5t39.5 -22.5v-12q-93 -7 -148 -61v-1q-37 -35 -37 -87q0 -43 31.5 -63.5t82.5 -20.5q77 0 147 42t70 103q0 30 -18 47.5t-45 17.5q-30 0 -56 -20l-8 10q35 30 88 30q36 0 62.5 -23t26.5 -59q0 -46 -47 -84.5
t-114 -58.5t-134 -20q-68 0 -113.5 22.5t-47.5 67.5q-133 -90 -247 -90q-68 0 -109.5 33t-44.5 88q-5 74 41.5 149.5t117 129t150 87t141.5 33.5q55 0 93 -22.5t53 -61.5q47 35 113.5 54.5t113.5 19.5q44 0 73 -13t29 -40q0 -68 -112 -84l-5 11q22 5 44.5 26t22.5 45
q0 18 -13.5 29.5t-39.5 11.5zM421 496q-68 0 -158.5 -60.5t-157 -157.5t-61.5 -185q5 -89 92 -89q52 0 119.5 39t125.5 96.5t96.5 131.5t34.5 138q-5 87 -91 87z" />
    <glyph glyph-name="oe" unicode="&#x153;" horiz-adv-x="474" 
d="M404 68l7 -10q-105 -68 -184 -68q-66 0 -69 43q-66 -43 -125 -43q-71 0 -71 64q0 68 78.5 129.5t151.5 61.5q64 0 69 -56q70 51 129 51q69 0 69 -40q0 -84 -230 -111q-6 -18 -6 -34q0 -30 43 -30q57 0 138 43zM184 232q-48 0 -107.5 -75.5t-59.5 -126.5q0 -27 23 -27
q39 0 102.5 74.5t63.5 128.5q0 26 -22 26zM237 106q18 1 43 7t51.5 16.5t44.5 28.5t18 40q0 23 -20 23q-37 0 -76.5 -35.5t-60.5 -79.5z" />
    <glyph glyph-name="Racute" unicode="&#x154;" horiz-adv-x="979" 
d="M507 244h33q53 6 89.5 36.5t36.5 85.5q0 57 -47 89q-45 -36 -111 -157.5t-106 -169.5q-54 -62 -130.5 -100t-157.5 -38q-58 0 -98.5 22.5t-40.5 71.5q0 42 28.5 71t78.5 29q57 0 77 -43l-10 -5q-17 27 -51 27q-30 0 -51.5 -23t-21.5 -57q0 -79 96 -79q64 0 115 27.5
t83.5 70t64.5 96.5t57.5 104.5t63 97.5t79.5 71q-42 15 -99 15q-58 0 -111 -16.5t-92.5 -57.5t-39.5 -99q0 -27 19.5 -51.5t51.5 -24.5q42 0 68 25l8 -9q-42 -42 -98 -42q-48 0 -73.5 28.5t-25.5 67.5q0 60 49 105.5t114.5 66.5t129.5 21q67 0 127 -16q40 16 86 16h8v-12
q-32 -1 -59 -15q94 -36 94 -110q0 -47 -40 -78.5t-107 -45.5q34 -9 53 -36.5t25.5 -60t14 -64t26.5 -52.5t53 -21q29 0 48 18.5t19 47.5q0 40 -39 40q-15 0 -28 -11l-9 7q17 23 53 23q33 0 53 -17.5t20 -42.5q0 -31 -31 -55t-86 -24q-66 0 -100 24.5t-43 59.5t-15 70
t-29 60.5t-72 26.5v12zM745 681q13 0 29 -3.5t17 -7.5q-5 -22 -41 -58t-64 -45l-5 6q17 15 37.5 47.5t26.5 60.5z" />
    <glyph glyph-name="racute" unicode="&#x155;" horiz-adv-x="260" 
d="M91 240q29 0 33 -25q41 25 79 25q45 0 57 -34l-51 -52l-9 8q10 19 10 36q0 23 -23 23q-27 0 -51.5 -25t-53.5 -69l-81 -128q-6 -9 -12 -9q-8 0 -13 11t-5 21q0 28 25 65l49 77q27 45 3 43q-16 -1 -48 -22l-7 8q59 47 98 47zM242 411q13 0 29 -3.5t17 -7.5q-5 -22 -41 -58
t-64 -45l-5 6q17 15 37.5 47.5t26.5 60.5z" />
    <glyph glyph-name="Rcommaaccent" unicode="&#x156;" horiz-adv-x="979" 
d="M507 244h33q53 6 89.5 36.5t36.5 85.5q0 57 -47 89q-45 -36 -111 -157.5t-106 -169.5q-54 -62 -130.5 -100t-157.5 -38q-58 0 -98.5 22.5t-40.5 71.5q0 42 28.5 71t78.5 29q57 0 77 -43l-10 -5q-17 27 -51 27q-30 0 -51.5 -23t-21.5 -57q0 -79 96 -79q64 0 115 27.5
t83.5 70t64.5 96.5t57.5 104.5t63 97.5t79.5 71q-42 15 -99 15q-58 0 -111 -16.5t-92.5 -57.5t-39.5 -99q0 -27 19.5 -51.5t51.5 -24.5q42 0 68 25l8 -9q-42 -42 -98 -42q-48 0 -73.5 28.5t-25.5 67.5q0 60 49 105.5t114.5 66.5t129.5 21q67 0 127 -16q40 16 86 16h8v-12
q-32 -1 -59 -15q94 -36 94 -110q0 -47 -40 -78.5t-107 -45.5q34 -9 53 -36.5t25.5 -60t14 -64t26.5 -52.5t53 -21q29 0 48 18.5t19 47.5q0 40 -39 40q-15 0 -28 -11l-9 7q17 23 53 23q33 0 53 -17.5t20 -42.5q0 -31 -31 -55t-86 -24q-66 0 -100 24.5t-43 59.5t-15 70
t-29 60.5t-72 26.5v12z" />
    <glyph glyph-name="rcommaaccent" unicode="&#x157;" horiz-adv-x="260" 
d="M91 240q29 0 33 -25q41 25 79 25q45 0 57 -34l-51 -52l-9 8q10 19 10 36q0 23 -23 23q-27 0 -51.5 -25t-53.5 -69l-81 -128q-6 -9 -12 -9q-8 0 -13 11t-5 21q0 28 25 65l49 77q27 45 3 43q-16 -1 -48 -22l-7 8q59 47 98 47zM35 -52q13 0 29 -3.5t17 -7.5q-5 -22 -41 -58
t-64 -45l-6 9q18 15 38.5 46.5t26.5 58.5z" />
    <glyph glyph-name="Rcaron" unicode="&#x158;" horiz-adv-x="979" 
d="M507 244h33q53 6 89.5 36.5t36.5 85.5q0 57 -47 89q-45 -36 -111 -157.5t-106 -169.5q-54 -62 -130.5 -100t-157.5 -38q-58 0 -98.5 22.5t-40.5 71.5q0 42 28.5 71t78.5 29q57 0 77 -43l-10 -5q-17 27 -51 27q-30 0 -51.5 -23t-21.5 -57q0 -79 96 -79q64 0 115 27.5
t83.5 70t64.5 96.5t57.5 104.5t63 97.5t79.5 71q-42 15 -99 15q-58 0 -111 -16.5t-92.5 -57.5t-39.5 -99q0 -27 19.5 -51.5t51.5 -24.5q42 0 68 25l8 -9q-42 -42 -98 -42q-48 0 -73.5 28.5t-25.5 67.5q0 60 49 105.5t114.5 66.5t129.5 21q67 0 127 -16q40 16 86 16h8v-12
q-32 -1 -59 -15q94 -36 94 -110q0 -47 -40 -78.5t-107 -45.5q34 -9 53 -36.5t25.5 -60t14 -64t26.5 -52.5t53 -21q29 0 48 18.5t19 47.5q0 40 -39 40q-15 0 -28 -11l-9 7q17 23 53 23q33 0 53 -17.5t20 -42.5q0 -31 -31 -55t-86 -24q-66 0 -100 24.5t-43 59.5t-15 70
t-29 60.5t-72 26.5v12zM795 695l8 -11q-54 -34 -113 -114h-14q0 60 -37 119l13 7q33 -28 50 -68q38 42 93 67z" />
    <glyph glyph-name="rcaron" unicode="&#x159;" horiz-adv-x="260" 
d="M91 240q29 0 33 -25q41 25 79 25q45 0 57 -34l-51 -52l-9 8q10 19 10 36q0 23 -23 23q-27 0 -51.5 -25t-53.5 -69l-81 -128q-6 -9 -12 -9q-8 0 -13 11t-5 21q0 28 25 65l49 77q27 45 3 43q-16 -1 -48 -22l-7 8q59 47 98 47zM325 425l8 -11q-54 -34 -113 -114h-14
q0 60 -37 119l13 7q33 -28 50 -68q38 42 93 67z" />
    <glyph glyph-name="Sacute" unicode="&#x15a;" horiz-adv-x="412" 
d="M25 91q0 -37 27 -62t74 -25q43 0 71.5 13t42 38.5t18 52t4.5 64.5q0 30 -5.5 87.5t-5.5 86.5q0 74 29.5 114t115.5 40q52 0 82 -22.5t30 -54.5q0 -25 -22.5 -47t-66.5 -35l-5 11q20 13 32 34.5t12 42.5q0 25 -15.5 41t-45.5 16q-45 0 -62.5 -28.5t-17.5 -79.5
q0 -26 6 -83.5t6 -89.5q0 -98 -50.5 -156.5t-152.5 -58.5q-70 0 -110.5 30t-40.5 72q0 43 28.5 71.5t78.5 28.5q57 0 77 -43l-11 -6q-18 28 -50 28q-30 0 -51.5 -23t-21.5 -57zM537 681q13 0 29 -3.5t17 -7.5q-5 -22 -41 -58t-64 -45l-5 6q17 15 37.5 47.5t26.5 60.5z" />
    <glyph glyph-name="sacute" unicode="&#x15b;" horiz-adv-x="283" 
d="M6 77l9 -5q-8 -16 -8 -32t9.5 -27t29.5 -11q26 0 52 17t26 38q0 11 -14.5 21.5t-32 18.5t-32 22.5t-14.5 33.5q0 34 42.5 60.5t93.5 26.5q57 0 71 -40l-45 -46l-8 6q10 20 10 37q0 13 -9.5 22t-27.5 9q-22 0 -44.5 -16t-22.5 -38q0 -10 14.5 -20.5t32 -19.5t32 -25
t14.5 -35q0 -31 -44.5 -57.5t-97.5 -26.5q-65 0 -87 35zM271 411q13 0 29 -3.5t17 -7.5q-5 -22 -41 -58t-64 -45l-5 6q17 15 37.5 47.5t26.5 60.5z" />
    <glyph glyph-name="Scircumflex" unicode="&#x15c;" horiz-adv-x="412" 
d="M25 91q0 -37 27 -62t74 -25q43 0 71.5 13t42 38.5t18 52t4.5 64.5q0 30 -5.5 87.5t-5.5 86.5q0 74 29.5 114t115.5 40q52 0 82 -22.5t30 -54.5q0 -25 -22.5 -47t-66.5 -35l-5 11q20 13 32 34.5t12 42.5q0 25 -15.5 41t-45.5 16q-45 0 -62.5 -28.5t-17.5 -79.5
q0 -26 6 -83.5t6 -89.5q0 -98 -50.5 -156.5t-152.5 -58.5q-70 0 -110.5 30t-40.5 72q0 43 28.5 71.5t78.5 28.5q57 0 77 -43l-11 -6q-18 28 -50 28q-30 0 -51.5 -23t-21.5 -57zM409 568l-10 13q58 40 111 115h15q0 -64 39 -125l-13 -7q-7 6 -24 32.5t-28 50.5
q-55 -57 -90 -79z" />
    <glyph glyph-name="scircumflex" unicode="&#x15d;" horiz-adv-x="283" 
d="M6 77l9 -5q-8 -16 -8 -32t9.5 -27t29.5 -11q26 0 52 17t26 38q0 11 -14.5 21.5t-32 18.5t-32 22.5t-14.5 33.5q0 34 42.5 60.5t93.5 26.5q57 0 71 -40l-45 -46l-8 6q10 20 10 37q0 13 -9.5 22t-27.5 9q-22 0 -44.5 -16t-22.5 -38q0 -10 14.5 -20.5t32 -19.5t32 -25
t14.5 -35q0 -31 -44.5 -57.5t-97.5 -26.5q-65 0 -87 35zM143 298l-10 13q58 40 111 115h15q0 -64 39 -125l-13 -7q-7 6 -24 32.5t-28 50.5q-55 -57 -90 -79z" />
    <glyph glyph-name="Scedilla" unicode="&#x15e;" horiz-adv-x="412" 
d="M25 91q0 -37 27 -62t74 -25q43 0 71.5 13t42 38.5t18 52t4.5 64.5q0 30 -5.5 87.5t-5.5 86.5q0 74 29.5 114t115.5 40q52 0 82 -22.5t30 -54.5q0 -25 -22.5 -47t-66.5 -35l-5 11q20 13 32 34.5t12 42.5q0 25 -15.5 41t-45.5 16q-45 0 -62.5 -28.5t-17.5 -79.5
q0 -26 6 -83.5t6 -89.5q0 -98 -50.5 -156.5t-152.5 -58.5q-70 0 -110.5 30t-40.5 72q0 43 28.5 71.5t78.5 28.5q57 0 77 -43l-11 -6q-18 28 -50 28q-30 0 -51.5 -23t-21.5 -57zM-122 -115q17 -10 43.5 -15.5t50.5 3t24 35.5q0 14 -10.5 24.5t-28.5 11.5l44 53h27l-28 -31
q26 -4 39.5 -19.5t13.5 -32.5q0 -41 -36.5 -57t-80.5 -9t-71 26z" />
    <glyph glyph-name="scedilla" unicode="&#x15f;" horiz-adv-x="283" 
d="M-55 -94q17 -10 43.5 -15.5t50.5 3t24 35.5q0 13 -10.5 24t-28.5 12l21 25h-3q-65 0 -87 35l51 52l9 -5q-8 -16 -8 -32t9.5 -27t29.5 -11h9l13 16h27l-2 -2q31 18 31 41q0 11 -14.5 21.5t-32 18.5t-32 22.5t-14.5 33.5q0 34 42.5 60.5t93.5 26.5q57 0 71 -40l-45 -46
l-8 6q10 20 10 37q0 13 -9.5 22t-27.5 9q-22 0 -44.5 -16t-22.5 -38q0 -10 14.5 -20.5t32 -19.5t32 -25t14.5 -35q0 -26 -33.5 -50t-78.5 -31l-5 -6q26 -4 39.5 -19.5t13.5 -32.5q0 -41 -36.5 -57t-80.5 -9t-71 26z" />
    <glyph glyph-name="Scaron" unicode="&#x160;" horiz-adv-x="405" 
d="M54 91q0 -37 27 -62t74 -25q43 0 71.5 13t42 38.5t18 52t4.5 64.5q0 30 -5.5 87.5t-5.5 86.5q0 74 29.5 114t115.5 40q52 0 82 -22.5t30 -54.5q0 -25 -22.5 -47t-66.5 -35l-5 11q20 13 32 34.5t12 42.5q0 25 -15.5 41t-45.5 16q-45 0 -62.5 -28.5t-17.5 -79.5
q0 -26 6 -83.5t6 -89.5q0 -98 -50.5 -156.5t-152.5 -58.5q-70 0 -110.5 30t-40.5 72q0 43 28.5 71.5t78.5 28.5q57 0 77 -43l-11 -6q-18 28 -50 28q-30 0 -51.5 -23t-21.5 -57zM616 695l8 -11q-54 -34 -113 -114h-14q0 60 -37 119l13 7q33 -28 50 -68q38 42 93 67z" />
    <glyph glyph-name="scaron" unicode="&#x161;" horiz-adv-x="0" 
d="M40 77l9 -5q-8 -16 -8 -32t9.5 -27t29.5 -11q26 0 52 17t26 38q0 11 -14.5 21.5t-32 18.5t-32 22.5t-14.5 33.5q0 34 42.5 60.5t93.5 26.5q57 0 71 -40l-45 -46l-8 6q10 20 10 37q0 13 -9.5 22t-27.5 9q-22 0 -44.5 -16t-22.5 -38q0 -10 14.5 -20.5t32 -19.5t32 -25
t14.5 -35q0 -31 -44.5 -57.5t-97.5 -26.5q-65 0 -87 35zM355 425l8 -11q-54 -34 -113 -114h-14q0 60 -37 119l13 7q33 -28 50 -68q38 42 93 67z" />
    <glyph glyph-name="Tcommaaccent" unicode="&#x162;" horiz-adv-x="784" 
d="M184 320q0 180 439 180h195q6 0 6 -5q0 -10 -10 -20t-18 -10h-162q-40 -25 -76 -83.5t-77 -133.5t-79 -120q-54 -62 -131 -100t-157 -38q-58 0 -98.5 22.5t-40.5 71.5q0 42 28.5 71t78.5 29q57 0 77 -43l-10 -5q-17 27 -51 27q-30 0 -51.5 -23t-21.5 -57q0 -79 96 -79
q75 0 131.5 37t94 95t69 119.5t73.5 121.5t90 89h-129q-104 0 -160 -29.5t-56 -114.5q0 -33 19.5 -57t50.5 -24q43 0 76 32l8 -9q-44 -43 -103 -43q-49 0 -75 29.5t-26 69.5z" />
    <glyph glyph-name="tcommaaccent" unicode="&#x163;" horiz-adv-x="186" 
d="M136 64q-58 -74 -136 -74q-16 0 -25 9t-9 22q0 14 8 26l110 175h-63l10 18h64l29 45q36 5 71 40l11 -4l-51 -81h91l-10 -18h-92l-107 -173q-14 -23 8 -23q34 0 81 47z" />
    <glyph glyph-name="Tcaron" unicode="&#x164;" horiz-adv-x="784" 
d="M184 320q0 180 439 180h195q6 0 6 -5q0 -10 -10 -20t-18 -10h-162q-40 -25 -76 -83.5t-77 -133.5t-79 -120q-54 -62 -131 -100t-157 -38q-58 0 -98.5 22.5t-40.5 71.5q0 42 28.5 71t78.5 29q57 0 77 -43l-10 -5q-17 27 -51 27q-30 0 -51.5 -23t-21.5 -57q0 -79 96 -79
q75 0 131.5 37t94 95t69 119.5t73.5 121.5t90 89h-129q-104 0 -160 -29.5t-56 -114.5q0 -33 19.5 -57t50.5 -24q43 0 76 32l8 -9q-44 -43 -103 -43q-49 0 -75 29.5t-26 69.5zM795 695l8 -11q-54 -34 -113 -114h-14q0 60 -37 119l13 7q33 -28 50 -68q38 42 93 67z" />
    <glyph glyph-name="tcaron" unicode="&#x165;" horiz-adv-x="335" 
d="M136 64q-58 -74 -136 -74q-16 0 -25 9t-9 22q0 14 8 26l110 175h-63l10 18h64l29 45q36 5 71 40l11 -4l-51 -81h91l-10 -18h-92l-107 -173q-14 -23 8 -23q34 0 81 47zM374 500q13 0 29 -3.5t17 -7.5q-5 -22 -41 -58t-64 -45l-6 9q18 15 38.5 46.5t26.5 58.5z" />
    <glyph glyph-name="Tbar" unicode="&#x166;" horiz-adv-x="784" 
d="M581 318h-61q-3 -5 -25 -45t-30.5 -55t-27 -42.5t-35.5 -47.5q-54 -62 -131 -100t-157 -38q-58 0 -98.5 22.5t-40.5 71.5q0 42 28.5 71t78.5 29q57 0 77 -43l-10 -5q-17 27 -51 27q-30 0 -51.5 -23t-21.5 -57q0 -79 96 -79q39 0 72.5 9t61 29t48.5 40.5t42.5 53.5
t35.5 57t35.5 64t33.5 61h-47l15 21h45q56 91 116 127h-129q-104 0 -160 -29.5t-56 -114.5q0 -33 19.5 -57t50.5 -24q43 0 76 32l8 -9q-44 -43 -103 -43q-49 0 -75 29.5t-26 69.5q0 180 439 180h195q6 0 6 -5q0 -10 -10 -20t-18 -10h-162q-47 -30 -103 -126h65z" />
    <glyph glyph-name="tbar" unicode="&#x167;" horiz-adv-x="186" 
d="M230 267h-58l-17 -27h91l-10 -18h-92l-107 -173q-14 -23 8 -23q34 0 81 47l10 -9q-58 -74 -136 -74q-16 0 -25 9t-9 22q0 14 8 26l110 175h-63l10 18h64l17 27h-60l15 21h70q31 10 58 37l11 -4l-21 -33h60z" />
    <glyph glyph-name="Utilde" unicode="&#x168;" horiz-adv-x="608" 
d="M-124 338q0 62 71 112t151 50q51 0 88.5 -23t37.5 -68q0 -39 -27 -82l-115 -184q-32 -47 -17.5 -92.5t68.5 -45.5q87 0 170 121q24 35 58 89.5t56 89t54 75.5t60 64.5t66.5 39.5t80.5 16q54 0 87 -19t33 -58q0 -31 -27 -57t-67 -26q-55 0 -94 38l8 9q25 -24 63 -24
q27 0 45.5 20t18.5 43q0 62 -71 62q-48 0 -110.5 -73t-143.5 -201l-89 -141q-8 -12 -12.5 -22t-5.5 -18.5t3 -13t14 -4.5q17 0 60 26l7 -12q-54 -39 -99 -39q-66 0 -45 56q-54 -56 -130 -56q-52 0 -84.5 20.5t-37.5 62t35 103.5l98 154q30 48 30 87q0 36 -22.5 54t-56.5 18
q-57 0 -108 -43.5t-51 -110.5q0 -65 56 -65q38 0 69 30l7 -8q-47 -45 -100 -45q-41 0 -61.5 29.5t-20.5 61.5zM425 623q14 0 38.5 -13.5t39.5 -13.5q27 0 41 21l9 -3q-3 -24 -22.5 -38t-39.5 -14q-14 0 -38.5 13.5t-39.5 13.5q-27 0 -41 -21l-9 3q3 24 22.5 38t39.5 14z" />
    <glyph glyph-name="utilde" unicode="&#x169;" horiz-adv-x="346" 
d="M199 140l27 44q33 56 70 56q15 0 15 -12q0 -3 -2 -9l-96 -153q-27 -45 -3 -43q16 1 48 22l7 -8q-59 -47 -98 -47q-24 0 -31.5 18.5t6.5 40.5q-63 -59 -120 -59q-16 0 -29 9t-13 31q0 27 22 61l45 73q27 45 3 43q-16 -1 -48 -22l-7 8q59 47 98 47q24 0 31.5 -18.5
t-5.5 -38.5l-63 -101q-17 -30 -17 -43q0 -16 17 -16q72 0 143 117zM197 353q14 0 38.5 -13.5t39.5 -13.5q27 0 41 21l9 -3q-3 -24 -22.5 -38t-39.5 -14q-14 0 -38.5 13.5t-39.5 13.5q-27 0 -41 -21l-9 3q3 24 22.5 38t39.5 14z" />
    <glyph glyph-name="Umacron" unicode="&#x16a;" horiz-adv-x="608" 
d="M-124 338q0 62 71 112t151 50q51 0 88.5 -23t37.5 -68q0 -39 -27 -82l-115 -184q-32 -47 -17.5 -92.5t68.5 -45.5q87 0 170 121q24 35 58 89.5t56 89t54 75.5t60 64.5t66.5 39.5t80.5 16q54 0 87 -19t33 -58q0 -31 -27 -57t-67 -26q-55 0 -94 38l8 9q25 -24 63 -24
q27 0 45.5 20t18.5 43q0 62 -71 62q-48 0 -110.5 -73t-143.5 -201l-89 -141q-8 -12 -12.5 -22t-5.5 -18.5t3 -13t14 -4.5q17 0 60 26l7 -12q-54 -39 -99 -39q-66 0 -45 56q-54 -56 -130 -56q-52 0 -84.5 20.5t-37.5 62t35 103.5l98 154q30 48 30 87q0 36 -22.5 54t-56.5 18
q-57 0 -108 -43.5t-51 -110.5q0 -65 56 -65q38 0 69 30l7 -8q-47 -45 -100 -45q-41 0 -61.5 29.5t-20.5 61.5zM549 569h-178l15 21h178z" />
    <glyph glyph-name="umacron" unicode="&#x16b;" horiz-adv-x="346" 
d="M199 140l27 44q33 56 70 56q15 0 15 -12q0 -3 -2 -9l-96 -153q-27 -45 -3 -43q16 1 48 22l7 -8q-59 -47 -98 -47q-24 0 -31.5 18.5t6.5 40.5q-63 -59 -120 -59q-16 0 -29 9t-13 31q0 27 22 61l45 73q27 45 3 43q-16 -1 -48 -22l-7 8q59 47 98 47q24 0 31.5 -18.5
t-5.5 -38.5l-63 -101q-17 -30 -17 -43q0 -16 17 -16q72 0 143 117zM321 299h-178l15 21h178z" />
    <glyph glyph-name="Ubreve" unicode="&#x16c;" horiz-adv-x="608" 
d="M-124 338q0 62 71 112t151 50q51 0 88.5 -23t37.5 -68q0 -39 -27 -82l-115 -184q-32 -47 -17.5 -92.5t68.5 -45.5q87 0 170 121q24 35 58 89.5t56 89t54 75.5t60 64.5t66.5 39.5t80.5 16q54 0 87 -19t33 -58q0 -31 -27 -57t-67 -26q-55 0 -94 38l8 9q25 -24 63 -24
q27 0 45.5 20t18.5 43q0 62 -71 62q-48 0 -110.5 -73t-143.5 -201l-89 -141q-8 -12 -12.5 -22t-5.5 -18.5t3 -13t14 -4.5q17 0 60 26l7 -12q-54 -39 -99 -39q-66 0 -45 56q-54 -56 -130 -56q-52 0 -84.5 20.5t-37.5 62t35 103.5l98 154q30 48 30 87q0 36 -22.5 54t-56.5 18
q-57 0 -108 -43.5t-51 -110.5q0 -65 56 -65q38 0 69 30l7 -8q-47 -45 -100 -45q-41 0 -61.5 29.5t-20.5 61.5zM466 595q36 0 74 37h20q-42 -62 -97 -62q-27 0 -47.5 17t-20.5 45h20q6 -37 51 -37z" />
    <glyph glyph-name="ubreve" unicode="&#x16d;" horiz-adv-x="346" 
d="M199 140l27 44q33 56 70 56q15 0 15 -12q0 -3 -2 -9l-96 -153q-27 -45 -3 -43q16 1 48 22l7 -8q-59 -47 -98 -47q-24 0 -31.5 18.5t6.5 40.5q-63 -59 -120 -59q-16 0 -29 9t-13 31q0 27 22 61l45 73q27 45 3 43q-16 -1 -48 -22l-7 8q59 47 98 47q24 0 31.5 -18.5
t-5.5 -38.5l-63 -101q-17 -30 -17 -43q0 -16 17 -16q72 0 143 117zM238 325q36 0 74 37h20q-42 -62 -97 -62q-27 0 -47.5 17t-20.5 45h20q6 -37 51 -37z" />
    <glyph glyph-name="Uring" unicode="&#x16e;" horiz-adv-x="608" 
d="M-124 338q0 62 71 112t151 50q51 0 88.5 -23t37.5 -68q0 -39 -27 -82l-115 -184q-32 -47 -17.5 -92.5t68.5 -45.5q87 0 170 121q24 35 58 89.5t56 89t54 75.5t60 64.5t66.5 39.5t80.5 16q54 0 87 -19t33 -58q0 -31 -27 -57t-67 -26q-55 0 -94 38l8 9q25 -24 63 -24
q27 0 45.5 20t18.5 43q0 62 -71 62q-48 0 -110.5 -73t-143.5 -201l-89 -141q-8 -12 -12.5 -22t-5.5 -18.5t3 -13t14 -4.5q17 0 60 26l7 -12q-54 -39 -99 -39q-66 0 -45 56q-54 -56 -130 -56q-52 0 -84.5 20.5t-37.5 62t35 103.5l98 154q30 48 30 87q0 36 -22.5 54t-56.5 18
q-57 0 -108 -43.5t-51 -110.5q0 -65 56 -65q38 0 69 30l7 -8q-47 -45 -100 -45q-41 0 -61.5 29.5t-20.5 61.5zM514 656q16 0 27 -7.5t11 -18.5q0 -24 -31.5 -42.5t-60.5 -18.5q-16 0 -26.5 7t-10.5 18q0 25 31 43.5t60 18.5zM507 644q-19 0 -37 -13t-18 -33q0 -16 16 -16
q19 0 37 13t18 33q0 16 -16 16z" />
    <glyph glyph-name="uring" unicode="&#x16f;" horiz-adv-x="346" 
d="M199 140l27 44q33 56 70 56q15 0 15 -12q0 -3 -2 -9l-96 -153q-27 -45 -3 -43q16 1 48 22l7 -8q-59 -47 -98 -47q-24 0 -31.5 18.5t6.5 40.5q-63 -59 -120 -59q-16 0 -29 9t-13 31q0 27 22 61l45 73q27 45 3 43q-16 -1 -48 -22l-7 8q59 47 98 47q24 0 31.5 -18.5
t-5.5 -38.5l-63 -101q-17 -30 -17 -43q0 -16 17 -16q72 0 143 117zM286 386q16 0 27 -7.5t11 -18.5q0 -24 -31.5 -42.5t-60.5 -18.5q-16 0 -26.5 7t-10.5 18q0 25 31 43.5t60 18.5zM279 374q-19 0 -37 -13t-18 -33q0 -16 16 -16q19 0 37 13t18 33q0 16 -16 16z" />
    <glyph glyph-name="Uhungarumlaut" unicode="&#x170;" horiz-adv-x="608" 
d="M-124 338q0 62 71 112t151 50q51 0 88.5 -23t37.5 -68q0 -39 -27 -82l-115 -184q-32 -47 -17.5 -92.5t68.5 -45.5q87 0 170 121q24 35 58 89.5t56 89t54 75.5t60 64.5t66.5 39.5t80.5 16q54 0 87 -19t33 -58q0 -31 -27 -57t-67 -26q-55 0 -94 38l8 9q25 -24 63 -24
q27 0 45.5 20t18.5 43q0 62 -71 62q-48 0 -110.5 -73t-143.5 -201l-89 -141q-8 -12 -12.5 -22t-5.5 -18.5t3 -13t14 -4.5q17 0 60 26l7 -12q-54 -39 -99 -39q-66 0 -45 56q-54 -56 -130 -56q-52 0 -84.5 20.5t-37.5 62t35 103.5l98 154q30 48 30 87q0 36 -22.5 54t-56.5 18
q-57 0 -108 -43.5t-51 -110.5q0 -65 56 -65q38 0 69 30l7 -8q-47 -45 -100 -45q-41 0 -61.5 29.5t-20.5 61.5zM459 682q32 0 36 -11q-6 -23 -37 -59t-58 -44l-5 6q17 15 37.5 47.5t26.5 60.5zM539 682q32 0 36 -11q-6 -23 -37 -59t-58 -44l-5 6q17 15 37.5 47.5t26.5 60.5z
" />
    <glyph glyph-name="uhungarumlaut" unicode="&#x171;" horiz-adv-x="346" 
d="M199 140l27 44q33 56 70 56q15 0 15 -12q0 -3 -2 -9l-96 -153q-27 -45 -3 -43q16 1 48 22l7 -8q-59 -47 -98 -47q-24 0 -31.5 18.5t6.5 40.5q-63 -59 -120 -59q-16 0 -29 9t-13 31q0 27 22 61l45 73q27 45 3 43q-16 -1 -48 -22l-7 8q59 47 98 47q24 0 31.5 -18.5
t-5.5 -38.5l-63 -101q-17 -30 -17 -43q0 -16 17 -16q72 0 143 117zM251 412q32 0 36 -11q-6 -23 -37 -59t-58 -44l-5 6q17 15 37.5 47.5t26.5 60.5zM331 412q32 0 36 -11q-6 -23 -37 -59t-58 -44l-5 6q17 15 37.5 47.5t26.5 60.5z" />
    <glyph glyph-name="Uogonek" unicode="&#x172;" horiz-adv-x="608" 
d="M332 -74l9 -6q-7 -19 -27.5 -31.5t-42.5 -12.5q-18 0 -31.5 10.5t-13.5 31.5q0 42 46 76q-34 10 -19 52q-54 -56 -130 -56q-52 0 -84.5 20.5t-37.5 62t35 103.5l98 154q30 48 30 87q0 36 -22.5 54t-56.5 18q-57 0 -108 -43.5t-51 -110.5q0 -65 56 -65q38 0 69 30l7 -8
q-47 -45 -100 -45q-41 0 -61.5 29.5t-20.5 61.5q0 62 71 112t151 50q51 0 88.5 -23t37.5 -68q0 -39 -27 -82l-115 -184q-32 -47 -17.5 -92.5t68.5 -45.5q87 0 170 121q24 35 58 89.5t56 89t54 75.5t60 64.5t66.5 39.5t80.5 16q54 0 87 -19t33 -58q0 -31 -27 -57t-67 -26
q-55 0 -94 38l8 9q25 -24 63 -24q27 0 45.5 20t18.5 43q0 62 -71 62q-48 0 -110.5 -73t-143.5 -201l-89 -141q-8 -12 -12.5 -22t-5.5 -18.5t3 -13t14 -4.5q17 0 60 26l7 -12q-54 -39 -99 -39q-2 0 -5.5 0.5t-4.5 0.5q-25 -29 -25 -53q0 -31 26 -31q24 0 43 19z" />
    <glyph glyph-name="uogonek" unicode="&#x173;" horiz-adv-x="346" 
d="M219 -74l9 -6q-7 -19 -27.5 -31.5t-42.5 -12.5q-18 0 -31.5 10.5t-13.5 31.5q0 40 43 74q-18 4 -22 21t8 36q-63 -59 -120 -59q-16 0 -29 9t-13 31q0 27 22 61l45 73q27 45 3 43q-16 -1 -48 -22l-7 8q59 47 98 47q24 0 31.5 -18.5t-5.5 -38.5l-63 -101q-17 -30 -17 -43
q0 -16 17 -16q72 0 143 117l27 44q33 56 70 56q15 0 15 -12q0 -3 -2 -9l-96 -153q-27 -45 -3 -43q16 1 48 22l7 -8q-52 -42 -90 -46q-25 -29 -25 -53q0 -31 26 -31q24 0 43 19z" />
    <glyph glyph-name="Wcircumflex" unicode="&#x174;" horiz-adv-x="1112" 
d="M424 -10h-78v14q51 2 86 40t50.5 86.5t40.5 118.5t53 113q44 69 115 105q-91 -33 -151 -104q-31 -37 -66.5 -94.5t-62.5 -101.5t-61 -87t-79 -66.5t-100 -23.5h-80v14q51 2 85.5 40.5t50 87t41 118t53.5 112.5q39 61 101 97q-16 -1 -59 -1h-5q-41 0 -63 -0.5t-57 -3
t-54 -8t-42.5 -16t-35.5 -25.5t-20.5 -38.5t-8.5 -53.5q0 -33 19.5 -57t50.5 -24q43 0 76 32l8 -9q-44 -43 -103 -43q-49 0 -75 29.5t-26 69.5q0 172 381 172h5q29 0 85 8.5t86 8.5v-14q-68 0 -116 -28.5t-72.5 -72.5t-46 -99.5t-37 -107t-45.5 -98t-71 -68.5q10 3 30 11
q40 17 71.5 46.5t54.5 66t43 74t48 79.5t59 73q139 135 323 138h14v-14q-58 0 -101 -21t-69 -56t-45.5 -78.5t-35.5 -91t-33 -90t-43.5 -80t-61.5 -56.5q20 6 29 10q40 17 71.5 46.5t54.5 66t43 74t48 79.5t59 73q141 138 299 138q58 0 98.5 -22.5t40.5 -71.5
q0 -42 -28.5 -71t-78.5 -29q-57 0 -77 43l10 5q17 -27 51 -27q30 0 51.5 23t21.5 57q0 79 -96 79q-73 0 -141.5 -34t-115.5 -89q-32 -37 -66 -94t-60 -101.5t-59 -87.5t-78 -66.5t-103 -23.5zM650 568l-10 13q58 40 111 115h15q0 -64 39 -125l-13 -7q-7 6 -24 32.5t-28 50.5
q-55 -57 -90 -79z" />
    <glyph glyph-name="wcircumflex" unicode="&#x175;" horiz-adv-x="459" 
d="M276 240q15 0 15 -12q0 -6 -2 -9q-110 -175 -110 -183q0 -15 16 -15q14 0 38 10t51.5 28t47 51.5t19.5 72.5q0 26 -13 52q0 6 11 6q25 0 45 -14.5t20 -45.5q0 -35 -48 -80.5t-116 -78t-122 -32.5q-14 0 -14 16q0 8 6 28q-80 -44 -138 -44q-22 0 -22 22q0 11 4.5 24.5
t19 37.5t23.5 38t34 52q14 21 14 34q0 9 -10 9q-17 0 -49 -22l-7 8q59 47 98 47q16 0 25 -9t9 -22q0 -12 -8 -26q-12 -19 -25 -39.5t-20.5 -32.5t-15.5 -25t-12 -20t-7.5 -14.5t-5 -11.5t-1.5 -8q0 -11 15 -11q28 0 52.5 16.5t38.5 34t36 52.5l39 60q33 56 69 56zM244 298
l-10 13q58 40 111 115h15q0 -64 39 -125l-13 -7q-7 6 -24 32.5t-28 50.5q-55 -57 -90 -79z" />
    <glyph glyph-name="Ycircumflex" unicode="&#x176;" horiz-adv-x="551" 
d="M244 330q35 56 35 98q0 60 -75 60q-81 0 -129 -39.5t-48 -108.5q0 -33 19.5 -57t50.5 -24q43 0 76 32l8 -9q-44 -43 -103 -43q-49 0 -75 29.5t-26 69.5q0 52 37.5 90.5t88.5 55t105 16.5q51 0 88.5 -23t37.5 -68q0 -39 -27 -82l-115 -184q-21 -33 -21 -67
q0 -31 18.5 -50.5t53.5 -19.5q88 0 170 120q24 35 58 89.5t56 89t54 75.5t60 64.5t66.5 39.5t80.5 16q59 0 91.5 -20.5t32.5 -52.5q0 -29 -26 -53t-72 -24q-55 0 -94 38l8 9q25 -24 63 -24q40 0 56.5 29t-2 57.5t-61.5 28.5q-48 0 -111.5 -74t-142.5 -200l-183 -291
q-95 -151 -213.5 -237t-224.5 -86q-53 0 -101 23.5t-48 74.5q0 48 40 88t97.5 66t136.5 47t140.5 31t127.5 18l66 104q-56 -62 -135 -62q-58 0 -87 25t-29 67t29 94zM-89 -388q67 0 143.5 52.5t132.5 118t95 133.5l11 19q-50 -7 -97 -16t-105 -23t-105.5 -33t-88.5 -43.5
t-64 -57t-23 -69.5q0 -42 30.5 -61.5t70.5 -19.5zM494 568l-10 13q58 40 111 115h15q0 -64 39 -125l-13 -7q-7 6 -24 32.5t-28 50.5q-55 -57 -90 -79z" />
    <glyph glyph-name="ycircumflex" unicode="&#x177;" horiz-adv-x="326" 
d="M291 240q15 0 15 -12q0 -3 -2 -9l-163 -263q21 2 60 2q104 0 163.5 -40.5t59.5 -94.5q0 -49 -50 -83.5t-141 -34.5q-81 0 -127 24l7 9q45 -21 117 -21q64 0 107.5 22.5t43.5 72.5q0 64 -66.5 93.5t-160.5 29.5q-4 0 -13 -0.5t-14 -0.5l-7 -11q-94 -151 -213 -237
t-225 -86q-23 0 -48 5t-51 15t-43 30.5t-17 47.5q0 177 553 251l56 89l10 17q-63 -62 -123 -62q-16 0 -29 9t-13 31q0 27 22 61l48 77q21 38 -2 36q-16 -1 -47 -22l-7 8q59 47 98 47q24 0 31.5 -18.5t-5.5 -38.5l-62 -98q-17 -30 -17 -43q0 -16 17 -16q72 0 143 117l5 8
l21 33q33 56 69 56zM-316 -388q51 0 107 30t105 78.5t88.5 97t70.5 98.5l9 13q-45 -5 -88 -12t-102 -19.5t-107 -31t-91.5 -42.5t-68 -58t-24.5 -73q0 -42 30.5 -61.5t70.5 -19.5zM152 298l-10 13q58 40 111 115h15q0 -64 39 -125l-13 -7q-7 6 -24 32.5t-28 50.5
q-55 -57 -90 -79z" />
    <glyph glyph-name="Ydieresis" unicode="&#x178;" horiz-adv-x="551" 
d="M244 330q35 56 35 98q0 60 -75 60q-81 0 -129 -39.5t-48 -108.5q0 -33 19.5 -57t50.5 -24q43 0 76 32l8 -9q-44 -43 -103 -43q-49 0 -75 29.5t-26 69.5q0 52 37.5 90.5t88.5 55t105 16.5q51 0 88.5 -23t37.5 -68q0 -39 -27 -82l-115 -184q-21 -33 -21 -67
q0 -31 18.5 -50.5t53.5 -19.5q88 0 170 120q24 35 58 89.5t56 89t54 75.5t60 64.5t66.5 39.5t80.5 16q59 0 91.5 -20.5t32.5 -52.5q0 -29 -26 -53t-72 -24q-55 0 -94 38l8 9q25 -24 63 -24q40 0 56.5 29t-2 57.5t-61.5 28.5q-48 0 -111.5 -74t-142.5 -200l-183 -291
q-95 -151 -213.5 -237t-224.5 -86q-53 0 -101 23.5t-48 74.5q0 48 40 88t97.5 66t136.5 47t140.5 31t127.5 18l66 104q-56 -62 -135 -62q-58 0 -87 25t-29 67t29 94zM-89 -388q67 0 143.5 52.5t132.5 118t95 133.5l11 19q-50 -7 -97 -16t-105 -23t-105.5 -33t-88.5 -43.5
t-64 -57t-23 -69.5q0 -42 30.5 -61.5t70.5 -19.5zM523 569q-13 0 -13 16q0 18 22.5 36.5t37.5 18.5q12 0 12 -14q0 -18 -21.5 -37.5t-37.5 -19.5zM627 569q-13 0 -13 16q0 18 22.5 36.5t37.5 18.5q12 0 12 -14q0 -18 -21.5 -37.5t-37.5 -19.5z" />
    <glyph glyph-name="Zacute" unicode="&#x179;" horiz-adv-x="555" 
d="M-25 2l593 423q-18 -2 -36 -2q-33 0 -88.5 19t-83.5 19q-74 0 -127 -66l-10 6q51 65 88 84.5t89 19.5q32 0 93.5 -19.5t95.5 -19.5q50 0 104 34l8 -9l-593 -423q24 4 69 4q39 0 95 -20t84 -20q60 0 117 66l10 -6q-51 -65 -88 -84.5t-89 -19.5q-35 0 -109.5 15.5
t-112.5 15.5q-56 0 -101 -26zM605 681q13 0 29 -3.5t17 -7.5q-5 -22 -41 -58t-64 -45l-5 6q17 15 37.5 47.5t26.5 60.5z" />
    <glyph glyph-name="zacute" unicode="&#x17a;" horiz-adv-x="274" 
d="M149 -10q-24 0 -55 10t-49 10q-17 0 -39 -11l-7 10l239 169q-11 2 -30.5 9.5t-37.5 7.5q-29 0 -53 -17l-7 10q19 22 47.5 37t54.5 15q16 0 45.5 -7t41.5 -7q22 0 45 14l7 -10l-256 -180q12 0 41.5 -8.5t44.5 -8.5q41 0 62 29l11 -6q-18 -23 -28 -34t-30.5 -21.5
t-46.5 -10.5zM306 411q13 0 29 -3.5t17 -7.5q-5 -22 -41 -58t-64 -45l-5 6q17 15 37.5 47.5t26.5 60.5z" />
    <glyph glyph-name="Zdotaccent" unicode="&#x17b;" horiz-adv-x="555" 
d="M-25 2l593 423q-18 -2 -36 -2q-33 0 -88.5 19t-83.5 19q-74 0 -127 -66l-10 6q51 65 88 84.5t89 19.5q32 0 93.5 -19.5t95.5 -19.5q50 0 104 34l8 -9l-593 -423q24 4 69 4q39 0 95 -20t84 -20q60 0 117 66l10 -6q-51 -65 -88 -84.5t-89 -19.5q-35 0 -109.5 15.5
t-112.5 15.5q-56 0 -101 -26zM544 571q-13 0 -13 16q0 18 22.5 36.5t37.5 18.5q12 0 12 -14q0 -18 -21.5 -37.5t-37.5 -19.5z" />
    <glyph glyph-name="zdotaccent" unicode="&#x17c;" horiz-adv-x="274" 
d="M149 -10q-24 0 -55 10t-49 10q-17 0 -39 -11l-7 10l239 169q-11 2 -30.5 9.5t-37.5 7.5q-29 0 -53 -17l-7 10q19 22 47.5 37t54.5 15q16 0 45.5 -7t41.5 -7q22 0 45 14l7 -10l-256 -180q12 0 41.5 -8.5t44.5 -8.5q41 0 62 29l11 -6q-18 -23 -28 -34t-30.5 -21.5
t-46.5 -10.5zM245 301q-13 0 -13 16q0 18 22.5 36.5t37.5 18.5q12 0 12 -14q0 -18 -21.5 -37.5t-37.5 -19.5z" />
    <glyph glyph-name="Zcaron" unicode="&#x17d;" horiz-adv-x="555" 
d="M-25 2l593 423q-18 -2 -36 -2q-33 0 -88.5 19t-83.5 19q-74 0 -127 -66l-10 6q51 65 88 84.5t89 19.5q32 0 93.5 -19.5t95.5 -19.5q50 0 104 34l8 -9l-593 -423q24 4 69 4q39 0 95 -20t84 -20q60 0 117 66l10 -6q-51 -65 -88 -84.5t-89 -19.5q-35 0 -109.5 15.5
t-112.5 15.5q-56 0 -101 -26zM655 695l8 -11q-54 -34 -113 -114h-14q0 60 -37 119l13 7q33 -28 50 -68q38 42 93 67z" />
    <glyph glyph-name="zcaron" unicode="&#x17e;" horiz-adv-x="274" 
d="M149 -10q-24 0 -55 10t-49 10q-17 0 -39 -11l-7 10l239 169q-11 2 -30.5 9.5t-37.5 7.5q-29 0 -53 -17l-7 10q19 22 47.5 37t54.5 15q16 0 45.5 -7t41.5 -7q22 0 45 14l7 -10l-256 -180q12 0 41.5 -8.5t44.5 -8.5q41 0 62 29l11 -6q-18 -23 -28 -34t-30.5 -21.5
t-46.5 -10.5zM356 425l8 -11q-54 -34 -113 -114h-14q0 60 -37 119l13 7q33 -28 50 -68q38 42 93 67z" />
    <glyph glyph-name="florin" unicode="&#x192;" horiz-adv-x="0" 
 />
    <glyph glyph-name="AEacute" unicode="&#x1fc;" horiz-adv-x="1247" 
d="M1164 486q-92 0 -153.5 -55.5t-61.5 -111.5q0 -24 14.5 -46.5t39.5 -22.5v-12q-69 -5 -127 -44t-58 -105q0 -34 20 -54l9 -7q30 -23 85 -23q77 0 147 42t70 103q0 30 -18 47.5t-45 17.5q-30 0 -56 -20l-8 10q35 30 88 30q36 0 62.5 -23t26.5 -59q0 -46 -47 -84.5
t-114 -58.5t-134 -20q-49 0 -88 12q-24 -12 -54 -12q-54 0 -88 32.5t-34 76.5q0 75 44 153h-106q-82 -91 -121 -124q-71 -61 -166.5 -99.5t-176.5 -38.5q-58 0 -98.5 22.5t-40.5 71.5q0 42 28.5 71t78.5 29q57 0 77 -43l-10 -5q-17 27 -51 27q-30 0 -51.5 -23t-21.5 -57
q0 -79 96 -79q173 0 366 218q5 6 24 27.5t25 28.5t23.5 26.5t26 27.5t25 25t27 25.5t26 22t28.5 22.5t28.5 18.5t30.5 17.5q-27 -5 -148 -5q-47 0 -73 -1t-64 -5t-59 -13t-42.5 -24.5t-31 -41t-9.5 -60.5q0 -33 19.5 -57t50.5 -24q43 0 76 32l8 -9q-44 -43 -103 -43
q-49 0 -75 29.5t-26 69.5q0 169 364 172q76 0 104 1q27 1 89.5 6.5t121.5 9.5l6 -9q-90 -57 -172 -170t-82 -211q0 -42 19 -69t59 -27h5q-45 24 -45 70q0 31 15.5 57.5t39 44t54 31.5t56.5 21.5t51 11.5q-33 4 -59 22.5t-26 43.5q0 45 33 82t81 58t95 32.5t82 11.5
q44 0 73 -13t29 -40q0 -68 -112 -84l-5 11q22 5 44.5 26t22.5 45q0 18 -13.5 29.5t-39.5 11.5zM911 480q-47 -1 -89.5 -17.5t-84.5 -51t-70 -63t-73 -78.5h101q39 62 96 118.5t120 91.5zM1030 667q13 0 29 -3.5t17 -7.5q-5 -22 -41 -58t-64 -45l-5 6q17 15 37.5 47.5
t26.5 60.5z" />
    <glyph glyph-name="aeacute" unicode="&#x1fd;" horiz-adv-x="490" 
d="M385 68l7 -10q-105 -68 -184 -68q-69 0 -69 47q0 16 6 34q-25 -25 -41.5 -39t-45 -28t-57.5 -14q-19 0 -30 13t-11 33q0 67 80 135.5t152 68.5q37 0 52 -24q28 12 51 35l11 -4l-34 -38q54 31 99 31q69 0 69 -40q0 -84 -230 -111q-6 -18 -6 -34q0 -30 43 -30q57 0 138 43z
M48 30q27 0 63.5 30.5t68.5 81.5q19 32 19 56t-23 24q-47 0 -99 -58t-52 -109q0 -25 23 -25zM218 106q18 1 43 7t51.5 16.5t44.5 28.5t18 40q0 23 -20 23q-37 0 -76.5 -35.5t-60.5 -79.5zM360 407q13 0 29 -3.5t17 -7.5q-5 -22 -41 -58t-64 -45l-5 6q17 15 37.5 47.5
t26.5 60.5z" />
    <glyph glyph-name="Oslashacute" unicode="&#x1fe;" horiz-adv-x="597" 
d="M579 545l-26 -40q48 -10 76.5 -41t31.5 -76q6 -91 -69.5 -186t-183 -153.5t-197.5 -58.5h-3l-30 -46h-35l32 49q-53 7 -84.5 39t-33.5 79q-5 74 41.5 149.5t117 129t150 87t141.5 33.5q9 0 14 -1l24 36h34zM502 496q-68 0 -158.5 -60.5t-157 -157.5t-61.5 -185
q3 -70 60 -85l327 488h-10zM593 409q-3 62 -51 80l-324 -485q52 0 119 39t125 96.5t96.5 131.5t34.5 138zM619 681q13 0 29 -3.5t17 -7.5q-5 -22 -41 -58t-64 -45l-5 6q17 15 37.5 47.5t26.5 60.5z" />
    <glyph glyph-name="oslashacute" unicode="&#x1ff;" horiz-adv-x="327" 
d="M-22 54q0 65 73 124.5t146 65.5l37 56h34l-38 -57q47 -10 47 -61q0 -65 -71 -125t-145 -66l-40 -60h-34l41 61q-50 9 -50 62zM33 30q0 -15 6 -21l148 221q-48 -11 -101 -82t-53 -118zM222 206q0 10 -5 18l-145 -218q43 17 96.5 84.5t53.5 115.5zM321 445q13 0 29 -3.5
t17 -7.5q-5 -22 -41 -58t-64 -45l-5 6q17 15 37.5 47.5t26.5 60.5z" />
    <glyph glyph-name="Scommaaccent" unicode="&#x218;" horiz-adv-x="412" 
d="M25 91q0 -37 27 -62t74 -25q43 0 71.5 13t42 38.5t18 52t4.5 64.5q0 30 -5.5 87.5t-5.5 86.5q0 74 29.5 114t115.5 40q52 0 82 -22.5t30 -54.5q0 -25 -22.5 -47t-66.5 -35l-5 11q20 13 32 34.5t12 42.5q0 25 -15.5 41t-45.5 16q-45 0 -62.5 -28.5t-17.5 -79.5
q0 -26 6 -83.5t6 -89.5q0 -98 -50.5 -156.5t-152.5 -58.5q-70 0 -110.5 30t-40.5 72q0 43 28.5 71.5t78.5 28.5q57 0 77 -43l-11 -6q-18 28 -50 28q-30 0 -51.5 -23t-21.5 -57zM63 -89q16 0 35 -3.5t20 -8.5q-6 -23 -49.5 -63t-76.5 -49l-8 10q22 17 46.5 51t32.5 63z" />
    <glyph glyph-name="scommaaccent" unicode="&#x219;" horiz-adv-x="283" 
d="M6 77l9 -5q-8 -16 -8 -32t9.5 -27t29.5 -11q26 0 52 17t26 38q0 11 -14.5 21.5t-32 18.5t-32 22.5t-14.5 33.5q0 34 42.5 60.5t93.5 26.5q57 0 71 -40l-45 -46l-8 6q10 20 10 37q0 13 -9.5 22t-27.5 9q-22 0 -44.5 -16t-22.5 -38q0 -10 14.5 -20.5t32 -19.5t32 -25
t14.5 -35q0 -31 -44.5 -57.5t-97.5 -26.5q-65 0 -87 35z" />
    <glyph glyph-name="dotlessj" unicode="&#x237;" horiz-adv-x="141" 
d="M145 247l-203 -324q-94 -151 -213 -237t-225 -86q-53 0 -101 23.5t-48 74.5q0 48 40 88t97.5 66t136.5 47t140.5 31t127.5 18l166 263q36 5 71 40zM-494 -388q51 0 107 30t105 78.5t88.5 97t70.5 98.5l12 19q-62 -8 -118.5 -19t-126.5 -32t-120 -46t-84.5 -63t-34.5 -82
q0 -42 30.5 -61.5t70.5 -19.5z" />
    <glyph glyph-name="circumflex" unicode="&#x2c6;" horiz-adv-x="169" 
d="M75 286l-10 13q58 40 111 115h15q0 -64 39 -125l-13 -7q-7 6 -24 32.5t-28 50.5q-55 -57 -90 -79z" />
    <glyph glyph-name="caron" unicode="&#x2c7;" horiz-adv-x="316" 
d="M249 413l8 -11q-54 -34 -113 -114h-14q0 60 -37 119l13 7q33 -28 50 -68q38 42 93 67z" />
    <glyph glyph-name="breve" unicode="&#x2d8;" horiz-adv-x="322" 
d="M151 325q36 0 74 37h20q-42 -62 -97 -62q-27 0 -47.5 17t-20.5 45h20q6 -37 51 -37z" />
    <glyph glyph-name="dotaccent" unicode="&#x2d9;" horiz-adv-x="140" 
d="M129 310q-13 0 -13 16q0 18 22.5 36.5t37.5 18.5q12 0 12 -14q0 -18 -21.5 -37.5t-37.5 -19.5z" />
    <glyph glyph-name="ring" unicode="&#x2da;" horiz-adv-x="280" 
d="M180 380q16 0 27 -7.5t11 -18.5q0 -24 -31.5 -42.5t-60.5 -18.5q-16 0 -26.5 7t-10.5 18q0 25 31 43.5t60 18.5zM173 368q-19 0 -37 -13t-18 -33q0 -16 16 -16q19 0 37 13t18 33q0 16 -16 16z" />
    <glyph glyph-name="ogonek" unicode="&#x2db;" horiz-adv-x="276" 
d="M108 -74l9 -6q-7 -19 -27.5 -31.5t-42.5 -12.5q-18 0 -31.5 10.5t-13.5 31.5q0 46 63 87h14q-40 -40 -40 -67q0 -31 26 -31q24 0 43 19z" />
    <glyph glyph-name="tilde" unicode="&#x2dc;" horiz-adv-x="155" 
d="M120 375q14 0 38.5 -13.5t39.5 -13.5q27 0 41 21l9 -3q-3 -24 -22.5 -38t-39.5 -14q-14 0 -38.5 13.5t-39.5 13.5q-27 0 -41 -21l-9 3q3 24 22.5 38t39.5 14z" />
    <glyph glyph-name="hungarumlaut" unicode="&#x2dd;" horiz-adv-x="302" 
d="M114 398q32 0 36 -11q-6 -23 -37 -59t-58 -44l-5 6q17 15 37.5 47.5t26.5 60.5zM194 398q32 0 36 -11q-6 -23 -37 -59t-58 -44l-5 6q17 15 37.5 47.5t26.5 60.5z" />
    <glyph glyph-name="Wgrave" unicode="&#x1e80;" horiz-adv-x="1112" 
d="M424 -10h-78v14q51 2 86 40t50.5 86.5t40.5 118.5t53 113q44 69 115 105q-91 -33 -151 -104q-31 -37 -66.5 -94.5t-62.5 -101.5t-61 -87t-79 -66.5t-100 -23.5h-80v14q51 2 85.5 40.5t50 87t41 118t53.5 112.5q39 61 101 97q-16 -1 -59 -1h-5q-41 0 -63 -0.5t-57 -3
t-54 -8t-42.5 -16t-35.5 -25.5t-20.5 -38.5t-8.5 -53.5q0 -33 19.5 -57t50.5 -24q43 0 76 32l8 -9q-44 -43 -103 -43q-49 0 -75 29.5t-26 69.5q0 172 381 172h5q29 0 85 8.5t86 8.5v-14q-68 0 -116 -28.5t-72.5 -72.5t-46 -99.5t-37 -107t-45.5 -98t-71 -68.5q10 3 30 11
q40 17 71.5 46.5t54.5 66t43 74t48 79.5t59 73q139 135 323 138h14v-14q-58 0 -101 -21t-69 -56t-45.5 -78.5t-35.5 -91t-33 -90t-43.5 -80t-61.5 -56.5q20 6 29 10q40 17 71.5 46.5t54.5 66t43 74t48 79.5t59 73q141 138 299 138q58 0 98.5 -22.5t40.5 -71.5
q0 -42 -28.5 -71t-78.5 -29q-57 0 -77 43l10 5q17 -27 51 -27q30 0 51.5 23t21.5 57q0 79 -96 79q-73 0 -141.5 -34t-115.5 -89q-32 -37 -66 -94t-60 -101.5t-59 -87.5t-78 -66.5t-103 -23.5zM666 684q6 -28 26.5 -60.5t37.5 -47.5l-5 -6q-28 9 -64 45t-41 58q1 4 17 7.5
t29 3.5z" />
    <glyph glyph-name="wgrave" unicode="&#x1e81;" horiz-adv-x="459" 
d="M276 240q15 0 15 -12q0 -6 -2 -9q-110 -175 -110 -183q0 -15 16 -15q14 0 38 10t51.5 28t47 51.5t19.5 72.5q0 26 -13 52q0 6 11 6q25 0 45 -14.5t20 -45.5q0 -35 -48 -80.5t-116 -78t-122 -32.5q-14 0 -14 16q0 8 6 28q-80 -44 -138 -44q-22 0 -22 22q0 11 4.5 24.5
t19 37.5t23.5 38t34 52q14 21 14 34q0 9 -10 9q-17 0 -49 -22l-7 8q59 47 98 47q16 0 25 -9t9 -22q0 -12 -8 -26q-12 -19 -25 -39.5t-20.5 -32.5t-15.5 -25t-12 -20t-7.5 -14.5t-5 -11.5t-1.5 -8q0 -11 15 -11q28 0 52.5 16.5t38.5 34t36 52.5l39 60q33 56 69 56zM260 414
q6 -28 26.5 -60.5t37.5 -47.5l-5 -6q-28 9 -64 45t-41 58q1 4 17 7.5t29 3.5z" />
    <glyph glyph-name="Wacute" unicode="&#x1e82;" horiz-adv-x="1112" 
d="M424 -10h-78v14q51 2 86 40t50.5 86.5t40.5 118.5t53 113q44 69 115 105q-91 -33 -151 -104q-31 -37 -66.5 -94.5t-62.5 -101.5t-61 -87t-79 -66.5t-100 -23.5h-80v14q51 2 85.5 40.5t50 87t41 118t53.5 112.5q39 61 101 97q-16 -1 -59 -1h-5q-41 0 -63 -0.5t-57 -3
t-54 -8t-42.5 -16t-35.5 -25.5t-20.5 -38.5t-8.5 -53.5q0 -33 19.5 -57t50.5 -24q43 0 76 32l8 -9q-44 -43 -103 -43q-49 0 -75 29.5t-26 69.5q0 172 381 172h5q29 0 85 8.5t86 8.5v-14q-68 0 -116 -28.5t-72.5 -72.5t-46 -99.5t-37 -107t-45.5 -98t-71 -68.5q10 3 30 11
q40 17 71.5 46.5t54.5 66t43 74t48 79.5t59 73q139 135 323 138h14v-14q-58 0 -101 -21t-69 -56t-45.5 -78.5t-35.5 -91t-33 -90t-43.5 -80t-61.5 -56.5q20 6 29 10q40 17 71.5 46.5t54.5 66t43 74t48 79.5t59 73q141 138 299 138q58 0 98.5 -22.5t40.5 -71.5
q0 -42 -28.5 -71t-78.5 -29q-57 0 -77 43l10 5q17 -27 51 -27q30 0 51.5 23t21.5 57q0 79 -96 79q-73 0 -141.5 -34t-115.5 -89q-32 -37 -66 -94t-60 -101.5t-59 -87.5t-78 -66.5t-103 -23.5zM778 681q13 0 29 -3.5t17 -7.5q-5 -22 -41 -58t-64 -45l-5 6q17 15 37.5 47.5
t26.5 60.5z" />
    <glyph glyph-name="wacute" unicode="&#x1e83;" horiz-adv-x="459" 
d="M276 240q15 0 15 -12q0 -6 -2 -9q-110 -175 -110 -183q0 -15 16 -15q14 0 38 10t51.5 28t47 51.5t19.5 72.5q0 26 -13 52q0 6 11 6q25 0 45 -14.5t20 -45.5q0 -35 -48 -80.5t-116 -78t-122 -32.5q-14 0 -14 16q0 8 6 28q-80 -44 -138 -44q-22 0 -22 22q0 11 4.5 24.5
t19 37.5t23.5 38t34 52q14 21 14 34q0 9 -10 9q-17 0 -49 -22l-7 8q59 47 98 47q16 0 25 -9t9 -22q0 -12 -8 -26q-12 -19 -25 -39.5t-20.5 -32.5t-15.5 -25t-12 -20t-7.5 -14.5t-5 -11.5t-1.5 -8q0 -11 15 -11q28 0 52.5 16.5t38.5 34t36 52.5l39 60q33 56 69 56zM372 411
q13 0 29 -3.5t17 -7.5q-5 -22 -41 -58t-64 -45l-5 6q17 15 37.5 47.5t26.5 60.5z" />
    <glyph glyph-name="Wdieresis" unicode="&#x1e84;" horiz-adv-x="1112" 
d="M424 -10h-78v14q51 2 86 40t50.5 86.5t40.5 118.5t53 113q44 69 115 105q-91 -33 -151 -104q-31 -37 -66.5 -94.5t-62.5 -101.5t-61 -87t-79 -66.5t-100 -23.5h-80v14q51 2 85.5 40.5t50 87t41 118t53.5 112.5q39 61 101 97q-16 -1 -59 -1h-5q-41 0 -63 -0.5t-57 -3
t-54 -8t-42.5 -16t-35.5 -25.5t-20.5 -38.5t-8.5 -53.5q0 -33 19.5 -57t50.5 -24q43 0 76 32l8 -9q-44 -43 -103 -43q-49 0 -75 29.5t-26 69.5q0 172 381 172h5q29 0 85 8.5t86 8.5v-14q-68 0 -116 -28.5t-72.5 -72.5t-46 -99.5t-37 -107t-45.5 -98t-71 -68.5q10 3 30 11
q40 17 71.5 46.5t54.5 66t43 74t48 79.5t59 73q139 135 323 138h14v-14q-58 0 -101 -21t-69 -56t-45.5 -78.5t-35.5 -91t-33 -90t-43.5 -80t-61.5 -56.5q20 6 29 10q40 17 71.5 46.5t54.5 66t43 74t48 79.5t59 73q141 138 299 138q58 0 98.5 -22.5t40.5 -71.5
q0 -42 -28.5 -71t-78.5 -29q-57 0 -77 43l10 5q17 -27 51 -27q30 0 51.5 23t21.5 57q0 79 -96 79q-73 0 -141.5 -34t-115.5 -89q-32 -37 -66 -94t-60 -101.5t-59 -87.5t-78 -66.5t-103 -23.5zM679 569q-13 0 -13 16q0 18 22.5 36.5t37.5 18.5q12 0 12 -14q0 -18 -21.5 -37.5
t-37.5 -19.5zM783 569q-13 0 -13 16q0 18 22.5 36.5t37.5 18.5q12 0 12 -14q0 -18 -21.5 -37.5t-37.5 -19.5z" />
    <glyph glyph-name="wdieresis" unicode="&#x1e85;" horiz-adv-x="459" 
d="M276 240q15 0 15 -12q0 -6 -2 -9q-110 -175 -110 -183q0 -15 16 -15q14 0 38 10t51.5 28t47 51.5t19.5 72.5q0 26 -13 52q0 6 11 6q25 0 45 -14.5t20 -45.5q0 -35 -48 -80.5t-116 -78t-122 -32.5q-14 0 -14 16q0 8 6 28q-80 -44 -138 -44q-22 0 -22 22q0 11 4.5 24.5
t19 37.5t23.5 38t34 52q14 21 14 34q0 9 -10 9q-17 0 -49 -22l-7 8q59 47 98 47q16 0 25 -9t9 -22q0 -12 -8 -26q-12 -19 -25 -39.5t-20.5 -32.5t-15.5 -25t-12 -20t-7.5 -14.5t-5 -11.5t-1.5 -8q0 -11 15 -11q28 0 52.5 16.5t38.5 34t36 52.5l39 60q33 56 69 56zM273 299
q-13 0 -13 16q0 18 22.5 36.5t37.5 18.5q12 0 12 -14q0 -18 -21.5 -37.5t-37.5 -19.5zM377 299q-13 0 -13 16q0 18 22.5 36.5t37.5 18.5q12 0 12 -14q0 -18 -21.5 -37.5t-37.5 -19.5z" />
    <glyph glyph-name="Ygrave" unicode="&#x1ef2;" horiz-adv-x="551" 
d="M244 330q35 56 35 98q0 60 -75 60q-81 0 -129 -39.5t-48 -108.5q0 -33 19.5 -57t50.5 -24q43 0 76 32l8 -9q-44 -43 -103 -43q-49 0 -75 29.5t-26 69.5q0 52 37.5 90.5t88.5 55t105 16.5q51 0 88.5 -23t37.5 -68q0 -39 -27 -82l-115 -184q-21 -33 -21 -67
q0 -31 18.5 -50.5t53.5 -19.5q88 0 170 120q24 35 58 89.5t56 89t54 75.5t60 64.5t66.5 39.5t80.5 16q59 0 91.5 -20.5t32.5 -52.5q0 -29 -26 -53t-72 -24q-55 0 -94 38l8 9q25 -24 63 -24q40 0 56.5 29t-2 57.5t-61.5 28.5q-48 0 -111.5 -74t-142.5 -200l-183 -291
q-95 -151 -213.5 -237t-224.5 -86q-53 0 -101 23.5t-48 74.5q0 48 40 88t97.5 66t136.5 47t140.5 31t127.5 18l66 104q-56 -62 -135 -62q-58 0 -87 25t-29 67t29 94zM-89 -388q67 0 143.5 52.5t132.5 118t95 133.5l11 19q-50 -7 -97 -16t-105 -23t-105.5 -33t-88.5 -43.5
t-64 -57t-23 -69.5q0 -42 30.5 -61.5t70.5 -19.5zM510 684q6 -28 26.5 -60.5t37.5 -47.5l-5 -6q-28 9 -64 45t-41 58q1 4 17 7.5t29 3.5z" />
    <glyph glyph-name="ygrave" unicode="&#x1ef3;" horiz-adv-x="326" 
d="M291 240q15 0 15 -12q0 -3 -2 -9l-163 -263q21 2 60 2q104 0 163.5 -40.5t59.5 -94.5q0 -49 -50 -83.5t-141 -34.5q-81 0 -127 24l7 9q45 -21 117 -21q64 0 107.5 22.5t43.5 72.5q0 64 -66.5 93.5t-160.5 29.5q-4 0 -13 -0.5t-14 -0.5l-7 -11q-94 -151 -213 -237
t-225 -86q-23 0 -48 5t-51 15t-43 30.5t-17 47.5q0 177 553 251l56 89l10 17q-63 -62 -123 -62q-16 0 -29 9t-13 31q0 27 22 61l48 77q21 38 -2 36q-16 -1 -47 -22l-7 8q59 47 98 47q24 0 31.5 -18.5t-5.5 -38.5l-62 -98q-17 -30 -17 -43q0 -16 17 -16q72 0 143 117l5 8
l21 33q33 56 69 56zM-316 -388q51 0 107 30t105 78.5t88.5 97t70.5 98.5l9 13q-45 -5 -88 -12t-102 -19.5t-107 -31t-91.5 -42.5t-68 -58t-24.5 -73q0 -42 30.5 -61.5t70.5 -19.5zM178 414q6 -28 26.5 -60.5t37.5 -47.5l-5 -6q-28 9 -64 45t-41 58q1 4 17 7.5t29 3.5z" />
    <glyph glyph-name="endash" unicode="&#x2013;" horiz-adv-x="423" 
d="M373 108h-373l19 30h373z" />
    <glyph glyph-name="emdash" unicode="&#x2014;" horiz-adv-x="979" 
d="M929 108h-929l17 30h929z" />
    <glyph glyph-name="quoteleft" unicode="&#x2018;" horiz-adv-x="166" 
d="M313 386q-13 0 -29 3.5t-17 7.5q5 22 41 58t64 45l6 -9q-18 -15 -38.5 -46.5t-26.5 -58.5z" />
    <glyph glyph-name="quoteright" unicode="&#x2019;" horiz-adv-x="167" 
d="M180 500q13 0 29 -3.5t17 -7.5q-5 -22 -41 -58t-64 -45l-6 9q18 15 38.5 46.5t26.5 58.5z" />
    <glyph glyph-name="quotesinglbase" unicode="&#x201a;" horiz-adv-x="166" 
d="M56 50q13 0 29 -3.5t17 -7.5q-5 -22 -41 -58t-64 -45l-6 9q18 15 38.5 46.5t26.5 58.5z" />
    <glyph glyph-name="quotedblleft" unicode="&#x201c;" horiz-adv-x="270" 
d="M326 386q-13 0 -29 3.5t-17 7.5q5 22 41 58t64 45l6 -9q-18 -15 -38.5 -46.5t-26.5 -58.5zM429 386q-13 0 -29 3.5t-17 7.5q5 22 41 58t64 45l6 -9q-18 -15 -38.5 -46.5t-26.5 -58.5z" />
    <glyph glyph-name="quotedblright" unicode="&#x201d;" horiz-adv-x="269" 
d="M130 500q13 0 29 -3.5t17 -7.5q-5 -22 -41 -58t-64 -45l-6 9q18 15 38.5 46.5t26.5 58.5zM233 500q13 0 29 -3.5t17 -7.5q-5 -22 -41 -58t-64 -45l-6 9q18 15 38.5 46.5t26.5 58.5z" />
    <glyph glyph-name="quotedblbase" unicode="&#x201e;" horiz-adv-x="257" 
d="M38 50q13 0 29 -3.5t17 -7.5q-5 -22 -41 -58t-64 -45l-6 9q18 15 38.5 46.5t26.5 58.5zM129 50q13 0 29 -3.5t17 -7.5q-5 -22 -41 -58t-64 -45l-6 9q18 15 38.5 46.5t26.5 58.5z" />
    <glyph glyph-name="dagger" unicode="&#x2020;" horiz-adv-x="374" 
d="M64 -56l244 390h-125l10 20h127l92 146h47l-92 -146h119l-10 -20h-122l-245 -390h-45z" />
    <glyph glyph-name="daggerdbl" unicode="&#x2021;" horiz-adv-x="374" 
d="M64 -56l179 287h-123l10 20h126l52 83h-125l10 20h127l92 146h47l-92 -146h119l-10 -20h-122l-52 -83h118l-10 -20h-121l-180 -287h-45z" />
    <glyph glyph-name="bullet" unicode="&#x2022;" horiz-adv-x="350" 
d="M191 132q-20 0 -31.5 15.5t-11.5 38.5q0 41 38 85.5t85 71.5t78 27q19 0 30 -12t11 -34q0 -63 -72 -127.5t-127 -64.5z" />
    <glyph glyph-name="ellipsis" unicode="&#x2026;" horiz-adv-x="537" 
d="M114 -10q-13 0 -13 16q0 18 22.5 36.5t37.5 18.5q12 0 12 -14q0 -18 -21.5 -37.5t-37.5 -19.5zM254 -10q-13 0 -13 16q0 18 22.5 36.5t37.5 18.5q12 0 12 -14q0 -18 -21.5 -37.5t-37.5 -19.5zM394 -10q-13 0 -13 16q0 18 22.5 36.5t37.5 18.5q12 0 12 -14
q0 -18 -21.5 -37.5t-37.5 -19.5z" />
    <glyph glyph-name="perthousand" unicode="&#x2030;" horiz-adv-x="92" 
 />
    <glyph glyph-name="guilsinglleft" unicode="&#x2039;" horiz-adv-x="236" 
d="M212 241l8 -9q-11 -16 -48.5 -58.5t-58.5 -56.5q14 -9 29 -43t20 -61l-11 -3q-44 79 -89 100l1 12q24 11 76.5 54t72.5 65z" />
    <glyph glyph-name="guilsinglright" unicode="&#x203a;" horiz-adv-x="236" 
d="M35 10l-8 9q11 16 48.5 58.5t58.5 56.5q-14 9 -29 43t-20 61l11 3q44 -79 89 -100l-1 -12q-24 -11 -76.5 -54t-72.5 -65z" />
    <glyph glyph-name="fraction" unicode="&#x2044;" horiz-adv-x="389" 
d="M711 565l-681 -588h-45l682 588h44z" />
    <glyph glyph-name="zerosuperior" unicode="&#x2070;" horiz-adv-x="397" 
d="M59 662q43 69 118 118.5t136 49.5q62 0 74.5 -49t-30.5 -119q-44 -70 -118.5 -119.5t-135.5 -49.5t-74 49.5t30 119.5zM104 662q-42 -67 -41 -114t45 -47q43 0 102.5 47t101.5 114q42 66 41 113t-44 47t-103 -47t-102 -113z" />
    <glyph glyph-name="foursuperior" unicode="&#x2074;" horiz-adv-x="371" 
d="M134 493q-5 0 -8.5 7.5t-3.5 14.5q0 20 17 42l41 66h-181v8l243 199h48l-256 -195h153l85 138l43 6l-89 -144h103l-6 -12h-105l-76 -124q-4 -6 -8 -6z" />
    <glyph glyph-name="fivesuperior" unicode="&#x2075;" horiz-adv-x="393" 
d="M94 680l99 154q46 -21 89 -21q39 0 59 20l6 -5q-48 -45 -87 -45q-27 0 -73 19l-70 -108q16 6 40 6q46 0 83 -22.5t37 -67.5q0 -41 -45 -79t-106 -38q-52 0 -80 22t-28 53q0 30 30 52.5t62 22.5q35 0 47 -31l-6 -4q-11 21 -36 21t-44.5 -19t-19.5 -45q0 -27 17.5 -45.5
t52.5 -18.5q49 0 81 35.5t32 75.5q0 34 -25.5 56.5t-58.5 22.5q-28 0 -50 -17z" />
    <glyph glyph-name="sixsuperior" unicode="&#x2076;" horiz-adv-x="368" 
d="M283 607q0 -49 -46.5 -81.5t-101.5 -32.5q-30 0 -51 10t-30 26t-12.5 29.5t-3.5 26.5q0 54 70.5 118.5t209.5 122.5l10 4l3 -7l-12 -6q-121 -50 -179.5 -116t-58.5 -121q0 -79 62 -79q39 0 68 27.5t29 81.5q0 27 -12.5 40.5t-33.5 13.5q-27 0 -55 -26l-5 6q38 36 80 36
q33 0 51 -23.5t18 -49.5z" />
    <glyph glyph-name="sevensuperior" unicode="&#x2077;" horiz-adv-x="310" 
d="M68 757l-7 4q34 43 58.5 56t58.5 13q21 0 62 -13t63 -13q32 0 69 23l5 -6q-31 -28 -93 -61q-83 -44 -117 -101t-40 -151l-44 -17q-1 4 -1 14q0 23 3.5 45.5t17 56t36 62t64 58t97.5 50.5q-3 0 -8 -0.5t-7 -0.5q-21 0 -68 12.5t-65 12.5q-50 0 -84 -44z" />
    <glyph glyph-name="eightsuperior" unicode="&#x2078;" horiz-adv-x="418" 
d="M197 689q-20 51 -20 72q0 47 39 63t85 1q54 -17 57 -58q4 -39 -39 -63q-33 -19 -78 -17q3 -9 10 -25.5t11.5 -31.5t4.5 -30q0 -49 -33 -78t-97 -29q-36 0 -65.5 20t-29.5 57q0 42 43 78.5t112 40.5zM295 815q-26 14 -50.5 1t-24.5 -45q0 -20 18 -76q37 -2 60 23.5
t22 55.5t-25 41zM200 681q-51 -3 -83.5 -39t-32.5 -77q0 -31 17 -47t39 -16q38 0 61 24.5t23 61.5q0 13 -24 93z" />
    <glyph glyph-name="ninesuperior" unicode="&#x2079;" horiz-adv-x="368" 
d="M87 716q0 49 46.5 81.5t101.5 32.5q30 0 51 -10t30 -26t12.5 -29.5t3.5 -26.5q0 -54 -70.5 -118.5t-209.5 -122.5l-10 -4l-3 7l12 6q121 50 179.5 116t58.5 121q0 79 -62 79q-39 0 -68 -27.5t-29 -81.5q0 -27 12.5 -40.5t33.5 -13.5q27 0 55 26l5 -6q-38 -36 -80 -36
q-33 0 -51 23.5t-18 49.5z" />
    <glyph glyph-name="zeroinferior" unicode="&#x2080;" horiz-adv-x="397" 
d="M59 162q43 69 118 118.5t136 49.5q62 0 74.5 -49t-30.5 -119q-44 -70 -118.5 -119.5t-135.5 -49.5t-74 49.5t30 119.5zM104 162q-42 -67 -41 -114t45 -47q43 0 102.5 47t101.5 114q42 66 41 113t-44 47t-103 -47t-102 -113z" />
    <glyph glyph-name="oneinferior" unicode="&#x2081;" horiz-adv-x="247" 
d="M48 -7q-12 0 -12 22q0 19 16 42l119 190l3 6q0 2 -2 2l-70 -33l-4 6l155 103l6 -4l-204 -328q-3 -6 -7 -6z" />
    <glyph glyph-name="twoinferior" unicode="&#x2082;" horiz-adv-x="386" 
d="M281 61q-33 -43 -57.5 -56t-59.5 -13q-21 0 -61.5 13t-62.5 13q-33 0 -69 -23l-5 6q24 22 67.5 43t84 38.5t79 39.5t62 55.5t23.5 77.5q0 24 -14 45.5t-42 21.5q-37 0 -71 -28.5t-34 -72.5q0 -43 36 -43q25 0 46 21l6 -6q-32 -30 -66 -30q-27 0 -42 19.5t-15 40.5
q0 41 48 74t101 33q39 0 65 -23t26 -62q0 -103 -266 -200q6 1 17 1q21 0 58 -12.5t56 -12.5q49 0 84 44z" />
    <glyph glyph-name="threeinferior" unicode="&#x2083;" horiz-adv-x="343" 
d="M127 257q0 33 36.5 53t83.5 20q36 0 62 -16.5t26 -46.5q0 -41 -36.5 -74t-97.5 -33q25 -3 38.5 -18.5t13.5 -37.5q0 -50 -48.5 -80.5t-105.5 -30.5q-40 0 -61.5 18.5t-21.5 43.5q0 22 17.5 38.5t47.5 16.5q17 0 34 -11l-3 -7q-8 4 -19 4q-18 0 -31 -13t-13 -33
t13.5 -34.5t37.5 -14.5q43 0 76.5 34.5t33.5 70.5q0 48 -40 51v8q62 0 92 32.5t30 74.5q0 24 -16 36.5t-40 12.5q-30 0 -53.5 -17t-23.5 -44q0 -10 5 -17.5t13 -7.5q18 0 35 11l4 -5q-21 -21 -48 -21q-41 0 -41 37z" />
    <glyph glyph-name="fourinferior" unicode="&#x2084;" horiz-adv-x="371" 
d="M134 -7q-5 0 -8.5 7.5t-3.5 14.5q0 20 17 42l41 66h-181v8l243 199h48l-256 -195h153l85 138l43 6l-89 -144h103l-6 -12h-105l-76 -124q-4 -6 -8 -6z" />
    <glyph glyph-name="fiveinferior" unicode="&#x2085;" horiz-adv-x="393" 
d="M94 180l99 154q46 -21 89 -21q39 0 59 20l6 -5q-48 -45 -87 -45q-27 0 -73 19l-70 -108q17 6 40 6q46 0 83 -22.5t37 -67.5q0 -41 -45 -79t-106 -38q-52 0 -80 22t-28 53q0 30 30 52.5t62 22.5q35 0 47 -31l-6 -4q-11 21 -36 21t-44.5 -19t-19.5 -45q0 -27 17.5 -45.5
t52.5 -18.5q49 0 81 35.5t32 75.5q0 34 -25.5 56.5t-58.5 22.5q-28 0 -50 -17z" />
    <glyph glyph-name="sixinferior" unicode="&#x2086;" horiz-adv-x="368" 
d="M283 107q0 -49 -46.5 -81.5t-101.5 -32.5q-30 0 -51 10t-30 26t-12.5 29.5t-3.5 26.5q0 54 70.5 118.5t209.5 122.5l10 4l3 -7l-12 -6q-121 -50 -179.5 -116t-58.5 -121q0 -79 62 -79q39 0 68 27.5t29 81.5q0 27 -12.5 40.5t-33.5 13.5q-27 0 -55 -26l-5 6q38 36 80 36
q33 0 51 -23.5t18 -49.5z" />
    <glyph glyph-name="seveninferior" unicode="&#x2087;" horiz-adv-x="310" 
d="M68 257l-7 4q34 43 58.5 56t58.5 13q21 0 62 -13t63 -13q32 0 69 23l5 -6q-31 -28 -93 -61q-83 -44 -117 -101t-40 -151l-44 -17q-1 4 -1 14q0 23 3.5 45.5t17 56t36 62t64 58t97.5 50.5q-3 0 -8 -0.5t-7 -0.5q-21 0 -68 12.5t-65 12.5q-50 0 -84 -44z" />
    <glyph glyph-name="eightinferior" unicode="&#x2088;" horiz-adv-x="418" 
d="M197 189q-20 51 -20 72q0 47 39 63t85 1q54 -17 57 -58q4 -39 -39 -63q-33 -19 -78 -17q3 -9 10 -25.5t11.5 -31.5t4.5 -30q0 -49 -33 -78t-97 -29q-36 0 -65.5 20t-29.5 57q0 42 43 78.5t112 40.5zM295 315q-26 14 -50.5 1t-24.5 -45q0 -20 18 -76q37 -2 60 23.5
t22 55.5t-25 41zM200 181q-51 -3 -83.5 -39t-32.5 -77q0 -31 17 -47t39 -16q38 0 61 24.5t23 61.5q0 13 -24 93z" />
    <glyph glyph-name="nineinferior" unicode="&#x2089;" horiz-adv-x="368" 
d="M87 216q0 49 46.5 81.5t101.5 32.5q30 0 51 -10t30 -26t12.5 -29.5t3.5 -26.5q0 -54 -70.5 -118.5t-209.5 -122.5l-10 -4l-3 7l12 6q121 50 179.5 116t58.5 121q0 79 -62 79q-39 0 -68 -27.5t-29 -81.5q0 -27 12.5 -40.5t33.5 -13.5q27 0 55 26l5 -6q-38 -36 -80 -36
q-33 0 -51 23.5t-18 49.5z" />
    <glyph glyph-name="Euro" unicode="&#x20ac;" horiz-adv-x="635" 
d="M606 447q0 -68 -113 -84l-4 11q22 5 44 26t22 45q0 18 -13.5 29.5t-39.5 11.5q-61 0 -143.5 -50.5t-143.5 -125.5h143l-20 -30h-145q-22 -33 -36 -64h151l-20 -30h-142q-9 -32 -9 -62q0 -111 121 -111q57 0 122.5 24.5t109.5 57.5l9 -11q-45 -41 -120.5 -67.5
t-146.5 -26.5q-74 0 -122 32.5t-48 100.5q0 31 9 63h-54l20 30h46q12 29 37 64h-103l20 30h106q69 82 172.5 136t191.5 54q41 0 70 -13t29 -40z" />
    <glyph glyph-name="trademark" unicode="&#x2122;" horiz-adv-x="58" 
 />
    <glyph glyph-name="onethird" unicode="&#x2153;" horiz-adv-x="954" 
d="M653 541l-401 -601h-35l402 601h34zM184 163q-9 0 -9 22q0 19 16 42l119 190q4 6 4.5 8t-2 1.5t-9.5 -3.5l-65 -31l-4 6l154 103l7 -4l-204 -328q-3 -6 -7 -6zM641 257q1 33 38 53.5t84 20.5q37 0 62.5 -16.5t24.5 -46.5q-2 -41 -39 -74t-99 -33q25 -4 38 -19.5t13 -37.5
q-1 -50 -50.5 -80t-106.5 -30q-40 0 -61 18t-20 43q1 23 18.5 39.5t46.5 16.5q18 0 35 -11l-4 -7q-8 4 -18 4q-18 0 -31.5 -13t-14.5 -33t12.5 -34.5t37.5 -14.5q43 0 77 34t36 71q0 48 -39 51l1 8q22 0 37 4q43 9 65 39t24 64q0 50 -55 50q-30 0 -54 -17.5t-25 -44.5
q-2 -25 17 -25q20 0 35 11l4 -5q-22 -21 -49 -21q-40 0 -40 36z" />
    <glyph glyph-name="twothirds" unicode="&#x2154;" horiz-adv-x="1047" 
d="M653 541l-401 -601h-35l402 601h34zM296 231q-28 -41 -54 -54.5t-62 -13.5q-21 0 -62 12.5t-63 12.5q-32 0 -69 -23l-5 6q28 26 92 52.5t118 46.5t97 60t43 93q0 33 -18 50.5t-45 17.5q-36 0 -67 -27t-31 -69q0 -43 35 -43q25 0 46 21l6 -6q-32 -30 -66 -30
q-27 0 -41.5 19.5t-14.5 40.5q0 44 43 73.5t95 29.5q42 0 71.5 -23.5t29.5 -64.5q0 -88 -299 -197q6 1 18 1q21 0 58 -12t55 -12q50 0 84 43zM613 257q1 33 38 53.5t84 20.5q37 0 62.5 -16.5t24.5 -46.5q-2 -41 -39 -74t-99 -33q25 -4 38 -19.5t13 -37.5q-1 -50 -50.5 -80
t-106.5 -30q-40 0 -61 18t-20 43q1 23 18.5 39.5t46.5 16.5q18 0 35 -11l-4 -7q-8 4 -18 4q-18 0 -31.5 -13t-14.5 -33t12.5 -34.5t37.5 -14.5q43 0 77 34t36 71q0 48 -39 51l1 8q22 0 37 4q43 9 65 39t24 64q0 50 -55 50q-30 0 -54 -17.5t-25 -44.5q-2 -25 17 -25
q20 0 35 11l4 -5q-22 -21 -49 -21q-40 0 -40 36z" />
    <glyph glyph-name="minus" unicode="&#x2212;" horiz-adv-x="500" 
d="M188 205h230q48 0 51 -5q-1 -6 -15 -16.5t-22 -12.5h-230q-48 0 -51 4q1 6 14.5 16.5t22.5 13.5z" />
    <glyph glyph-name="orn.002" unicode="&#xe00b;" horiz-adv-x="875" 
d="M31 148l-7 10q67 45 134 45q45 0 97 -19t99.5 -46t96 -54t101 -46t98.5 -19q86 0 136.5 37t50.5 94q0 37 -22.5 59t-59.5 22q-26 0 -46 -17t-20 -46h-12q0 46 30 71t71 25q39 0 69 -27t30 -70q0 -77 -64.5 -119t-191.5 -42q-65 0 -142 25.5t-136 56.5t-125 56.5
t-111 25.5q-41 0 -76 -22z" />
    <glyph glyph-name="orn.001" unicode="&#xe029;" horiz-adv-x="931" 
d="M174 239q11 1 32 1q76 0 137 -23t100 -55.5t73.5 -64.5t75 -55t86.5 -23q63 0 104 32.5t41 82.5q0 31 -22.5 55.5t-58.5 24.5q-22 0 -40 -14t-22 -37l-12 3q15 70 88 76q46 0 81 -27t35 -72q0 -67 -56 -102t-140 -35q-76 0 -137.5 23t-100.5 55.5t-73.5 64.5t-75 55
t-86.5 23q-63 0 -104 -32.5t-41 -82.5q0 -32 22.5 -56t59.5 -24q23 0 40.5 13.5t21.5 37.5l12 -3q-15 -70 -88 -76q-46 0 -81.5 27t-35.5 72q0 58 47.5 95t117.5 41z" />
    <glyph glyph-name="orn.003" unicode="&#xe02b;" horiz-adv-x="757" 
d="M393 319l-7 -14q-30 -52 -79 -76q18 -17 27.5 -24.5t26.5 -15t35 -7.5q31 0 51.5 16t20.5 41q0 15 -11 27.5t-29 12.5q-26 0 -31 -26l-6 2q7 34 44 38q23 0 40 -13.5t17 -36.5q0 -33 -28 -50.5t-69 -17.5q-62 0 -107 31q0 -2 -1 -7q-12 -57 0 -84q2 -5 5 -10
q16 -27 40 -37t45 3q14 8 18.5 23t-3.5 32q-14 21 -38 14l-1 6q33 11 54 -19q12 -17 9 -40.5t-23 -34.5q-32 -15 -59.5 0t-48.5 51q-30 51 -26 107q-24 -8 -35 -12t-26.5 -15t-24.5 -26q-15 -27 -11.5 -53t25.5 -38q12 -8 29 -4.5t26 19.5q13 22 -7 39l4 5q28 -25 11 -57
q-11 -20 -30.5 -28t-41.5 2q-28 17 -29 52t19 67q31 52 80 77q-20 18 -27.5 24t-25 14.5t-35.5 8.5q-32 0 -52.5 -16t-20.5 -41q0 -16 11.5 -28t29.5 -12q26 0 31 26l6 -2q-7 -34 -44 -38q-23 0 -40.5 13.5t-17.5 36.5q0 29 23.5 47t58.5 20q6 1 16 1q59 0 106 -31
q16 68 -3 100q-16 28 -40 37.5t-46 -2.5q-14 -8 -18.5 -23.5t4.5 -32.5q13 -22 37 -14l2 -6q-34 -11 -55 19q-12 17 -9 41t23 35q26 13 53.5 2t46.5 -40l8 -14q30 -53 26 -107q24 7 35 11.5t26 15.5t24 27q16 27 12 52.5t-25 38.5q-12 8 -29 4t-26 -20q-13 -22 6 -39l-4 -5
q-26 25 -11 57q11 20 31 28.5t41 -2.5q25 -15 29 -45t-12 -60z" />
    </font>
</defs>
</svg>
